<?xml version="1.0" encoding="UTF-8" standalone="no"?>
<svg
   id="Capa_1"
   data-name="Capa 1"
   viewBox="0 0 676.39801 891.28552"
   version="1.1"
   sodipodi:docname="favicon.svg"
   width="676.39801"
   height="891.28552"
   inkscape:version="1.2.1 (9c6d41e410, 2022-07-14)"
   xmlns:inkscape="http://www.inkscape.org/namespaces/inkscape"
   xmlns:sodipodi="http://sodipodi.sourceforge.net/DTD/sodipodi-0.dtd"
   xmlns="http://www.w3.org/2000/svg"
   xmlns:svg="http://www.w3.org/2000/svg">
  <sodipodi:namedview
     id="namedview15"
     pagecolor="#ffffff"
     bordercolor="#000000"
     borderopacity="0.25"
     inkscape:showpageshadow="2"
     inkscape:pageopacity="0.0"
     inkscape:pagecheckerboard="true"
     inkscape:deskcolor="#d1d1d1"
     showgrid="false"
     inkscape:zoom="0.5741969"
     inkscape:cx="47.892979"
     inkscape:cy="299.54881"
     inkscape:window-width="1920"
     inkscape:window-height="1057"
     inkscape:window-x="-8"
     inkscape:window-y="-8"
     inkscape:window-maximized="1"
     inkscape:current-layer="Capa_1" />
  <defs
     id="defs4">
    <style
       id="style2">
      .cls-1 {
        fill: #ffa600;
      }

      .cls-2 {
        fill: #15214c;
      }
    </style>
  </defs>
  <path
     class="cls-2"
     d="m 173.45089,19.438137 c -6.85,2.82 -13.52,5.9 -20.02,9.19 -271.53545,137.124713 -184.077959,613.414653 273.7,667.350003 l 2.85,40.97998 c 0.28,4.06 4.56,6.57 8.25,4.84 l 21.52,-10.11998 c 3.8,7.62998 7.62,15.25998 11.57,22.80998 5.56,10.63 12.16,21.06 21.45,28.83 19.16,16.03 43.85,19.8 67.86,22.65 22.74,2.7 44.94,6.3 62.15,22.66 15.01,14.27 23.99,33.19 28.16,53.28 3.41,16.42001 28.55,9.46998 25.14,-6.93 -4.63,-22.31 -14.97,-43.5 -30.45,-60.3 -16.25,-17.63 -37.61,-27.7 -61.05,-31.62 -22.71,-3.8 -48.3,-2.99 -68.68,-15.11 -9.73,-5.78 -15.71,-14.74 -20.96,-24.52 -4.04,-7.51998 -7.87,-15.15998 -11.66,-22.80998 l 17.07,-8.02 c 2.21,-1.04 3.36,-3.2 3.33,-5.35 0,-1.68 -0.73,-3.37 -2.23,-4.55 l -30.64,-23.84 c 251.5013,-266.12568 103.30947,-785.62133 -297.36,-659.420003 z"
     id="path8-5"
     style="display:inline;fill:#f36148;fill-opacity:1"
     sodipodi:nodetypes="cccccccccccccccccccccc" />
</svg>
