<svg width="1035" height="201" viewBox="0 0 1035 201" fill="none" xmlns="http://www.w3.org/2000/svg">
<g clip-path="url(#clip0_202_17633)">
<path d="M535.678 140.875C535.678 156.35 535.915 179.257 536 194.749H529.982H518.301V175.368C518.301 175.368 512.422 180.293 510.735 181.777C488.785 201.081 449.348 201.354 434.743 184.444C420.847 168.361 421.997 134.456 445.933 123.238C462.736 115.366 480.182 113.17 498.286 113.254C501.937 113.254 505.606 113.034 509.257 113.051C513.179 113.068 514.548 111.041 514.852 107.324C516.222 90.6167 509.088 72.5912 485.388 73.74C474.181 74.2806 463.903 77.0005 453.98 81.4604C448.587 83.893 446.272 81.3252 444.48 77.3721C440.203 67.9286 441.268 65.4959 455.755 61.2725C473.623 56.0693 491.693 53.89 510.288 59.6845C527.074 64.9046 534.275 76.9667 535.425 92.7791C536.574 108.727 535.678 124.843 535.678 140.875ZM497.339 128.07C491.179 128.086 475.719 130.891 475.719 130.891C461.228 133.467 452.492 138.645 448.283 153.714C446.119 161.485 453.354 175.034 460.944 177.179C469.228 179.528 476.987 180.474 486.098 178.024C505.318 172.855 513.551 161.283 514.548 144.136C515.681 124.792 516.475 128.019 497.339 128.07Z" fill="black"/>
<path d="M836.577 140.875C836.577 156.35 836.813 179.257 836.898 194.749H830.88H819.199V175.368C819.199 175.368 813.321 180.293 811.633 181.777C789.683 201.081 750.247 201.354 735.641 184.444C721.746 168.361 722.895 134.456 746.832 123.238C763.635 115.366 781.08 113.17 799.185 113.254C802.836 113.254 806.504 113.034 810.155 113.051C814.077 113.068 815.446 111.041 815.751 107.324C817.12 90.6167 809.986 72.5912 786.287 73.74C775.079 74.2806 764.801 77.0005 754.878 81.4604C749.486 83.893 747.17 81.3252 745.378 77.3721C741.101 67.9286 742.166 65.4959 756.653 61.2725C774.521 56.0693 792.592 53.89 811.187 59.6845C827.973 64.9046 835.174 76.9667 836.323 92.7791C837.473 108.727 836.577 124.843 836.577 140.875ZM798.238 128.07C792.077 128.086 776.617 130.891 776.617 130.891C762.126 133.467 753.391 138.645 749.182 153.714C747.018 161.485 754.253 175.034 761.843 177.179C770.126 179.528 777.885 180.474 786.997 178.024C806.217 172.855 814.449 161.283 815.447 144.136C816.579 124.792 817.374 128.019 798.238 128.07Z" fill="black"/>
<path d="M577.956 125.638C577.956 105.67 577.956 78.0492 577.956 58.081H596.433L596.924 75.2618C596.924 75.2618 603.734 66.8602 611.49 63.5706C629.139 54.827 668.851 52.1006 683.152 70.0078C690.269 78.9108 693.125 88.9963 693.463 99.2676C694.444 129.051 694.207 194.058 694.207 194.058H671.2C671.2 194.058 671.302 130.402 671.116 105.653C671.065 99.5885 671.116 93.5237 668.073 87.6617C660.449 72.9473 641.195 72.1533 627.841 75.2618C611.444 79.0797 604.834 91.2938 602.282 107.072C598.123 132.835 600.101 194.058 600.101 194.058H577.973C577.973 194.058 577.939 145.911 577.939 125.655L577.956 125.638Z" fill="black"/>
<path d="M0.353101 109.86C0.353101 108.171 0.15025 106.448 0.38691 104.809C0.843326 101.633 -1.42185 96.5819 1.89139 95.7204C4.98488 94.9095 9.34619 96.3792 12.8961 98.474C23.1739 104.573 31.8289 113.323 44.1014 116.246C60.1774 120.064 75.5096 120.25 90.4868 112.04C99.9871 106.819 108.219 99.741 118.852 95.9907C132.071 91.328 142.197 96.3454 152.441 102.866C164.95 110.84 176.885 118.865 193.062 118.915C209.476 118.966 223.169 114.033 235.678 104.1C240.496 100.282 245.837 97.6125 251.991 95.9738C257.4 94.5378 257.772 96.5819 257.484 100.653C257.451 101.211 257.484 101.785 257.484 102.343C257.332 109.354 259.226 117.361 256.453 123.122C253.732 128.798 244.401 126.771 238.484 129.862C233.751 132.346 228.781 134.322 224.623 137.802C204.337 154.763 187.518 154.848 168.061 139.678C141.825 119.219 110.282 122.564 85.1282 141.924C69.0353 154.307 55.5287 152.669 40.3487 143.495C28.6509 136.417 18.2379 127.295 3.8861 125.808C1.07999 125.521 0.420718 123.308 0.403814 120.858C0.38691 117.192 0.403814 113.543 0.403814 109.877C0.403814 109.877 0.38691 109.877 0.370006 109.877L0.353101 109.86Z" fill="#1355FF"/>
<path d="M195.193 94.0976C185.828 95.5842 178.12 92.2055 170.868 86.7658C143.534 66.1894 113.697 66.3921 86.8027 86.3603C70.6253 98.3717 52.0474 97.5946 35.515 85.5156C26.8769 79.1974 18.0529 73.3522 6.727 73.2678C3.93779 73.2509 1.50357 71.5953 0.996436 69.0275C-0.406621 61.8139 -0.288291 54.3976 0.793585 47.2347C1.48666 42.5721 6.06773 43.856 9.17812 44.8021C18.1036 47.5219 26.2177 51.9312 33.8415 57.3033C57.0849 73.6225 73.2116 69.8553 92.2628 56.0701C115.32 39.3623 142.604 39.3454 165.357 56.3235C183.09 69.5681 200.383 73.1326 221.445 58.3507C229.475 52.7252 238.147 48.0287 247.596 45.0386C255.153 42.6566 257.266 44.177 257.401 52.1001C257.452 55.1916 257.147 58.3169 257.469 61.3747C258.364 69.9397 255.085 73.4367 246.092 73.7577C237.572 74.0618 230.439 79.3833 223.609 84.2824C215.039 90.4317 206.401 96.1586 195.159 94.1145L195.193 94.0976Z" fill="#1355FF"/>
<path d="M61.3111 200.545C46.4522 202.251 34.9742 194.463 23.4962 186.861C19.7772 184.395 16.5316 180.999 12.0013 180.138C7.4709 179.276 1.85867 178.262 1.01345 173.887C-0.288178 167.146 0.0330041 159.831 1.08107 152.99C1.67272 149.138 6.11856 150.135 8.89086 151.554C13.8776 154.105 19.1011 156.52 23.3948 160.017C45.5563 177.975 78.5197 176.539 100.512 160.727C121.812 145.404 136.654 146.181 157.666 160.963C171.612 170.779 186.927 174.799 204.913 172.062C218.859 169.951 229.357 163.126 240.463 156.199C243.303 154.426 246.21 152.601 249.304 151.368C254.257 149.391 257.672 150.489 257.452 156.723C257.418 157.855 257.35 158.987 257.469 160.102C258.703 170.846 256.962 178.245 243.928 181.388C233.363 183.922 225.79 194.075 214.87 197.639C195.988 203.805 178.306 201.542 162.078 190.476C154.166 185.087 146.323 179.918 136.958 177.671C122.319 174.174 109.776 179.986 98.6358 188.23C87.3437 196.609 75.5107 201.744 61.3111 200.528V200.545Z" fill="#1355FF"/>
<path d="M978.117 197.768C966.437 197.228 954.822 195.881 943.395 191.37C937.732 189.14 933.793 176.723 937.225 171.993C938.661 170 940.944 170.101 942.516 171.098C952.219 177.315 962.792 178.336 974.33 179.697C986.151 180.495 993.938 179.038 1002.91 175.422C1009.46 172.787 1013.8 166.384 1013.31 158.884C1012.79 150.876 1007.68 145.166 1000.53 141.872C986.788 135.537 972.757 129.844 959.065 123.424C946.775 117.663 937.664 108.541 936.734 94.4346C935.754 79.5851 942.144 67.8102 957.459 61.6948C979.857 52.7412 1002.91 54.7177 1025.62 62.4888C1031.08 64.364 1030.71 66.4925 1028.91 71.1383C1024.89 81.5278 1025.41 81.0548 1015.37 78.4363C1000.26 74.5001 984.945 70.6484 969.343 76.6118C962.835 79.0952 958.254 83.4537 958.101 90.5828C957.949 97.9315 962.311 103.253 968.751 106.159C982.63 112.443 996.948 117.815 1010.69 124.353C1021.02 129.252 1029.01 135.756 1033.55 147.97C1039.38 163.749 1026.58 186.42 1012.01 191.607C1001.24 195.441 989.661 197.768 978.117 197.768Z" fill="black"/>
<path d="M328.314 120.723C327.841 133.039 328.567 152.026 335.938 162.905C341.719 171.453 349.174 176.606 359.587 177.349C372.536 178.278 385.281 177.349 397.672 173.244C401.864 171.859 403.098 173.379 403.031 177.586C402.929 184.191 403.284 190.408 394.984 193.026C374.564 199.48 354.397 199.26 335.042 190.053C324.527 185.036 316.413 176.319 312.153 165.49C301.385 138.156 301.199 110.94 314.74 84.0797C322.566 68.5713 336.242 60.851 351.743 57.675C367.667 54.4145 384.183 55.5295 399.988 60.8847C402.591 61.7632 403.927 63.537 403.369 65.9021C402.355 70.1593 400.191 74.028 399.092 78.3527C398.45 80.8699 395.559 80.3293 392.702 79.4508C385.552 77.2546 378.148 75.0247 370.761 74.6361C347.061 73.386 329.363 95.8895 328.314 120.723Z" fill="black"/>
<path d="M901.099 97.9153C901.099 127.428 900.744 165.236 901.318 194.732H890.905H879.461C879.867 135.723 879.85 59.0262 879.461 0H890.753H901.268C900.811 29.4962 901.082 68.4022 901.082 97.9153H901.099Z" fill="black"/>
</g>
<defs>
<clipPath id="clip0_202_17633">
<rect width="1035" height="201" fill="white"/>
</clipPath>
</defs>
</svg>
