<?xml version="1.0" encoding="UTF-8" standalone="no"?>
<svg
   id="Capa_1"
   data-name="Capa 1"
   viewBox="0 0 970 1080"
   version="1.1"
   sodipodi:docname="logo-small-dark.svg"
   width="970"
   height="1080"
   inkscape:version="1.4.2 (ebf0e940d0, 2025-05-08)"
   xmlns:inkscape="http://www.inkscape.org/namespaces/inkscape"
   xmlns:sodipodi="http://sodipodi.sourceforge.net/DTD/sodipodi-0.dtd"
   xmlns="http://www.w3.org/2000/svg"
   xmlns:svg="http://www.w3.org/2000/svg">
  <sodipodi:namedview
     id="namedview65"
     pagecolor="#bebebe"
     bordercolor="#000000"
     borderopacity="0.25"
     inkscape:showpageshadow="2"
     inkscape:pageopacity="0.0"
     inkscape:pagecheckerboard="0"
     inkscape:deskcolor="#d1d1d1"
     inkscape:zoom="0.25729167"
     inkscape:cx="493.60324"
     inkscape:cy="732.63158"
     inkscape:window-width="1920"
     inkscape:window-height="1080"
     inkscape:window-x="0"
     inkscape:window-y="0"
     inkscape:window-maximized="1"
     inkscape:current-layer="Capa_1" />
  <defs
     id="defs1">
    <style
       id="style1">
      .cls-1 {
        fill: #fff;
      }

      .cls-2 {
        fill: #5f9931;
      }

      .cls-3 {
        fill: #2a5ca8;
      }

      .cls-4 {
        fill: #f9af15;
      }

      .cls-5 {
        fill: #cc4015;
      }
    </style>
  </defs>
  <g
     id="g65">
    <g
       id="g35">
      <path
         class="cls-1"
         d="m 465.57,497.09 v 3.25 c 0,9.92 -8.05,17.97 -17.94,17.97 H 93.35 c -9.92,0 -17.94,-8.05 -17.94,-17.97 v -2.48 c 0,4.09 1.03,7.92 2.8,11.27 l 61.99,-36.84 42.06,-31.4 43.15,-6.44 22.12,11.33 26.31,9.85 22.7,18.9 c -0.29,-9.95 -2.48,-20.71 -8.02,-31.17 -3.51,-6.63 -8.15,-12.69 -13.81,-18.03 l -16.13,8.02 c -3.12,1.55 -6.64,-1.42 -5.6,-4.77 1.87,-6.15 3.74,-12.3 5.57,-18.45 -17.52,-0.87 -59.22,-5.41 -98.79,-35.2 -17.55,-13.23 -55.1,-41.51 -60.86,-90.65 -4.35,-37.23 9.31,-88.68 54.1,-112.61 43.41,-23.15 92.84,-8.11 121.69,15.94 44.6,37.16 41.06,96.48 39.64,120.14 -2.51,42.06 -19.45,73.26 -29.69,89.13 l 18.42,6.86 c 3.32,1.19 3.54,5.76 0.39,7.31 l -17,8.47 -0.36,0.16 c 5.19,5.47 9.6,11.5 13.07,18.06 6.5,12.27 9.02,24.83 9.37,36.36 l 33.3,-36.52 13.14,-7.57 13.62,8.05 16.13,22.44 22.7,-7.79 15.52,5.15 8.57,19.68 34.07,19.51 z"
         id="path33" />
      <path
         class="cls-1"
         d="m 431.63,131.64 c -3.06,12.72 -8.98,23.64 -12.98,30.98 -12.75,23.47 -30.85,36.81 -40.83,43.05 l 7.02,9.53 c 1.25,1.71 -0.16,4.06 -2.22,3.8 l -8.02,-0.97 -0.77,-0.1 c -1.22,6.34 -1.51,12.56 -0.77,18.64 1,8.69 3.57,13.52 6.28,18.64 2.99,5.67 6.08,11.56 6.47,21.51 0.45,11.4 -3.09,18.64 -6.47,25.67 -3.06,6.28 -5.96,12.24 -6.41,21.93 -0.48,9.5 1.58,19.19 6.02,28.79 1.38,3.03 0.1,6.6 -2.9,7.99 -0.84,0.39 -1.67,0.55 -2.54,0.55 -2.25,0 -4.44,-1.26 -5.44,-3.45 -5.31,-11.4 -7.7,-22.99 -7.15,-34.42 0.61,-12.2 4.31,-19.87 7.6,-26.63 3.12,-6.44 5.6,-11.56 5.28,-19.96 -0.26,-7.21 -2.38,-11.24 -5.09,-16.36 -2.96,-5.6 -6.31,-11.95 -7.6,-22.83 -0.81,-7.08 -0.58,-14.27 0.77,-21.48 l -0.71,-0.1 -8.5,-1.03 c -2.09,-0.26 -2.87,-2.87 -1.26,-4.22 3,-2.48 5.96,-4.99 8.92,-7.47 -7.66,-8.92 -18.39,-23.51 -25.79,-43.83 -3.09,-8.5 -6.63,-18.13 -8.73,-28.24 h 105.81 z"
         id="path34" />
      <path
         class="cls-3"
         d="m 465.57,149.57 v 347.52 l -34.07,-19.51 -8.57,-19.68 -15.52,-5.15 -22.7,7.79 -16.13,-22.44 -13.62,-8.05 -13.14,7.57 -33.3,36.52 c -0.35,-11.53 -2.87,-24.09 -9.37,-36.36 -3.48,-6.57 -7.89,-12.59 -13.07,-18.06 l 0.36,-0.16 17,-8.47 c 3.16,-1.55 2.93,-6.12 -0.39,-7.31 l -18.42,-6.86 c 10.24,-15.88 27.18,-47.08 29.69,-89.13 1.42,-23.67 4.96,-82.98 -39.64,-120.14 -28.85,-24.05 -78.28,-39.09 -121.69,-15.94 -44.79,23.93 -58.45,75.38 -54.1,112.61 5.76,49.14 43.31,77.41 60.86,90.65 39.58,29.79 81.28,34.33 98.79,35.2 -1.83,6.15 -3.7,12.3 -5.57,18.45 -1.03,3.35 2.48,6.31 5.6,4.77 l 16.13,-8.02 c 5.67,5.35 10.31,11.4 13.81,18.03 5.54,10.47 7.73,21.22 8.02,31.17 l -22.7,-18.9 -26.31,-9.85 -22.12,-11.33 -43.15,6.44 -42.06,31.4 -61.99,36.84 c -1.77,-3.35 -2.8,-7.18 -2.8,-11.27 V 149.57 c 0,-9.92 8.02,-17.94 17.94,-17.94 H 325.8 c 2.09,10.11 5.64,19.74 8.73,28.24 7.41,20.32 18.13,34.91 25.79,43.83 -2.96,2.48 -5.92,4.99 -8.92,7.47 -1.61,1.35 -0.84,3.96 1.26,4.22 l 8.5,1.03 0.71,0.1 c -1.35,7.21 -1.58,14.39 -0.77,21.48 1.29,10.88 4.64,17.23 7.6,22.83 2.7,5.12 4.83,9.15 5.09,16.36 0.32,8.4 -2.16,13.52 -5.28,19.96 -3.28,6.76 -6.99,14.43 -7.6,26.63 -0.55,11.43 1.83,23.02 7.15,34.42 1,2.19 3.19,3.45 5.44,3.45 0.87,0 1.71,-0.16 2.54,-0.55 3,-1.39 4.28,-4.96 2.9,-7.99 -4.44,-9.6 -6.5,-19.29 -6.02,-28.79 0.45,-9.69 3.35,-15.65 6.41,-21.93 3.38,-7.02 6.92,-14.27 6.47,-25.67 -0.39,-9.95 -3.48,-15.84 -6.47,-21.51 -2.71,-5.12 -5.28,-9.95 -6.28,-18.64 -0.74,-6.09 -0.45,-12.3 0.77,-18.64 l 0.77,0.1 8.02,0.97 c 2.06,0.26 3.48,-2.09 2.22,-3.8 l -7.02,-9.53 c 9.98,-6.25 28.08,-19.58 40.83,-43.05 3.99,-7.34 9.92,-18.26 12.98,-30.98 h 16 c 9.89,0 17.94,8.02 17.94,17.94 z"
         id="path35" />
    </g>
    <g
       id="g41">
      <polygon
         class="cls-1"
         points="666.86,874.14 695.14,844.74 751.71,878.68 805.46,939.22 818.47,937.51 834.12,948.17 544.05,948.17 583.14,908.08 "
         id="polygon35" />
      <g
         id="g40">
        <path
           class="cls-4"
           d="m 869.48,557.92 h -342.4 c -0.42,0 -0.84,0 -1.22,0.06 H 870.7 c -0.39,-0.06 -0.81,-0.06 -1.22,-0.06 z m 23.86,22.7 v 344.84 c 0.06,-0.39 0.06,-0.81 0.06,-1.22 v -342.4 c 0,-0.42 0,-0.84 -0.06,-1.22 z"
           id="path36" />
        <path
           class="cls-4"
           d="M 875.34,557.98 H 521.19 c -9.95,0 -18.03,8.08 -18.03,18.03 v 354.15 c 0,9.95 8.08,18 18.03,18 h 22.86 l 39.09,-40.09 83.72,-33.94 28.27,-29.4 56.58,33.94 53.74,60.54 13.01,-1.71 15.65,10.66 h 41.22 c 9.95,0 18,-8.05 18,-18 V 576.01 c 0,-9.95 -8.05,-18.03 -18,-18.03 z m -232.85,245.8 c -13.72,-0.81 -27.27,-1.71 -40.73,-2.77 -1.19,-0.1 -2.25,0.68 -2.51,1.84 -3.73,15.33 -6.54,31.07 -8.28,47.01 -0.29,2.45 -3.57,2.96 -4.61,0.74 -7.47,-16.39 -13.14,-33.39 -16.91,-50.72 -0.22,-1.03 -1.09,-1.77 -2.12,-1.87 -13.91,-1.35 -27.66,-2.83 -41.28,-4.44 -2.09,-0.26 -2.86,-2.93 -1.22,-4.28 12.82,-10.34 25.6,-20.09 38.25,-29.21 0.64,-0.48 1,-1.22 0.97,-2.06 -0.71,-17.74 0.51,-35.61 3.73,-53.29 0.45,-2.42 3.8,-2.71 4.64,-0.39 4.35,11.85 10.05,23.41 16.91,34.55 0.71,1.16 2.25,1.48 3.38,0.74 11.01,-7.28 21.83,-14.07 32.49,-20.45 2.06,-1.22 4.44,1 3.38,3.16 -6.86,13.85 -12.98,28.27 -18.23,43.12 -0.29,0.84 -0.13,1.74 0.45,2.42 9.79,11.21 20.96,21.8 33.3,31.62 1.83,1.45 0.71,4.41 -1.61,4.28 z m 45.59,-151.77 c -10.43,-2.54 -21.03,-5.99 -31.62,-10.4 -0.51,-0.23 -1.09,-0.16 -1.55,0.19 -9.11,6.47 -18.22,12.33 -27.31,17.55 -1.25,0.71 -2.74,-0.45 -2.32,-1.84 2.48,-8.6 4.96,-17.26 7.41,-25.95 0.23,-0.71 -0.1,-1.45 -0.74,-1.83 -9.82,-5.44 -19.58,-11.72 -29.11,-18.81 -1.39,-1 -0.42,-3.16 1.22,-2.83 10.95,2 22.06,3.03 33.23,2.99 0.74,0 1.35,-0.48 1.55,-1.16 2.48,-8.82 4.96,-17.65 7.44,-26.53 0.39,-1.38 2.22,-1.61 2.93,-0.35 4.86,8.57 9.76,16.97 14.62,25.12 0.36,0.55 1,0.87 1.64,0.77 11.27,-1.74 22.48,-4.51 33.46,-8.28 1.61,-0.55 2.86,1.45 1.64,2.64 -8.08,7.95 -16.26,15.33 -24.54,22.19 -0.61,0.51 -0.74,1.38 -0.32,2.09 4.73,7.53 9.44,14.88 14.11,21.99 0.81,1.22 -0.32,2.77 -1.74,2.45 z m 181.17,134.25 c -19.9,2.25 -40.03,4.38 -60.44,6.38 -1.67,0.16 -3.06,1.42 -3.38,3.09 -4.67,23.41 -11.21,46.6 -19.55,69.36 -1.32,3.54 -6.41,3.28 -7.34,-0.35 -5.7,-21.83 -11.82,-43.34 -18.26,-64.53 -0.52,-1.74 -2.19,-2.87 -4.03,-2.7 -20.09,1.77 -40.41,3.38 -60.96,4.93 -3.8,0.29 -5.67,-4.57 -2.61,-6.92 18.26,-14.07 34.91,-28.79 49.78,-44.02 1,-1.03 1.35,-2.58 0.87,-3.93 -6.95,-20.54 -14.17,-40.7 -21.64,-60.54 -1.35,-3.51 2.64,-6.63 5.76,-4.54 14.1,9.6 28.79,19.48 44.08,29.79 1.71,1.13 4.03,0.74 5.25,-0.9 10.95,-14.78 20.38,-29.92 28.24,-45.31 1.74,-3.41 6.92,-2.45 7.28,1.38 2.12,23.47 2.38,47.01 0.81,70.42 -0.1,1.38 0.55,2.7 1.67,3.44 18.07,12.14 36.81,24.8 56.19,37.93 2.96,2 1.84,6.63 -1.74,7.02 z"
           id="path37" />
        <path
           class="cls-1"
           d="m 676.04,625.48 c -0.61,0.51 -0.74,1.38 -0.32,2.09 4.73,7.53 9.44,14.88 14.11,21.99 0.81,1.22 -0.32,2.77 -1.74,2.45 -10.43,-2.54 -21.03,-5.99 -31.62,-10.4 -0.51,-0.23 -1.09,-0.16 -1.55,0.19 -9.11,6.47 -18.22,12.33 -27.31,17.55 -1.25,0.71 -2.74,-0.45 -2.32,-1.84 2.48,-8.6 4.96,-17.26 7.41,-25.95 0.23,-0.71 -0.1,-1.45 -0.74,-1.83 -9.82,-5.44 -19.58,-11.72 -29.11,-18.81 -1.39,-1 -0.42,-3.16 1.22,-2.83 10.95,2 22.06,3.03 33.23,2.99 0.74,0 1.35,-0.48 1.55,-1.16 2.48,-8.82 4.96,-17.65 7.44,-26.53 0.39,-1.38 2.22,-1.61 2.93,-0.35 4.86,8.57 9.76,16.97 14.62,25.12 0.36,0.55 1,0.87 1.64,0.77 11.27,-1.74 22.48,-4.51 33.46,-8.28 1.61,-0.55 2.86,1.45 1.64,2.64 -8.08,7.95 -16.26,15.33 -24.54,22.19 z"
           id="path38" />
        <path
           class="cls-1"
           d="m 642.49,803.78 c -13.72,-0.81 -27.27,-1.71 -40.73,-2.77 -1.19,-0.1 -2.25,0.68 -2.51,1.84 -3.73,15.33 -6.54,31.07 -8.28,47.01 -0.29,2.45 -3.57,2.96 -4.61,0.74 -7.47,-16.39 -13.14,-33.39 -16.91,-50.72 -0.22,-1.03 -1.09,-1.77 -2.12,-1.87 -13.91,-1.35 -27.66,-2.83 -41.28,-4.44 -2.09,-0.26 -2.86,-2.93 -1.22,-4.28 12.82,-10.34 25.6,-20.09 38.25,-29.21 0.64,-0.48 1,-1.22 0.97,-2.06 -0.71,-17.74 0.51,-35.61 3.73,-53.29 0.45,-2.42 3.8,-2.71 4.64,-0.39 4.35,11.85 10.05,23.41 16.91,34.55 0.71,1.16 2.25,1.48 3.38,0.74 11.01,-7.28 21.83,-14.07 32.49,-20.45 2.06,-1.22 4.44,1 3.38,3.16 -6.86,13.85 -12.98,28.27 -18.23,43.12 -0.29,0.84 -0.13,1.74 0.45,2.42 9.79,11.21 20.96,21.8 33.3,31.62 1.83,1.45 0.71,4.41 -1.61,4.28 z"
           id="path39" />
        <path
           class="cls-1"
           d="m 869.25,786.26 c -19.9,2.25 -40.03,4.38 -60.44,6.38 -1.67,0.16 -3.06,1.42 -3.38,3.09 -4.67,23.41 -11.21,46.6 -19.55,69.36 -1.32,3.54 -6.41,3.28 -7.34,-0.35 -5.7,-21.83 -11.82,-43.34 -18.26,-64.53 -0.52,-1.74 -2.19,-2.87 -4.03,-2.7 -20.09,1.77 -40.41,3.38 -60.96,4.93 -3.8,0.29 -5.67,-4.57 -2.61,-6.92 18.26,-14.07 34.91,-28.79 49.78,-44.02 1,-1.03 1.35,-2.58 0.87,-3.93 -6.95,-20.54 -14.17,-40.7 -21.64,-60.54 -1.35,-3.51 2.64,-6.63 5.76,-4.54 14.1,9.6 28.79,19.48 44.08,29.79 1.71,1.13 4.03,0.74 5.25,-0.9 10.95,-14.78 20.38,-29.92 28.24,-45.31 1.74,-3.41 6.92,-2.45 7.28,1.38 2.12,23.47 2.38,47.01 0.81,70.42 -0.1,1.38 0.55,2.7 1.67,3.44 18.07,12.14 36.81,24.8 56.19,37.93 2.96,2 1.84,6.63 -1.74,7.02 z"
           id="path40" />
      </g>
    </g>
    <g
       id="g58">
      <path
         class="cls-2"
         d="m 165.32,679.03 c -0.93,-0.93 -2.22,-1.38 -3.83,-1.38 -1.61,0 -2.9,0.45 -3.83,1.38 -0.9,0.93 -1.35,2.42 -1.35,4.44 v 15.42 c 0,2.03 0.45,3.48 1.35,4.41 0.93,0.93 2.19,1.42 3.83,1.42 1.64,0 2.9,-0.48 3.83,-1.42 0.93,-0.93 1.39,-2.38 1.39,-4.41 v -15.42 c 0,-2.03 -0.45,-3.51 -1.39,-4.44 z m -1.65,14.29 c -0.55,0.58 -1.26,0.84 -2.13,0.84 -0.93,0 -1.67,-0.26 -2.19,-0.84 -0.52,-0.55 -0.81,-1.29 -0.81,-2.19 0,-0.84 0.29,-1.55 0.81,-2.06 0.52,-0.51 1.25,-0.77 2.19,-0.77 0.87,0 1.58,0.26 2.13,0.77 0.52,0.52 0.77,1.22 0.77,2.06 0,0.9 -0.26,1.64 -0.77,2.19 z"
         id="path41" />
      <path
         class="cls-2"
         d="m 182.77,658.26 h -42.54 c -4.41,0 -7.99,3.57 -7.99,7.99 v 48.53 c 0,4.41 3.57,7.99 7.99,7.99 h 42.54 c 4.41,0 7.99,-3.57 7.99,-7.99 v -48.53 c 0,-4.41 -3.58,-7.99 -7.99,-7.99 z m -6.96,40.63 c 0,3.32 -0.64,6.02 -1.9,8.02 -1.26,2.03 -3,3.48 -5.15,4.38 -2.19,0.9 -4.61,1.32 -7.28,1.32 -2.67,0 -5.09,-0.42 -7.25,-1.32 -2.16,-0.9 -3.86,-2.35 -5.12,-4.38 -1.26,-2 -1.9,-4.7 -1.9,-8.02 v -15.42 c 0,-3.35 0.64,-6.02 1.9,-8.05 1.26,-2 2.96,-3.48 5.12,-4.35 2.16,-0.9 4.57,-1.35 7.25,-1.35 2.68,0 5.09,0.45 7.28,1.35 2.16,0.87 3.9,2.35 5.15,4.35 1.26,2.03 1.9,4.7 1.9,8.05 z"
         id="path42" />
      <path
         class="cls-2"
         d="M 256.57,658.26 H 214 c -4.41,0 -7.99,3.57 -7.99,7.99 v 48.53 c 0,4.41 3.57,7.99 7.99,7.99 h 42.57 c 4.41,0 7.99,-3.57 7.99,-7.99 v -48.53 c 0,-4.41 -3.57,-7.99 -7.99,-7.99 z m -15.29,51.23 c 0,0.93 -0.48,1.61 -1.42,2.09 -0.97,0.45 -2,0.68 -3.12,0.68 -1.12,0 -2.16,-0.23 -3.09,-0.68 -0.97,-0.48 -1.45,-1.16 -1.45,-2.09 v -29.62 l -1.68,1.03 c -0.29,0.16 -0.55,0.29 -0.81,0.35 -0.26,0.06 -0.48,0.1 -0.68,0.1 -0.84,0 -1.51,-0.35 -2.06,-1.13 -0.52,-0.74 -0.77,-1.58 -0.77,-2.45 0,-0.64 0.13,-1.22 0.42,-1.77 0.26,-0.55 0.68,-1 1.26,-1.32 l 7.7,-4.67 c 0.22,-0.16 0.48,-0.26 0.77,-0.32 0.29,-0.06 0.61,-0.06 0.93,-0.06 0.9,0 1.8,0.23 2.71,0.74 0.87,0.51 1.29,1.19 1.29,2.09 z"
         id="path43" />
      <path
         class="cls-2"
         d="m 328.35,871.04 -0.48,0.48 c 0.03,-0.16 0.1,-0.35 0.16,-0.48 z"
         id="path44" />
      <path
         class="cls-2"
         d="m 312.89,679.03 c -0.93,-0.93 -2.22,-1.38 -3.86,-1.38 -1.64,0 -2.9,0.45 -3.8,1.38 -0.9,0.93 -1.38,2.42 -1.38,4.44 v 15.42 c 0,2.03 0.48,3.48 1.38,4.41 0.9,0.93 2.19,1.42 3.8,1.42 1.61,0 2.93,-0.48 3.86,-1.42 0.93,-0.93 1.39,-2.38 1.39,-4.41 v -15.42 c 0,-2.03 -0.45,-3.51 -1.39,-4.44 z m -1.67,14.29 c -0.52,0.58 -1.22,0.84 -2.13,0.84 -0.91,0 -1.64,-0.26 -2.19,-0.84 -0.51,-0.55 -0.77,-1.29 -0.77,-2.19 0,-0.84 0.26,-1.55 0.77,-2.06 0.55,-0.51 1.26,-0.77 2.19,-0.77 0.93,0 1.61,0.26 2.13,0.77 0.51,0.52 0.81,1.22 0.81,2.06 0,0.9 -0.29,1.64 -0.81,2.19 z"
         id="path45" />
      <path
         class="cls-2"
         d="m 330.35,658.26 h -42.57 c -4.38,0 -7.95,3.57 -7.95,7.99 v 48.53 c 0,4.41 3.57,7.99 7.95,7.99 h 42.57 c 4.41,0 7.99,-3.57 7.99,-7.99 v -48.53 c 0,-4.41 -3.58,-7.99 -7.99,-7.99 z m -6.99,40.63 c 0,3.32 -0.64,6.02 -1.9,8.02 -1.26,2.03 -2.96,3.48 -5.15,4.38 -2.16,0.9 -4.57,1.32 -7.28,1.32 -2.71,0 -5.09,-0.42 -7.25,-1.32 -2.16,-0.9 -3.86,-2.35 -5.12,-4.38 -1.25,-2 -1.9,-4.7 -1.9,-8.02 v -15.42 c 0,-3.35 0.64,-6.02 1.9,-8.05 1.26,-2 2.96,-3.48 5.12,-4.35 2.16,-0.9 4.57,-1.35 7.25,-1.35 2.68,0 5.12,0.45 7.28,1.35 2.19,0.87 3.9,2.35 5.15,4.35 1.26,2.03 1.9,4.7 1.9,8.05 z"
         id="path46" />
      <path
         class="cls-2"
         d="m 376.97,791.34 -61.79,65.69 v -61.7 c 0,-2.22 1.8,-3.99 3.99,-3.99 z"
         id="path47" />
      <path
         class="cls-2"
         d="m 390.11,805.32 v 61.7 c 0,2.22 -1.77,4.03 -3.99,4.03 h -57.77 l 14.33,-15.3 4.44,-4.7 z"
         id="path48" />
      <path
         class="cls-2"
         d="m 404.12,658.26 h -42.57 c -4.38,0 -7.95,3.57 -7.95,7.99 v 48.53 c 0,4.41 3.57,7.99 7.95,7.99 h 42.57 c 4.41,0 7.99,-3.57 7.99,-7.99 v -48.53 c 0,-4.41 -3.57,-7.99 -7.99,-7.99 z m -15.26,51.23 c 0,0.93 -0.48,1.61 -1.45,2.09 -0.93,0.45 -1.96,0.68 -3.09,0.68 -1.13,0 -2.19,-0.23 -3.12,-0.68 -0.97,-0.48 -1.42,-1.16 -1.42,-2.09 v -29.62 l -1.71,1.03 c -0.26,0.16 -0.52,0.29 -0.77,0.35 -0.26,0.06 -0.48,0.1 -0.68,0.1 -0.84,0 -1.55,-0.35 -2.06,-1.13 -0.52,-0.74 -0.77,-1.58 -0.77,-2.45 0,-0.64 0.13,-1.22 0.39,-1.77 0.26,-0.55 0.71,-1 1.29,-1.32 l 7.66,-4.67 c 0.26,-0.16 0.52,-0.26 0.81,-0.32 0.29,-0.06 0.58,-0.06 0.9,-0.06 0.93,0 1.83,0.23 2.7,0.74 0.87,0.51 1.32,1.19 1.32,2.09 z"
         id="path49" />
      <path
         class="cls-1"
         d="m 388.86,672.46 v 37.03 c 0,0.93 -0.48,1.61 -1.45,2.09 -0.93,0.45 -1.96,0.68 -3.09,0.68 -1.13,0 -2.19,-0.23 -3.12,-0.68 -0.97,-0.48 -1.42,-1.16 -1.42,-2.09 v -29.62 l -1.71,1.03 c -0.26,0.16 -0.52,0.29 -0.77,0.35 -0.26,0.06 -0.48,0.1 -0.68,0.1 -0.84,0 -1.55,-0.35 -2.06,-1.13 -0.52,-0.74 -0.77,-1.58 -0.77,-2.45 0,-0.64 0.13,-1.22 0.39,-1.77 0.26,-0.55 0.71,-1 1.29,-1.32 l 7.66,-4.67 c 0.26,-0.16 0.52,-0.26 0.81,-0.32 0.29,-0.06 0.58,-0.06 0.9,-0.06 0.93,0 1.83,0.23 2.7,0.74 0.87,0.51 1.32,1.19 1.32,2.09 z"
         id="path50" />
      <path
         class="cls-2"
         d="M 441.7,558.69 H 99.27 c -13.2,0 -23.92,10.72 -23.92,23.93 v 274.83 c 0,11.37 7.98,21.16 19.13,23.44 l 316.02,64.89 c 5.15,1.06 10.34,1.83 15.52,2.38 5.22,0.51 10.43,0.77 15.68,0.77 13.2,0 23.93,-10.69 23.93,-23.93 V 582.61 c 0,-13.2 -10.72,-23.93 -23.93,-23.93 z m -12.92,78.73 v 141.94 c 0,6.63 -5.35,11.98 -11.95,11.98 h -11.27 v 84.78 c 0,4.41 -3.58,7.95 -7.99,7.95 h -17.65 c -3,11.79 -13.65,20.51 -26.34,20.51 -12.69,0 -23.38,-8.73 -26.34,-20.51 h -19.51 c -4.41,0 -7.99,-3.54 -7.99,-7.95 v -84.78 h -88 v 40.12 c 0,4.41 -3.57,7.95 -7.99,7.95 h -2.74 c 0,15.04 -12.17,27.18 -27.18,27.18 -15.01,0 -27.15,-12.14 -27.15,-27.18 h -2.19 c -4.41,0 -7.95,-3.54 -7.95,-7.95 v -40.12 h -9.05 c -6.6,0 -11.95,-5.35 -11.95,-11.98 V 637.42 H 99.96 c 0,-15.55 12.59,-28.14 28.14,-28.14 h 284.72 c 7.79,0 14.81,3.12 19.93,8.24 5.09,5.09 8.21,12.11 8.21,19.9 h -12.2 z"
         id="path51" />
      <path
         class="cls-1"
         d="m 432.78,617.52 c -5.12,-5.12 -12.14,-8.24 -19.93,-8.24 H 128.12 c -15.55,0 -28.14,12.59 -28.14,28.14 h 15.58 v 141.94 c 0,6.63 5.35,11.98 11.95,11.98 h 9.05 v 40.12 c 0,4.41 3.54,7.95 7.95,7.95 h 2.19 c 0,15.04 12.14,27.18 27.15,27.18 15.01,0 27.18,-12.14 27.18,-27.18 h 2.74 c 4.41,0 7.99,-3.54 7.99,-7.95 v -40.12 h 88 v 84.78 c 0,4.41 3.58,7.95 7.99,7.95 h 19.51 c 2.96,11.79 13.62,20.51 26.34,20.51 12.72,0 23.35,-8.73 26.34,-20.51 h 17.65 c 4.41,0 7.99,-3.54 7.99,-7.95 v -84.78 h 11.27 c 6.6,0 11.95,-5.35 11.95,-11.98 V 637.42 H 441 c 0,-7.79 -3.12,-14.81 -8.21,-19.9 z m -242.02,97.25 c 0,4.41 -3.58,7.99 -7.99,7.99 h -42.54 c -4.41,0 -7.99,-3.57 -7.99,-7.99 v -48.53 c 0,-4.41 3.57,-7.99 7.99,-7.99 h 42.54 c 4.41,0 7.99,3.57 7.99,7.99 z m 73.8,0 c 0,4.41 -3.57,7.99 -7.99,7.99 H 214 c -4.41,0 -7.99,-3.57 -7.99,-7.99 v -48.53 c 0,-4.41 3.57,-7.99 7.99,-7.99 h 42.57 c 4.41,0 7.99,3.57 7.99,7.99 z m 23.22,7.99 c -4.38,0 -7.95,-3.57 -7.95,-7.99 v -48.53 c 0,-4.41 3.57,-7.99 7.95,-7.99 h 42.57 c 4.41,0 7.99,3.57 7.99,7.99 v 48.53 c 0,4.41 -3.58,7.99 -7.99,7.99 z m 27.4,134.27 v -61.7 c 0,-2.22 1.8,-3.99 3.99,-3.99 h 57.8 z m 74.93,9.99 c 0,2.22 -1.77,4.03 -3.99,4.03 h -57.77 l -0.48,0.48 c 0.03,-0.16 0.1,-0.35 0.16,-0.48 h 0.32 l 14.33,-15.3 4.44,-4.7 42.99,-45.73 z M 412.1,714.77 c 0,4.41 -3.57,7.99 -7.99,7.99 h -42.57 c -4.38,0 -7.95,-3.57 -7.95,-7.99 v -48.53 c 0,-4.41 3.57,-7.99 7.95,-7.99 h 42.57 c 4.41,0 7.99,3.57 7.99,7.99 z"
         id="path52" />
      <path
         class="cls-1"
         d="m 173.91,675.42 c -1.26,-2 -3,-3.48 -5.15,-4.35 -2.19,-0.9 -4.61,-1.35 -7.28,-1.35 -2.67,0 -5.09,0.45 -7.25,1.35 -2.16,0.87 -3.86,2.35 -5.12,4.35 -1.26,2.03 -1.9,4.7 -1.9,8.05 v 15.42 c 0,3.32 0.64,6.02 1.9,8.02 1.26,2.03 2.96,3.48 5.12,4.38 2.16,0.9 4.57,1.32 7.25,1.32 2.68,0 5.09,-0.42 7.28,-1.32 2.16,-0.9 3.9,-2.35 5.15,-4.38 1.26,-2 1.9,-4.7 1.9,-8.02 v -15.42 c 0,-3.35 -0.64,-6.02 -1.9,-8.05 z m -7.21,23.47 c 0,2.03 -0.45,3.48 -1.39,4.41 -0.93,0.93 -2.22,1.42 -3.83,1.42 -1.61,0 -2.9,-0.48 -3.83,-1.42 -0.9,-0.93 -1.35,-2.38 -1.35,-4.41 v -15.42 c 0,-2.03 0.45,-3.51 1.35,-4.44 0.93,-0.93 2.19,-1.38 3.83,-1.38 1.64,0 2.9,0.45 3.83,1.38 0.93,0.93 1.39,2.42 1.39,4.44 z"
         id="path53" />
      <path
         class="cls-1"
         d="m 164.45,691.13 c 0,0.9 -0.26,1.64 -0.77,2.19 -0.55,0.58 -1.26,0.84 -2.13,0.84 -0.93,0 -1.67,-0.26 -2.19,-0.84 -0.52,-0.55 -0.81,-1.29 -0.81,-2.19 0,-0.84 0.29,-1.55 0.81,-2.06 0.52,-0.51 1.25,-0.77 2.19,-0.77 0.87,0 1.58,0.26 2.13,0.77 0.52,0.52 0.77,1.22 0.77,2.06 z"
         id="path54" />
      <path
         class="cls-1"
         d="m 241.28,672.46 v 37.03 c 0,0.93 -0.48,1.61 -1.42,2.09 -0.97,0.45 -2,0.68 -3.12,0.68 -1.12,0 -2.16,-0.23 -3.09,-0.68 -0.97,-0.48 -1.45,-1.16 -1.45,-2.09 v -29.62 l -1.68,1.03 c -0.29,0.16 -0.55,0.29 -0.81,0.35 -0.26,0.06 -0.48,0.1 -0.68,0.1 -0.84,0 -1.51,-0.35 -2.06,-1.13 -0.52,-0.74 -0.77,-1.58 -0.77,-2.45 0,-0.64 0.13,-1.22 0.42,-1.77 0.26,-0.55 0.68,-1 1.26,-1.32 l 7.7,-4.67 c 0.22,-0.16 0.48,-0.26 0.77,-0.32 0.29,-0.06 0.61,-0.06 0.93,-0.06 0.9,0 1.8,0.23 2.71,0.74 0.87,0.51 1.29,1.19 1.29,2.09 z"
         id="path55" />
      <path
         class="cls-1"
         d="m 321.46,675.42 c -1.26,-2 -2.96,-3.48 -5.15,-4.35 -2.16,-0.9 -4.57,-1.35 -7.28,-1.35 -2.71,0 -5.09,0.45 -7.25,1.35 -2.16,0.87 -3.86,2.35 -5.12,4.35 -1.25,2.03 -1.9,4.7 -1.9,8.05 v 15.42 c 0,3.32 0.64,6.02 1.9,8.02 1.26,2.03 2.96,3.48 5.12,4.38 2.16,0.9 4.57,1.32 7.25,1.32 2.68,0 5.12,-0.42 7.28,-1.32 2.19,-0.9 3.9,-2.35 5.15,-4.38 1.26,-2 1.9,-4.7 1.9,-8.02 v -15.42 c 0,-3.35 -0.64,-6.02 -1.9,-8.05 z m -7.18,23.47 c 0,2.03 -0.45,3.48 -1.39,4.41 -0.93,0.93 -2.22,1.42 -3.86,1.42 -1.64,0 -2.9,-0.48 -3.8,-1.42 -0.9,-0.93 -1.38,-2.38 -1.38,-4.41 v -15.42 c 0,-2.03 0.48,-3.51 1.38,-4.44 0.9,-0.93 2.19,-1.38 3.8,-1.38 1.61,0 2.93,0.45 3.86,1.38 0.93,0.93 1.39,2.42 1.39,4.44 z"
         id="path56" />
      <path
         class="cls-1"
         d="m 312.03,691.13 c 0,0.9 -0.29,1.64 -0.81,2.19 -0.52,0.58 -1.22,0.84 -2.13,0.84 -0.91,0 -1.64,-0.26 -2.19,-0.84 -0.51,-0.55 -0.77,-1.29 -0.77,-2.19 0,-0.84 0.26,-1.55 0.77,-2.06 0.55,-0.51 1.26,-0.77 2.19,-0.77 0.93,0 1.61,0.26 2.13,0.77 0.51,0.52 0.81,1.22 0.81,2.06 z"
         id="path57" />
      <path
         class="cls-1"
         d="m 328.35,871.04 -0.48,0.48 c 0.03,-0.16 0.1,-0.35 0.16,-0.48 z"
         id="path58" />
    </g>
    <g
       id="g64">
      <g
         id="g60">
        <path
           class="cls-5"
           d="m 806.5,341.98 -20.03,-66.24 c -2.03,-6.7 -8.21,-11.3 -15.23,-11.3 H 627.72 c -7.02,0 -13.2,4.6 -15.23,11.3 l -20.03,66.24 c -3.09,10.24 4.54,20.51 15.23,20.51 h 183.58 c 10.69,0 18.32,-10.27 15.23,-20.51 z m -154.72,-8.34 c 1.16,0.68 1.71,1.93 1.71,3.7 0,2 -0.71,3.64 -2.12,4.99 -1.45,1.32 -2.9,2 -4.35,2 -0.84,0 -1.45,-0.16 -1.83,-0.48 L 620.94,328.1 c -1.09,-0.71 -1.83,-1.58 -2.29,-2.58 -0.45,-1.03 -0.68,-1.96 -0.68,-2.8 0,-0.84 0.22,-1.74 0.68,-2.77 0.45,-1 1.19,-1.87 2.29,-2.58 l 24.25,-15.75 c 0.39,-0.32 1,-0.48 1.83,-0.48 1.45,0 2.9,0.68 4.35,2 1.42,1.35 2.12,2.99 2.12,4.99 0,1.77 -0.55,2.99 -1.71,3.7 l -16.81,10.88 16.81,10.92 z m 69.13,-51.3 -33.62,68.88 c -0.29,0.68 -0.87,1.26 -1.71,1.71 -0.84,0.45 -1.71,0.68 -2.58,0.68 -1.58,0 -2.9,-0.55 -3.86,-1.64 -1,-1.09 -1.48,-2.22 -1.48,-3.44 0,-0.55 0.16,-1.16 0.45,-1.8 l 33.55,-68.88 c 0.77,-1.58 2.09,-2.38 3.99,-2.38 1.35,0 2.61,0.48 3.83,1.38 1.22,0.93 1.8,2.16 1.8,3.7 0,0.68 -0.13,1.29 -0.39,1.8 z m 59.41,43.19 c -0.42,1 -1.19,1.87 -2.29,2.58 l -24.25,15.75 c -0.39,0.32 -1,0.48 -1.8,0.48 -1.42,0 -2.87,-0.68 -4.32,-2 -1.45,-1.35 -2.19,-2.99 -2.19,-4.99 0,-1.77 0.58,-3.03 1.71,-3.7 l 16.81,-10.92 -16.81,-10.88 c -1.13,-0.71 -1.71,-1.93 -1.71,-3.7 0,-2 0.74,-3.64 2.19,-4.99 1.45,-1.32 2.9,-2 4.32,-2 0.81,0 1.42,0.16 1.8,0.48 l 24.25,15.75 c 1.09,0.71 1.87,1.58 2.29,2.58 0.45,1.03 0.68,1.96 0.68,2.77 0,0.81 -0.22,1.77 -0.68,2.8 z"
           id="path59" />
        <path
           class="cls-5"
           d="m 893.38,222.45 v 274.8 c 0,13.2 -10.72,23.93 -23.92,23.93 H 527.07 c -13.2,0 -23.93,-10.72 -23.93,-23.93 V 154.86 c 0,-13.23 10.72,-23.93 23.93,-23.93 4.35,0 8.73,0.19 13.07,0.64 4.35,0.45 8.66,1.1 12.94,1.96 l 158.88,32.39 -13.4,13.4 -10.11,10.11 c -2.22,2.22 -3.48,5.25 -3.48,8.44 v 24.54 h -37.55 c -4.64,0 -8.82,1.87 -11.85,4.89 -3.03,3.03 -4.93,7.25 -4.93,11.85 h -22.51 c -7.02,0 -13.2,4.6 -15.26,11.33 L 561.8,353.3 c -1.35,4.51 -1.35,9.31 0,13.81 l 31.07,102.82 c 2.06,6.73 8.24,11.33 15.26,11.33 H 790.8 c 7.02,0 13.24,-4.61 15.26,-11.33 l 31.07,-102.82 c 1.39,-4.51 1.39,-9.31 0,-13.81 L 806.06,250.48 c -2.03,-6.73 -8.24,-11.33 -15.26,-11.33 h -22.51 c 0,-9.24 -7.5,-16.75 -16.74,-16.75 h -42.73 v -14.65 c 0,-3.16 1.26,-6.22 3.51,-8.44 l 14.27,-14.27 13.39,-13.43 0.45,0.1 133.79,27.27 c 11.14,2.25 19.13,12.08 19.13,23.44 z"
           id="path60" />
      </g>
      <path
         class="cls-1"
         d="M 837.16,353.31 806.09,250.49 c -2.03,-6.73 -8.24,-11.33 -15.26,-11.33 h -22.51 c 0,-9.24 -7.5,-16.75 -16.74,-16.75 h -42.73 v -14.65 c 0,-3.16 1.26,-6.22 3.51,-8.44 l 14.27,-14.27 13.39,-13.43 -28.05,-5.7 -13.4,13.4 -10.11,10.11 c -2.22,2.22 -3.48,5.25 -3.48,8.44 v 24.54 h -37.55 c -4.64,0 -8.82,1.87 -11.85,4.89 -3.03,3.03 -4.93,7.25 -4.93,11.85 h -22.51 c -7.02,0 -13.2,4.6 -15.26,11.33 L 561.81,353.3 c -1.35,4.51 -1.35,9.31 0,13.81 l 31.07,102.82 c 2.06,6.73 8.24,11.33 15.26,11.33 h 182.67 c 7.02,0 13.24,-4.61 15.26,-11.33 l 31.07,-102.82 c 1.39,-4.51 1.39,-9.31 0,-13.81 z m -45.89,9.18 H 607.69 c -10.69,0 -18.32,-10.27 -15.23,-20.51 l 20.03,-66.24 c 2.03,-6.7 8.21,-11.3 15.23,-11.3 h 143.52 c 7.02,0 13.2,4.6 15.23,11.3 l 20.03,66.24 c 3.09,10.24 -4.54,20.51 -15.23,20.51 z"
         id="path61" />
      <path
         class="cls-1"
         d="m 653.48,337.34 c 0,2 -0.71,3.64 -2.12,4.99 -1.45,1.32 -2.9,2 -4.35,2 -0.84,0 -1.45,-0.16 -1.83,-0.48 L 620.93,328.1 c -1.09,-0.71 -1.83,-1.58 -2.29,-2.58 -0.45,-1.03 -0.68,-1.96 -0.68,-2.8 0,-0.84 0.22,-1.74 0.68,-2.77 0.45,-1 1.19,-1.87 2.29,-2.58 l 24.25,-15.75 c 0.39,-0.32 1,-0.48 1.83,-0.48 1.45,0 2.9,0.68 4.35,2 1.42,1.35 2.12,2.99 2.12,4.99 0,1.77 -0.55,2.99 -1.71,3.7 l -16.81,10.88 16.81,10.92 c 1.16,0.68 1.71,1.93 1.71,3.7 z"
         id="path62" />
      <path
         class="cls-1"
         d="m 781,322.72 c 0,0.84 -0.22,1.77 -0.68,2.8 -0.42,1 -1.19,1.87 -2.29,2.58 l -24.25,15.75 c -0.39,0.32 -1,0.48 -1.8,0.48 -1.42,0 -2.87,-0.68 -4.32,-2 -1.45,-1.35 -2.19,-2.99 -2.19,-4.99 0,-1.77 0.58,-3.03 1.71,-3.7 l 16.81,-10.92 -16.81,-10.88 c -1.13,-0.71 -1.71,-1.93 -1.71,-3.7 0,-2 0.74,-3.64 2.19,-4.99 1.45,-1.32 2.9,-2 4.32,-2 0.81,0 1.42,0.16 1.8,0.48 l 24.25,15.75 c 1.09,0.71 1.87,1.58 2.29,2.58 0.45,1.03 0.68,1.96 0.68,2.77 z"
         id="path63" />
      <path
         class="cls-1"
         d="m 721.3,280.54 c 0,0.68 -0.13,1.29 -0.39,1.8 l -33.62,68.88 c -0.29,0.68 -0.87,1.26 -1.71,1.71 -0.84,0.45 -1.71,0.68 -2.58,0.68 -1.58,0 -2.9,-0.55 -3.86,-1.64 -1,-1.09 -1.48,-2.22 -1.48,-3.44 0,-0.55 0.16,-1.16 0.45,-1.8 l 33.55,-68.88 c 0.77,-1.58 2.09,-2.38 3.99,-2.38 1.35,0 2.61,0.48 3.83,1.38 1.22,0.93 1.8,2.16 1.8,3.7 z"
         id="path64" />
    </g>
  </g>
</svg>
