<?xml version="1.0" encoding="UTF-8"?>
<svg id="Capa_1" data-name="Capa 1" xmlns="http://www.w3.org/2000/svg" viewBox="0 0 1920 1080">
  <defs>
    <style>
      .cls-1 {
        fill: #fff;
      }
    </style>
  </defs>
  <path class="cls-1" d="M985.01,297.1c7.85,7.29,17.2,10.94,28.05,10.94s20.56-3.65,28.05-10.94c7.48-7.29,11.22-15.43,11.22-24.4,0-9.72-3.74-18.04-11.22-24.96-7.49-6.92-16.83-10.38-28.05-10.38s-20.2,3.46-28.05,10.38c-7.85,6.93-11.78,15.24-11.78,24.96,0,8.98,3.93,17.11,11.78,24.4Z"/>
  <path class="cls-1" d="M1049.53,585.7v-220.48c0-6.73-3.56-12.15-10.66-16.27-7.11-4.11-15.71-6.17-25.81-6.17s-19.07,2.06-25.81,6.17c-6.73,4.12-10.1,9.54-10.1,16.27v220.48c0,5.99,3.37,11.41,10.1,16.27,6.73,4.86,15.33,7.29,25.81,7.29s18.7-2.43,25.81-7.29c7.1-4.86,10.66-10.28,10.66-16.27Z"/>
  <path class="cls-1" d="M1148.26,599.17c17.95,10.1,41.14,15.15,69.57,15.15,17.58,0,33.38-2.24,47.41-6.73,14.03-4.49,25.05-10.28,33.1-17.39,8.04-7.1,12.06-14.39,12.06-21.88,0-4.49-1.22-9.44-3.65-14.87-2.44-5.42-5.99-10-10.66-13.74-4.68-3.73-10.38-5.61-17.11-5.61-4.49,0-8.89,1.32-13.18,3.93-4.3,2.62-9.63,5.43-15.99,8.41-6.36,3-15.34,4.49-26.93,4.49-19.45,0-33.48-4.58-42.08-13.75-8.61-9.16-12.9-21.78-12.9-37.87v-44.88c0-16.08,4.3-28.7,12.9-37.87,8.6-9.16,22.44-13.74,41.51-13.74,11.22,0,20.2,1.32,26.93,3.93,6.73,2.62,12.24,5.24,16.55,7.85,4.3,2.62,8.5,3.93,12.62,3.93,5.61,0,10.56-2.05,14.87-6.17,4.3-4.11,7.66-8.88,10.1-14.31,2.43-5.42,3.65-10.38,3.65-14.87,0-7.48-3.93-14.59-11.78-21.32-7.85-6.73-18.51-12.15-31.98-16.27-13.46-4.11-28.99-6.17-46.56-6.17-27.68,0-50.59,5.05-68.72,15.15-18.15,10.1-31.42,23.84-39.83,41.23-8.42,17.39-12.62,36.94-12.62,58.63v44.88c0,21.7,4.3,41.23,12.9,58.63,8.6,17.39,21.88,31.14,39.83,41.23Z"/>
  <path class="cls-1" d="M1543.5,354.84c-15.15-10.28-32.26-15.43-51.33-15.43-17.95,0-33.48,4.4-46.56,13.18-13.1,8.79-22.82,18.61-29.17,29.45v-16.83c0-6.73-3.08-12.15-9.26-16.27-6.17-4.11-14.12-6.17-23.84-6.17s-17.95,2.06-24.68,6.17c-6.73,4.12-10.1,9.54-10.1,16.27v307.23c0,5.61,3.37,10.84,10.1,15.71,6.73,4.86,15.15,7.29,25.25,7.29s19.26-2.44,26.37-7.29c7.1-4.86,10.66-10.1,10.66-15.71v-102.46c5.61,11.6,15.15,21.88,28.61,30.86,13.46,8.98,28.42,13.46,44.88,13.46,17.95,0,34.31-5.42,49.09-16.27,14.77-10.84,26.65-25.05,35.62-42.64,8.98-17.58,13.46-36.27,13.46-56.1v-46c0-20.94-4.4-40.02-13.18-57.22-8.79-17.2-20.76-30.94-35.9-41.23ZM1520.21,499.3c0,8.61-2.34,16.83-7.01,24.68-4.68,7.85-10.66,14.31-17.95,19.35-7.29,5.05-15.43,7.57-24.4,7.57-9.73,0-18.33-2.71-25.81-8.14-7.49-5.42-13.38-11.4-17.67-17.95-4.3-6.54-6.45-11.68-6.45-15.43v-56.1c0-10.47,2.43-19.44,7.29-26.93,4.86-7.48,10.94-13.27,18.23-17.39,7.29-4.11,15.05-6.17,23.28-6.17,9.34,0,17.86,2.52,25.53,7.57,7.66,5.05,13.75,11.32,18.23,18.79,4.49,7.49,6.73,15.52,6.73,24.12v46Z"/>
  <path class="cls-1" d="M1682.35,599.17c17.95,10.1,41.14,15.15,69.57,15.15,17.57,0,33.38-2.24,47.41-6.73,14.02-4.49,25.05-10.28,33.1-17.39,8.04-7.1,12.06-14.39,12.06-21.88,0-4.49-1.22-9.44-3.65-14.87-2.44-5.42-5.99-10-10.66-13.74-4.68-3.73-10.38-5.61-17.11-5.61-4.49,0-8.89,1.32-13.18,3.93-4.3,2.62-9.63,5.43-15.99,8.41-6.36,3-15.34,4.49-26.93,4.49-19.45,0-33.48-4.58-42.08-13.75-8.61-9.16-12.9-21.78-12.9-37.87v-44.88c0-16.08,4.3-28.7,12.9-37.87,8.6-9.16,22.44-13.74,41.51-13.74,11.22,0,20.2,1.32,26.93,3.93,6.73,2.62,12.25,5.24,16.55,7.85,4.3,2.62,8.5,3.93,12.62,3.93,5.61,0,10.56-2.05,14.87-6.17,4.3-4.11,7.66-8.88,10.1-14.31,2.43-5.42,3.65-10.38,3.65-14.87,0-7.48-3.93-14.59-11.78-21.32-7.85-6.73-18.51-12.15-31.98-16.27-13.46-4.11-28.99-6.17-46.56-6.17-27.68,0-50.59,5.05-68.73,15.15-18.15,10.1-31.42,23.84-39.83,41.23-8.41,17.39-12.62,36.94-12.62,58.63v44.88c0,21.7,4.3,41.23,12.9,58.63,8.6,17.39,21.88,31.14,39.83,41.23Z"/>
  <polygon class="cls-1" points="982.4 724.19 982.4 790.89 1021.95 790.89 1021.95 783.55 990.5 783.55 990.5 724.19 982.4 724.19"/>
  <path class="cls-1" d="M1038.81,743.39c-2.29.86-4.29,2.1-6,3.72-1.72,1.62-3.18,3.54-4.38,5.77l6.86,2.67c1.21-2.29,2.75-3.95,4.62-5,1.87-1.05,4.11-1.57,6.72-1.57,2.86,0,5.18.64,6.96,1.91,1.78,1.27,3.08,3.13,3.91,5.57.57,1.7.94,3.72,1.12,6.05h-13.32c-5.78,0-10.28,1.29-13.48,3.86-3.21,2.57-4.81,6.27-4.81,11.1,0,4.57,1.57,8.15,4.72,10.72,3.14,2.57,7.51,3.86,13.1,3.86s9.85-1.92,12.77-5.77c.44-.58.84-1.2,1.21-1.84l.32,6.46h7.05l.1-25.82c.06-5.02-.64-9.23-2.1-12.63-1.46-3.4-3.64-5.97-6.53-7.72-2.89-1.75-6.56-2.62-11.01-2.62-2.92,0-5.53.43-7.81,1.29ZM1057.06,778.55c-1.11,2.19-2.68,3.88-4.72,5.05-2.03,1.18-4.42,1.76-7.15,1.76-3.3,0-5.88-.72-7.72-2.14-1.84-1.43-2.76-3.38-2.76-5.86,0-2.73.94-4.83,2.81-6.29,1.87-1.46,5.03-2.19,9.48-2.19h11.72v1.91c0,2.99-.56,5.57-1.67,7.77Z"/>
  <path class="cls-1" d="M1081.7,778.22c0,4.38,1.27,7.78,3.81,10.2,2.54,2.42,6.13,3.62,10.77,3.62,1.4,0,2.76-.21,4.1-.62,1.33-.41,2.83-1.16,4.48-2.24l-2.95-6.19c-1.21.89-2.18,1.45-2.91,1.67-.73.22-1.48.33-2.24.33-2.35,0-4.18-.65-5.48-1.95-1.3-1.3-1.95-3.16-1.95-5.57v-27.44h14.29v-6.77h-14.29v-14.87h-7.62v14.87h-8.29v6.77h8.29v28.21Z"/>
  <rect class="cls-1" x="1114.86" y="743.24" width="7.62" height="47.65"/>
  <path class="cls-1" d="M1122.15,724.04c-.92-.92-2.05-1.38-3.38-1.38s-2.38.46-3.34,1.38c-.95.92-1.43,2.05-1.43,3.38s.48,2.38,1.43,3.34c.95.95,2.06,1.43,3.34,1.43s2.46-.48,3.38-1.43c.92-.95,1.38-2.06,1.38-3.34,0-1.33-.46-2.46-1.38-3.38Z"/>
  <path class="cls-1" d="M1168.84,744.34c-2.76-1.49-6.02-2.24-9.77-2.24-3.94,0-7.31.95-10.1,2.86-1.99,1.36-3.64,3.16-4.95,5.39l-.39-7.1h-7.15v47.65h7.62v-24.68c0-5.4,1.16-9.58,3.48-12.53,2.32-2.95,5.57-4.43,9.77-4.43,2.41,0,4.57.46,6.48,1.38,1.91.92,3.4,2.62,4.48,5.1,1.08,2.48,1.62,6.07,1.62,10.77v24.39h7.62v-26.68c.06-5.27-.68-9.53-2.24-12.77-1.56-3.24-3.72-5.61-6.48-7.1Z"/>
  <path class="cls-1" d="M1242.74,724.19h-8.19l-27.16,66.7h8.58l7.61-18.96h30.42l7.61,18.96h8.48l-27.16-66.7h-.19ZM1226.48,764.69l12.3-30.65,12.3,30.65h-24.61Z"/>
  <path class="cls-1" d="M1298.86,742.1c-3.05,0-5.72.67-8,2-2.29,1.33-4.16,3.27-5.62,5.81l-.38-6.67h-7.15v47.65h7.62v-24.68c0-5.4,1.05-9.58,3.14-12.53,2.1-2.95,4.99-4.43,8.67-4.43,2.16,0,4.08.46,5.77,1.38,1.68.92,3.02,2.62,4,5.1.98,2.48,1.48,6.07,1.48,10.77v24.39h7.62v-24.68c0-5.4,1.05-9.58,3.14-12.53,2.1-2.95,5.02-4.43,8.77-4.43,2.16,0,4.06.46,5.72,1.38,1.65.92,2.97,2.62,3.95,5.1.98,2.48,1.48,6.07,1.48,10.77v24.39h7.62v-27.25c.06-7.24-1.45-12.64-4.53-16.2-3.08-3.56-7.29-5.34-12.63-5.34-3.56,0-6.62.92-9.2,2.76-2.57,1.84-4.53,4.51-5.86,8-1.21-3.62-3.16-6.32-5.86-8.1-2.7-1.78-5.96-2.67-9.77-2.67Z"/>
  <path class="cls-1" d="M1391.01,745.39c-3.24-2.19-7.08-3.29-11.53-3.29s-8.62,1.06-12.15,3.19c-3.53,2.13-6.29,5.07-8.29,8.81-2,3.75-3,8.07-3,12.96s1,9.21,3,12.96c2,3.75,4.78,6.69,8.34,8.81,3.56,2.13,7.65,3.19,12.29,3.19,3.3,0,6.3-.51,9.01-1.52,2.7-1.02,5.05-2.45,7.05-4.29,2-1.84,3.6-4,4.81-6.48l-6.57-3.34c-1.27,2.61-3.07,4.7-5.38,6.29-2.32,1.59-5.16,2.38-8.53,2.38-3.18,0-6-.71-8.48-2.14-2.48-1.43-4.4-3.51-5.77-6.24-1.17-2.34-1.83-5.07-2-8.2h37.4c0-5.34-.89-9.97-2.67-13.91-1.78-3.94-4.29-7-7.53-9.2ZM1372,750.68c2.32-1.21,4.78-1.81,7.38-1.81s5.02.6,7.05,1.81c2.03,1.21,3.65,2.92,4.86,5.15.99,1.82,1.56,3.92,1.74,6.29h-28.74c.2-2.4.89-4.52,2.07-6.34,1.43-2.19,3.3-3.89,5.62-5.1Z"/>
  <path class="cls-1" d="M1410.83,743.24v47.65h7.62v-26.21c0-3.62.82-6.48,2.48-8.58,1.65-2.1,3.76-3.6,6.34-4.53,2.57-.92,5.26-1.38,8.05-1.38v-7.15c-3.43,0-6.69.78-9.77,2.33-2.84,1.44-5.2,3.58-7.1,6.42v-8.57h-7.62Z"/>
  <path class="cls-1" d="M1450.81,724.04c-.92-.92-2.05-1.38-3.38-1.38s-2.38.46-3.34,1.38c-.95.92-1.43,2.05-1.43,3.38s.48,2.38,1.43,3.34c.95.95,2.06,1.43,3.34,1.43s2.46-.48,3.38-1.43c.92-.95,1.38-2.06,1.38-3.34,0-1.33-.46-2.46-1.38-3.38Z"/>
  <rect class="cls-1" x="1443.52" y="743.24" width="7.62" height="47.65"/>
  <path class="cls-1" d="M1477.77,751.44c2.38-1.53,5.13-2.29,8.24-2.29s5.88.72,8.29,2.14c2.41,1.43,4.26,3.42,5.53,5.96l6.96-3.14c-1.91-3.81-4.67-6.77-8.29-8.86-3.62-2.1-7.72-3.14-12.29-3.14s-8.77,1.06-12.39,3.19c-3.62,2.13-6.43,5.07-8.43,8.81-2,3.75-3,8.07-3,12.96s1.02,9.21,3.05,12.96c2.03,3.75,4.86,6.69,8.48,8.81,3.62,2.13,7.78,3.19,12.48,3.19s8.77-1.14,12.39-3.43c3.62-2.29,6.38-5.46,8.29-9.53l-6.96-3.15c-1.27,2.86-3.13,5.08-5.57,6.67-2.45,1.59-5.23,2.38-8.34,2.38s-5.89-.76-8.34-2.29c-2.45-1.52-4.35-3.64-5.72-6.34-1.37-2.7-2.05-5.8-2.05-9.29s.68-6.59,2.05-9.29c1.37-2.7,3.24-4.81,5.62-6.34Z"/>
  <path class="cls-1" d="M1518.75,766.35c-3.21,2.57-4.81,6.27-4.81,11.1,0,4.57,1.57,8.15,4.72,10.72,3.14,2.57,7.51,3.86,13.1,3.86s9.85-1.92,12.77-5.77c.44-.58.84-1.2,1.21-1.84l.32,6.46h7.05l.1-25.82c.06-5.02-.64-9.23-2.1-12.63-1.46-3.4-3.64-5.97-6.53-7.72-2.89-1.75-6.56-2.62-11.01-2.62-2.92,0-5.53.43-7.81,1.29-2.29.86-4.29,2.1-6,3.72-1.72,1.62-3.18,3.54-4.38,5.77l6.86,2.67c1.21-2.29,2.75-3.95,4.62-5,1.87-1.05,4.11-1.57,6.72-1.57,2.86,0,5.18.64,6.96,1.91,1.78,1.27,3.08,3.13,3.91,5.57.57,1.7.94,3.72,1.12,6.05h-13.32c-5.78,0-10.28,1.29-13.48,3.86ZM1545.67,768.88v1.91c0,2.99-.56,5.57-1.67,7.77-1.11,2.19-2.68,3.88-4.72,5.05-2.03,1.18-4.42,1.76-7.15,1.76-3.3,0-5.88-.72-7.72-2.14-1.84-1.43-2.76-3.38-2.76-5.86,0-2.73.94-4.83,2.81-6.29,1.87-1.46,5.03-2.19,9.48-2.19h11.72Z"/>
  <path class="cls-1" d="M993.65,901.96c4.89,2.95,10.51,4.43,16.87,4.43,4,0,7.86-.76,11.58-2.29,3.72-1.53,7.02-3.65,9.91-6.38,2.89-2.73,5.16-5.84,6.81-9.34l-7.05-3.53c-1.27,2.8-3,5.27-5.19,7.43-2.19,2.16-4.65,3.86-7.39,5.1-2.73,1.24-5.62,1.86-8.67,1.86-4.7,0-8.91-1.16-12.63-3.48-3.72-2.32-6.62-5.54-8.72-9.67-2.1-4.13-3.14-8.86-3.14-14.2s1.03-10.04,3.1-14.1c2.06-4.06,4.94-7.26,8.62-9.58,3.68-2.32,7.85-3.48,12.48-3.48,2.99,0,5.84.56,8.58,1.67,2.73,1.11,5.21,2.65,7.43,4.62,2.22,1.97,3.97,4.29,5.24,6.96l6.96-3.53c-1.59-3.37-3.84-6.34-6.77-8.91-2.92-2.57-6.23-4.57-9.91-6-3.69-1.43-7.53-2.14-11.53-2.14-6.29,0-11.86,1.48-16.72,4.43-4.86,2.95-8.67,7.02-11.44,12.2-2.76,5.18-4.15,11.13-4.15,17.87s1.4,12.69,4.19,17.87c2.79,5.18,6.64,9.24,11.53,12.2Z"/>
  <path class="cls-1" d="M1056.54,864.66v-26.13h-7.62v66.7h7.62v-24.68c0-5.4,1.16-9.58,3.48-12.53,2.32-2.95,5.57-4.43,9.77-4.43,2.41,0,4.57.46,6.48,1.38,1.91.92,3.41,2.62,4.53,5.1,1.11,2.48,1.67,6.07,1.67,10.77v24.39h7.62v-26.68c.06-5.27-.68-9.53-2.24-12.77-1.56-3.24-3.73-5.61-6.53-7.1-2.8-1.49-6.04-2.24-9.72-2.24-3.94,0-7.31.95-10.1,2.86-1.98,1.35-3.63,3.14-4.96,5.35Z"/>
  <path class="cls-1" d="M1104.14,880.7c-3.21,2.57-4.81,6.27-4.81,11.1,0,4.57,1.57,8.15,4.72,10.72,3.14,2.57,7.51,3.86,13.1,3.86s9.85-1.92,12.77-5.77c.44-.58.84-1.2,1.21-1.84l.32,6.46h7.05l.1-25.82c.06-5.02-.64-9.23-2.1-12.63-1.46-3.4-3.64-5.97-6.53-7.72-2.89-1.75-6.56-2.62-11.01-2.62-2.92,0-5.53.43-7.81,1.29-2.29.86-4.29,2.1-6,3.72-1.72,1.62-3.18,3.54-4.38,5.77l6.86,2.67c1.21-2.29,2.75-3.95,4.62-5,1.87-1.05,4.11-1.57,6.72-1.57,2.86,0,5.18.64,6.96,1.91,1.78,1.27,3.08,3.13,3.91,5.57.57,1.7.94,3.72,1.12,6.05h-13.32c-5.78,0-10.28,1.29-13.48,3.86ZM1131.06,883.23v1.91c0,2.99-.56,5.57-1.67,7.77-1.11,2.19-2.68,3.88-4.72,5.05-2.03,1.18-4.42,1.76-7.15,1.76-3.3,0-5.88-.72-7.72-2.14-1.84-1.43-2.76-3.38-2.76-5.86,0-2.73.94-4.83,2.81-6.29,1.87-1.46,5.03-2.19,9.48-2.19h11.72Z"/>
  <path class="cls-1" d="M1193.33,859.22c-2.57,1.84-4.53,4.51-5.86,8-1.21-3.62-3.16-6.32-5.86-8.1-2.7-1.78-5.96-2.67-9.77-2.67-3.05,0-5.72.67-8,2-2.29,1.33-4.16,3.27-5.62,5.81l-.38-6.67h-7.15v47.65h7.62v-24.68c0-5.4,1.05-9.58,3.14-12.53,2.1-2.95,4.99-4.43,8.67-4.43,2.16,0,4.08.46,5.77,1.38,1.68.92,3.02,2.62,4,5.1.98,2.48,1.48,6.07,1.48,10.77v24.39h7.62v-24.68c0-5.4,1.05-9.58,3.14-12.53,2.1-2.95,5.02-4.43,8.77-4.43,2.16,0,4.06.46,5.72,1.38,1.65.92,2.97,2.62,3.95,5.1.98,2.48,1.48,6.07,1.48,10.77v24.39h7.62v-27.25c.06-7.24-1.45-12.64-4.53-16.2-3.08-3.56-7.29-5.34-12.63-5.34-3.56,0-6.62.92-9.2,2.76Z"/>
  <path class="cls-1" d="M1245.46,859.6c-2.25,1.56-4.12,3.59-5.61,6.07l-.44-8.07h-7.15v66.7h7.62v-27.1c1.48,2.47,3.34,4.49,5.57,6.04,3.02,2.1,6.53,3.14,10.53,3.14,4.26,0,8-1.05,11.24-3.14,3.24-2.1,5.77-5.03,7.58-8.81,1.81-3.78,2.72-8.11,2.72-13.01s-.91-9.31-2.72-13.05c-1.81-3.75-4.34-6.67-7.58-8.77-3.24-2.1-6.99-3.14-11.24-3.14-4,0-7.51,1.05-10.53,3.14ZM1267.85,872.08c1.3,2.73,1.95,5.85,1.95,9.34s-.68,6.69-2.05,9.39c-1.37,2.7-3.21,4.81-5.53,6.34-2.32,1.52-4.97,2.29-7.96,2.29-2.8,0-5.27-.76-7.43-2.29-2.16-1.53-3.86-3.65-5.1-6.38-1.24-2.73-1.86-5.84-1.86-9.34s.62-6.69,1.86-9.39c1.24-2.7,2.95-4.81,5.15-6.34,2.19-1.52,4.68-2.29,7.48-2.29,3.05,0,5.73.76,8.05,2.29,2.32,1.53,4.13,3.65,5.43,6.38Z"/>
  <rect class="cls-1" x="1288.57" y="857.6" width="7.62" height="47.65"/>
  <path class="cls-1" d="M1295.86,838.39c-.92-.92-2.05-1.38-3.38-1.38s-2.38.46-3.34,1.38c-.95.92-1.43,2.05-1.43,3.38s.48,2.38,1.43,3.34c.95.95,2.06,1.43,3.34,1.43s2.46-.48,3.38-1.43c.92-.95,1.38-2.06,1.38-3.34,0-1.33-.46-2.46-1.38-3.38Z"/>
  <path class="cls-1" d="M1318.93,903.19c3.59,2.13,7.73,3.19,12.44,3.19s8.64-1.06,12.2-3.19c3.56-2.13,6.34-5.07,8.34-8.81,2-3.75,3-8.07,3-12.96s-1-9.21-3-12.96c-2-3.75-4.8-6.69-8.39-8.81-3.59-2.13-7.7-3.19-12.34-3.19s-8.75,1.06-12.34,3.19c-3.59,2.13-6.38,5.07-8.39,8.81-2,3.75-3,8.07-3,12.96s1.02,9.21,3.05,12.96c2.03,3.75,4.84,6.69,8.43,8.81ZM1317.21,872.08c1.37-2.67,3.24-4.76,5.62-6.29,2.38-1.53,5.13-2.29,8.24-2.29s5.97.76,8.39,2.29c2.41,1.52,4.3,3.64,5.67,6.34,1.37,2.7,2.05,5.8,2.05,9.29s-.68,6.59-2.05,9.29c-1.37,2.7-3.24,4.81-5.62,6.34-2.38,1.53-5.13,2.29-8.24,2.29s-5.89-.76-8.34-2.29c-2.45-1.52-4.35-3.64-5.72-6.34-1.37-2.7-2.05-5.8-2.05-9.29s.68-6.67,2.05-9.34Z"/>
  <path class="cls-1" d="M1406.55,905.24v-26.68c.06-5.27-.68-9.53-2.24-12.77-1.56-3.24-3.72-5.61-6.48-7.1-2.76-1.49-6.02-2.24-9.77-2.24-3.94,0-7.31.95-10.1,2.86-1.99,1.36-3.64,3.16-4.95,5.39l-.39-7.1h-7.15v47.65h7.62v-24.68c0-5.4,1.16-9.58,3.48-12.53,2.32-2.95,5.57-4.43,9.77-4.43,2.41,0,4.57.46,6.48,1.38,1.91.92,3.4,2.62,4.48,5.1,1.08,2.48,1.62,6.07,1.62,10.77v24.39h7.62Z"/>
  <path class="cls-1" d="M1422.41,860.22c-2.95,2.51-4.43,6.02-4.43,10.53,0,2.92,1.21,5.54,3.62,7.86,2.41,2.32,5.78,4.05,10.1,5.19l4.57,1.24c2.92.76,5.13,1.75,6.62,2.95,1.49,1.21,2.24,2.8,2.24,4.76,0,2.16-1.02,3.83-3.05,5-2.03,1.18-4.54,1.76-7.53,1.76-2.61,0-4.99-.67-7.15-2-2.16-1.33-3.78-3.08-4.86-5.24l-6.67,2.76c.76,2.03,2.02,3.91,3.76,5.62,1.75,1.71,3.92,3.1,6.53,4.15,2.6,1.05,5.65,1.57,9.15,1.57s6.35-.56,8.96-1.67c2.6-1.11,4.67-2.72,6.19-4.81,1.52-2.1,2.29-4.57,2.29-7.43,0-2.16-.54-4.19-1.62-6.1-1.08-1.91-2.67-3.6-4.76-5.1-2.1-1.49-4.7-2.62-7.81-3.38l-4.76-1.24c-2.67-.7-4.69-1.6-6.05-2.72-1.37-1.11-2.05-2.3-2.05-3.57,0-2.22.82-3.95,2.48-5.19,1.65-1.24,3.94-1.86,6.86-1.86,2.73,0,5.05.48,6.96,1.43,1.91.95,3.27,2.51,4.1,4.67l6.67-2.95c-.76-2.03-1.97-3.8-3.62-5.29-1.65-1.49-3.62-2.65-5.91-3.48-2.29-.83-4.83-1.24-7.62-1.24-5.85,0-10.24,1.25-13.2,3.76Z"/>
  <path class="cls-1" d="M1504.22,905.24v-26.68c.06-5.27-.68-9.53-2.24-12.77-1.56-3.24-3.73-5.61-6.53-7.1-2.8-1.49-6.04-2.24-9.72-2.24-3.94,0-7.31.95-10.1,2.86-1.98,1.35-3.63,3.14-4.96,5.35v-26.13h-7.62v66.7h7.62v-24.68c0-5.4,1.16-9.58,3.48-12.53,2.32-2.95,5.57-4.43,9.77-4.43,2.41,0,4.57.46,6.48,1.38,1.91.92,3.41,2.62,4.53,5.1,1.11,2.48,1.67,6.07,1.67,10.77v24.39h7.62Z"/>
  <rect class="cls-1" x="1516.7" y="857.6" width="7.62" height="47.65"/>
  <path class="cls-1" d="M1523.99,838.39c-.92-.92-2.05-1.38-3.38-1.38s-2.38.46-3.34,1.38c-.95.92-1.43,2.05-1.43,3.38s.48,2.38,1.43,3.34c.95.95,2.06,1.43,3.34,1.43s2.46-.48,3.38-1.43c.92-.95,1.38-2.06,1.38-3.34,0-1.33-.46-2.46-1.38-3.38Z"/>
  <path class="cls-1" d="M1546.4,865.67l-.44-8.07h-7.15v66.7h7.62v-27.1c1.48,2.47,3.34,4.49,5.57,6.04,3.02,2.1,6.53,3.14,10.53,3.14,4.26,0,8-1.05,11.24-3.14,3.24-2.1,5.77-5.03,7.58-8.81,1.81-3.78,2.72-8.11,2.72-13.01s-.91-9.31-2.72-13.05c-1.81-3.75-4.34-6.67-7.58-8.77-3.24-2.1-6.99-3.14-11.24-3.14-4,0-7.51,1.05-10.53,3.14-2.25,1.56-4.12,3.59-5.61,6.07ZM1560.92,863.41c3.05,0,5.73.76,8.05,2.29,2.32,1.53,4.13,3.65,5.43,6.38,1.3,2.73,1.95,5.85,1.95,9.34s-.68,6.69-2.05,9.39c-1.37,2.7-3.21,4.81-5.53,6.34-2.32,1.52-4.97,2.29-7.96,2.29-2.8,0-5.27-.76-7.43-2.29-2.16-1.53-3.86-3.65-5.1-6.38-1.24-2.73-1.86-5.84-1.86-9.34s.62-6.69,1.86-9.39c1.24-2.7,2.95-4.81,5.15-6.34,2.19-1.52,4.68-2.29,7.48-2.29Z"/>
  <path class="cls-1" d="M1631.48,856.64c.67-.95,1.51-1.72,2.53-2.29,1.02-.57,2.16-.86,3.43-.86,1.84,0,3.32.24,4.43.71,1.11.48,1.94,1.16,2.48,2.05.54.89.81,1.91.81,3.05,0,1.21-.45,2.42-1.33,3.62-.89,1.21-1.97,2.3-3.24,3.29-1.27.99-2.48,1.86-3.62,2.62l-6.67,4.29c-3.05,1.97-5.8,4.18-8.24,6.62-2.45,2.45-4.37,4.83-5.77,7.15-1.4,2.32-2.1,4.3-2.1,5.96v12.39h49.74v-15.44h-27.54c1.14-1.33,2.35-2.51,3.62-3.53,1.27-1.02,2.51-1.91,3.72-2.67l5.43-3.53c4.13-2.67,7.51-5.64,10.15-8.91,2.64-3.27,3.95-7.29,3.95-12.06,0-4.32-1.03-8.11-3.1-11.39-2.07-3.27-5.02-5.83-8.86-7.67-3.84-1.84-8.47-2.76-13.86-2.76-4.83,0-9.07.91-12.72,2.72-3.65,1.81-6.58,4.21-8.77,7.19-2.19,2.99-3.57,6.19-4.15,9.62l18.2,2.95c.32-1.14.81-2.19,1.48-3.14Z"/>
  <path class="cls-1" d="M1712.86,841.82c-4.35-2.95-9.39-4.43-15.1-4.43s-10.53,1.48-14.82,4.43c-4.29,2.95-7.66,7.02-10.1,12.2-2.45,5.18-3.67,11.13-3.67,17.87s1.22,12.69,3.67,17.87c2.44,5.18,5.84,9.24,10.2,12.2,4.35,2.95,9.32,4.43,14.91,4.43s10.64-1.48,14.96-4.43c4.32-2.95,7.72-7.02,10.2-12.2,2.48-5.18,3.72-11.13,3.72-17.87s-1.24-12.69-3.72-17.87c-2.48-5.18-5.89-9.24-10.24-12.2ZM1708.14,881.47c-1.02,2.76-2.4,4.94-4.15,6.53-1.75,1.59-3.76,2.38-6.05,2.38s-4.23-.79-6-2.38c-1.78-1.59-3.16-3.76-4.15-6.53-.99-2.76-1.48-5.96-1.48-9.58s.49-6.92,1.48-9.72c.98-2.79,2.33-4.99,4.05-6.58,1.71-1.59,3.68-2.38,5.91-2.38,2.35,0,4.41.79,6.19,2.38,1.78,1.59,3.18,3.78,4.19,6.58,1.02,2.8,1.52,6.04,1.52,9.72s-.51,6.81-1.52,9.58Z"/>
  <path class="cls-1" d="M1759.89,866.22c-1.27.99-2.48,1.86-3.62,2.62l-6.67,4.29c-3.05,1.97-5.8,4.18-8.24,6.62-2.45,2.45-4.37,4.83-5.77,7.15-1.4,2.32-2.1,4.3-2.1,5.96v12.39h49.74v-15.44h-27.54c1.14-1.33,2.35-2.51,3.62-3.53,1.27-1.02,2.51-1.91,3.72-2.67l5.43-3.53c4.13-2.67,7.51-5.64,10.15-8.91,2.64-3.27,3.95-7.29,3.95-12.06,0-4.32-1.03-8.11-3.1-11.39-2.07-3.27-5.02-5.83-8.86-7.67-3.84-1.84-8.47-2.76-13.86-2.76-4.83,0-9.07.91-12.72,2.72-3.65,1.81-6.58,4.21-8.77,7.19-2.19,2.99-3.57,6.19-4.15,9.62l18.2,2.95c.32-1.14.81-2.19,1.48-3.14.67-.95,1.51-1.72,2.53-2.29,1.02-.57,2.16-.86,3.43-.86,1.84,0,3.32.24,4.43.71,1.11.48,1.94,1.16,2.48,2.05.54.89.81,1.91.81,3.05,0,1.21-.45,2.42-1.33,3.62-.89,1.21-1.97,2.3-3.24,3.29Z"/>
  <path class="cls-1" d="M1817.54,852.74c1.59,0,3.46.27,5.62.81,2.16.54,4.22,1.45,6.19,2.72l8.29-12.96c-2.73-1.91-5.8-3.37-9.2-4.38-3.4-1.02-6.97-1.52-10.72-1.52-5.53,0-10.15,1.14-13.86,3.43-3.72,2.29-6.66,5.32-8.81,9.1-2.16,3.78-3.72,7.96-4.67,12.53-.95,4.57-1.43,9.15-1.43,13.72,0,4.32.52,8.31,1.57,11.96,1.05,3.65,2.62,6.85,4.72,9.58,2.1,2.73,4.75,4.86,7.96,6.38,3.21,1.52,7,2.29,11.39,2.29,5.21,0,9.69-.94,13.44-2.81,3.75-1.87,6.64-4.45,8.67-7.72,2.03-3.27,3.05-6.94,3.05-11.01s-.92-8.13-2.76-11.63c-1.84-3.49-4.38-6.29-7.62-8.39-3.24-2.1-6.96-3.15-11.15-3.15-3.88,0-7.19.97-9.96,2.91-.85.59-1.62,1.25-2.35,1.96.53-3.82,1.52-6.78,2.96-8.87,2.29-3.3,5.18-4.96,8.67-4.96ZM1808.01,879.75c.7-1.24,1.63-2.22,2.81-2.95,1.17-.73,2.46-1.1,3.86-1.1s2.67.37,3.81,1.1c1.14.73,2.05,1.72,2.72,2.95.67,1.24,1,2.62,1,4.15s-.33,2.78-1,3.95c-.67,1.18-1.57,2.11-2.72,2.81-1.14.7-2.42,1.05-3.81,1.05s-2.68-.35-3.86-1.05c-1.18-.7-2.11-1.63-2.81-2.81-.7-1.18-1.05-2.49-1.05-3.95s.35-2.91,1.05-4.15Z"/>
  <g>
    <path class="cls-1" d="M465.68,149.65v347.51l-34.07-19.5-8.54-19.67-15.55-5.18-22.68,7.82-16.14-22.47-13.6-8.03-13.17,7.56-33.26,36.54c-.38-11.56-2.89-24.09-9.39-36.37-3.48-6.58-7.9-12.62-13.08-18.06l.38-.17,16.99-8.5c3.14-1.53,2.93-6.12-.38-7.31l-18.44-6.84c10.24-15.89,27.19-47.07,29.7-89.13,1.4-23.66,4.97-82.97-39.64-120.14-28.85-24.05-78.3-39.08-121.67-15.93-44.82,23.92-58.45,75.36-54.12,112.58,5.78,49.15,43.33,77.45,60.88,90.66,39.55,29.78,81.27,34.33,98.77,35.18-1.83,6.16-3.7,12.32-5.57,18.48-1.02,3.36,2.46,6.29,5.61,4.76l16.14-8.03c5.65,5.35,10.28,11.43,13.81,18.06,5.52,10.45,7.73,21.2,8.03,31.14l-22.73-18.9-26.3-9.81-22.13-11.34-43.12,6.41-42.06,31.4-61.98,36.83c-1.78-3.31-2.8-7.18-2.8-11.26V149.65c0-9.9,7.99-17.93,17.93-17.93h232.46c2.08,10.11,5.61,19.71,8.71,28.25,7.39,20.31,18.14,34.88,25.79,43.8-2.97,2.51-5.91,5.01-8.92,7.48-1.62,1.36-.81,3.95,1.27,4.21l8.5,1.06.72.09c-1.36,7.22-1.61,14.4-.81,21.45,1.32,10.92,4.67,17.25,7.6,22.86,2.72,5.1,4.84,9.13,5.1,16.36.34,8.41-2.17,13.51-5.27,19.97-3.31,6.75-7.01,14.4-7.6,26.64-.55,11.43,1.83,23.03,7.14,34.41,1.02,2.17,3.19,3.44,5.44,3.44.89,0,1.7-.17,2.55-.55,3.02-1.36,4.29-4.97,2.89-7.99-4.42-9.6-6.5-19.29-5.99-28.76.43-9.73,3.31-15.68,6.37-21.96,3.4-7.01,6.92-14.23,6.5-25.66-.38-9.94-3.48-15.85-6.5-21.5-2.68-5.14-5.27-9.94-6.24-18.65-.77-6.08-.47-12.28.76-18.65l.77.09,8.03.98c2.04.26,3.48-2.08,2.21-3.78l-7.01-9.56c9.98-6.25,28.08-19.54,40.83-43.04,4-7.35,9.9-18.27,12.96-30.97h16.02c9.9,0,17.93,8.03,17.93,17.93Z"/>
    <g>
      <path class="cls-1" d="M869.56,557.99h-342.37c-.43,0-.85,0-1.23.04h344.83c-.38-.04-.81-.04-1.23-.04ZM893.44,580.68v344.83c.08-.38.08-.81.08-1.23v-342.37c0-.42,0-.85-.08-1.23Z"/>
      <path class="cls-1" d="M875.42,558.03h-354.13c-9.94,0-18.01,8.11-18.01,18.06v354.13c0,9.94,8.07,18.01,18.01,18.01h22.86l39.13-40.1,83.69-33.94,28.29-29.4,56.54,33.94,53.78,60.54,13-1.7,15.63,10.66h41.21c9.98,0,18.01-8.07,18.01-18.01v-354.13c0-9.94-8.03-18.06-18.01-18.06ZM642.58,803.84c-13.68-.81-27.27-1.7-40.7-2.76-1.19-.13-2.25.68-2.51,1.83-3.74,15.34-6.54,31.05-8.28,46.99-.3,2.46-3.57,2.97-4.63.76-7.48-16.4-13.13-33.39-16.91-50.72-.21-1.02-1.06-1.78-2.12-1.87-13.89-1.36-27.66-2.85-41.25-4.42-2.12-.25-2.89-2.93-1.23-4.29,12.83-10.37,25.57-20.09,38.23-29.23.64-.47,1.02-1.23.98-2.04-.72-17.76.51-35.64,3.74-53.32.47-2.38,3.78-2.68,4.63-.38,4.33,11.85,10.07,23.41,16.91,34.58.72,1.15,2.25,1.44,3.4.72,11-7.26,21.84-14.06,32.46-20.43,2.08-1.23,4.46.98,3.4,3.14-6.84,13.85-12.96,28.25-18.23,43.12-.3.85-.13,1.74.47,2.42,9.77,11.17,20.94,21.79,33.26,31.61,1.87,1.44.72,4.42-1.62,4.29ZM688.21,652.09c-10.45-2.55-21.03-5.99-31.65-10.41-.51-.25-1.06-.17-1.53.17-9.09,6.5-18.23,12.36-27.32,17.55-1.23.72-2.72-.42-2.29-1.83,2.46-8.58,4.93-17.25,7.39-25.96.21-.68-.09-1.44-.72-1.83-9.86-5.44-19.59-11.73-29.14-18.82-1.36-.98-.38-3.14,1.23-2.8,10.96,2,22.05,3.02,33.22,2.97.76,0,1.36-.47,1.57-1.15,2.46-8.84,4.97-17.63,7.43-26.55.38-1.36,2.21-1.61,2.93-.34,4.84,8.58,9.77,16.95,14.61,25.11.34.55.98.89,1.66.76,11.26-1.74,22.47-4.5,33.43-8.24,1.61-.55,2.89,1.44,1.66,2.63-8.07,7.94-16.27,15.34-24.56,22.18-.59.51-.72,1.4-.3,2.08,4.71,7.56,9.43,14.87,14.1,22.01.81,1.23-.34,2.76-1.74,2.46ZM869.35,786.33c-19.88,2.25-40.02,4.38-60.45,6.37-1.66.13-3.06,1.4-3.36,3.06-4.67,23.41-11.21,46.6-19.54,69.37-1.32,3.53-6.42,3.27-7.35-.34-5.69-21.84-11.81-43.37-18.27-64.53-.51-1.74-2.17-2.89-4.03-2.72-20.09,1.78-40.4,3.4-60.92,4.93-3.82.3-5.69-4.59-2.63-6.92,18.27-14.06,34.92-28.8,49.79-44.01.98-1.02,1.36-2.59.85-3.95-6.93-20.52-14.15-40.7-21.62-60.54-1.36-3.48,2.63-6.63,5.78-4.5,14.1,9.56,28.76,19.46,44.05,29.78,1.74,1.1,4.03.72,5.27-.89,10.96-14.78,20.39-29.95,28.25-45.33,1.74-3.4,6.92-2.46,7.26,1.4,2.12,23.45,2.38,46.99.81,70.39-.09,1.4.55,2.72,1.66,3.44,18.1,12.15,36.83,24.81,56.2,37.94,2.97,2,1.83,6.63-1.74,7.05Z"/>
    </g>
    <g>
      <path class="cls-1" d="M165.5,679.07c-.94-.93-2.25-1.36-3.82-1.36-1.66,0-2.93.43-3.87,1.36-.89.93-1.36,2.42-1.36,4.46v15.42c0,2.04.47,3.48,1.36,4.42.93.93,2.21,1.4,3.87,1.4,1.57,0,2.89-.47,3.82-1.4.93-.93,1.36-2.38,1.36-4.42v-15.42c0-2.04-.43-3.53-1.36-4.46Z"/>
      <path class="cls-1" d="M182.96,658.33h-42.57c-4.42,0-7.99,3.57-7.99,7.99v48.52c0,4.42,3.57,7.99,7.99,7.99h42.57c4.38,0,7.94-3.57,7.94-7.99v-48.52c0-4.42-3.57-7.99-7.94-7.99ZM175.99,698.95c0,3.31-.64,6.03-1.91,8.03-1.23,2.04-2.97,3.48-5.14,4.38-2.21.89-4.63,1.32-7.26,1.32s-5.1-.42-7.26-1.32c-2.17-.89-3.87-2.34-5.14-4.38-1.23-2-1.87-4.72-1.87-8.03v-15.42c0-3.36.64-6.03,1.87-8.03,1.27-2,2.97-3.48,5.14-4.38,2.17-.89,4.59-1.36,7.26-1.36s5.06.47,7.26,1.36c2.17.89,3.91,2.38,5.14,4.38,1.27,2,1.91,4.67,1.91,8.03v15.42Z"/>
      <path class="cls-1" d="M256.75,658.33h-42.57c-4.42,0-7.99,3.57-7.99,7.99v48.52c0,4.42,3.57,7.99,7.99,7.99h42.57c4.42,0,7.99-3.57,7.99-7.99v-48.52c0-4.42-3.57-7.99-7.99-7.99ZM241.46,709.53c0,.93-.51,1.61-1.44,2.12-.94.42-2,.68-3.1.68s-2.17-.26-3.1-.68c-.98-.51-1.45-1.19-1.45-2.12v-29.61l-1.66,1.02c-.3.17-.55.3-.81.38-.25.04-.51.09-.68.09-.85,0-1.53-.34-2.08-1.1-.51-.76-.76-1.61-.76-2.46,0-.64.13-1.23.43-1.78.25-.55.68-.98,1.23-1.32l7.73-4.67c.21-.17.47-.25.76-.3.3-.09.6-.09.94-.09.89,0,1.78.21,2.68.76.89.51,1.32,1.19,1.32,2.08v37Z"/>
      <path class="cls-1" d="M328.5,871.09l-.47.51c.04-.17.09-.38.17-.51h.3Z"/>
      <path class="cls-1" d="M313.04,679.07c-.94-.93-2.21-1.36-3.87-1.36s-2.89.43-3.78,1.36c-.89.93-1.4,2.42-1.4,4.46v15.42c0,2.04.51,3.48,1.4,4.42.89.93,2.21,1.4,3.78,1.4,1.66,0,2.93-.47,3.87-1.4.93-.93,1.4-2.38,1.4-4.42v-15.42c0-2.04-.47-3.53-1.4-4.46ZM311.38,693.38c-.51.59-1.23.85-2.12.85-.94,0-1.66-.26-2.21-.85-.51-.55-.76-1.27-.76-2.21,0-.81.25-1.53.76-2.04.55-.51,1.27-.76,2.21-.76s1.61.26,2.12.76c.51.51.81,1.23.81,2.04,0,.93-.3,1.66-.81,2.21Z"/>
      <path class="cls-1" d="M330.5,658.33h-42.57c-4.37,0-7.94,3.57-7.94,7.99v48.52c0,4.42,3.57,7.99,7.94,7.99h42.57c4.42,0,7.99-3.57,7.99-7.99v-48.52c0-4.42-3.57-7.99-7.99-7.99ZM323.53,698.95c0,3.31-.64,6.03-1.91,8.03-1.28,2.04-2.97,3.48-5.14,4.38-2.17.89-4.59,1.32-7.31,1.32s-5.06-.42-7.22-1.32c-2.17-.89-3.86-2.34-5.14-4.38-1.23-2-1.87-4.72-1.87-8.03v-15.42c0-3.36.64-6.03,1.87-8.03,1.28-2,2.97-3.48,5.14-4.38,2.17-.89,4.59-1.36,7.22-1.36s5.14.47,7.31,1.36c2.17.89,3.86,2.38,5.14,4.38,1.27,2,1.91,4.67,1.91,8.03v15.42Z"/>
      <path class="cls-1" d="M377.15,791.39l-61.81,65.68v-61.68c0-2.21,1.83-3.99,3.99-3.99h57.82Z"/>
      <path class="cls-1" d="M390.27,805.37v61.68c0,2.25-1.78,4.04-3.99,4.04h-57.78l14.32-15.29,4.46-4.72,42.99-45.71Z"/>
      <path class="cls-1" d="M404.29,658.33h-42.57c-4.38,0-7.99,3.57-7.99,7.99v48.52c0,4.42,3.61,7.99,7.99,7.99h42.57c4.42,0,7.99-3.57,7.99-7.99v-48.52c0-4.42-3.57-7.99-7.99-7.99ZM389,709.53c0,.93-.47,1.61-1.44,2.12-.94.42-1.95.68-3.06.68s-2.21-.26-3.14-.68c-.98-.51-1.4-1.19-1.4-2.12v-29.61l-1.74,1.02c-.26.17-.51.3-.76.38-.26.04-.47.09-.68.09-.81,0-1.53-.34-2.04-1.1-.51-.76-.77-1.61-.77-2.46,0-.64.13-1.23.38-1.78.26-.55.68-.98,1.28-1.32l7.65-4.67c.3-.17.55-.25.81-.3.3-.09.6-.09.94-.09.94,0,1.83.21,2.68.76.89.51,1.32,1.19,1.32,2.08v37Z"/>
      <path class="cls-1" d="M441.85,558.76H99.44c-13.21,0-23.92,10.71-23.92,23.92v274.82c0,11.39,7.99,21.16,19.12,23.45l316.03,64.87c5.14,1.06,10.32,1.87,15.51,2.38,5.23.55,10.45.81,15.68.81,13.21,0,23.92-10.71,23.92-23.96v-342.37c0-13.21-10.71-23.92-23.92-23.92ZM428.93,637.48v141.93c0,6.63-5.35,11.98-11.94,11.98h-11.26v84.8c0,4.42-3.57,7.94-7.99,7.94h-17.67c-2.97,11.81-13.64,20.52-26.34,20.52s-23.37-8.71-26.34-20.52h-19.5c-4.42,0-7.99-3.53-7.99-7.94v-84.8h-87.98v40.15c0,4.38-3.57,7.94-7.99,7.94h-2.76c0,15.04-12.15,27.19-27.15,27.19s-27.15-12.15-27.15-27.19h-2.21c-4.42,0-7.94-3.57-7.94-7.94v-40.15h-9.05c-6.63,0-11.94-5.35-11.94-11.98v-141.93h-15.59c0-15.55,12.58-28.12,28.12-28.12h284.72c7.77,0,14.83,3.1,19.92,8.24,5.1,5.1,8.24,12.11,8.24,19.88h-12.24Z"/>
      <path class="cls-1" d="M328.5,871.09l-.47.51c.04-.17.09-.38.17-.51h.3Z"/>
    </g>
    <g>
      <path class="cls-1" d="M806.65,342.05l-20.01-66.23c-2.04-6.71-8.24-11.3-15.25-11.3h-143.5c-7.01,0-13.21,4.59-15.25,11.3l-20.01,66.23c-3.1,10.24,4.54,20.52,15.21,20.52h183.61c10.66,0,18.31-10.28,15.21-20.52ZM651.92,333.73c1.15.68,1.7,1.91,1.7,3.7,0,2-.68,3.61-2.12,4.97-1.44,1.32-2.89,2-4.33,2-.85,0-1.44-.13-1.83-.47l-24.26-15.76c-1.1-.68-1.83-1.57-2.29-2.55-.42-1.06-.68-2-.68-2.8s.26-1.74.68-2.76c.47-1.02,1.19-1.87,2.29-2.59l24.26-15.76c.38-.3.98-.47,1.83-.47,1.44,0,2.89.68,4.33,2,1.44,1.36,2.12,2.97,2.12,4.97,0,1.78-.55,3.02-1.7,3.74l-16.82,10.88,16.82,10.92ZM721.04,282.41l-33.6,68.91c-.3.64-.85,1.23-1.7,1.7-.85.43-1.7.68-2.59.68-1.57,0-2.89-.55-3.87-1.66-.98-1.1-1.49-2.21-1.49-3.44,0-.55.17-1.15.47-1.83l33.56-68.86c.76-1.57,2.08-2.38,3.99-2.38,1.36,0,2.59.47,3.82,1.4,1.23.93,1.78,2.12,1.78,3.7,0,.68-.13,1.27-.38,1.78ZM780.48,325.61c-.43.98-1.19,1.87-2.29,2.55l-24.26,15.76c-.38.34-.98.47-1.78.47-1.44,0-2.89-.68-4.33-2-1.44-1.36-2.17-2.97-2.17-4.97,0-1.78.55-3.02,1.7-3.7l16.82-10.92-16.82-10.88c-1.15-.72-1.7-1.95-1.7-3.74,0-2,.72-3.61,2.17-4.97,1.44-1.32,2.89-2,4.33-2,.81,0,1.4.17,1.78.47l24.26,15.76c1.11.72,1.87,1.57,2.29,2.59.43,1.02.68,1.95.68,2.76s-.26,1.74-.68,2.8Z"/>
      <path class="cls-1" d="M893.52,222.51v274.82c0,13.21-10.7,23.92-23.92,23.92h-342.37c-13.21,0-23.96-10.71-23.96-23.92V154.96c0-13.25,10.75-23.96,23.96-23.96,4.33,0,8.71.21,13.04.68,4.38.42,8.67,1.06,12.96,1.95l158.88,32.37-13.43,13.42-10.11,10.11c-2.21,2.21-3.44,5.23-3.44,8.41v24.55h-37.55c-4.63,0-8.84,1.87-11.85,4.89-3.02,3.02-4.93,7.22-4.93,11.85h-22.51c-7.01,0-13.21,4.59-15.25,11.34l-31.1,102.81c-1.32,4.5-1.32,9.3,0,13.81l31.1,102.81c2.04,6.71,8.24,11.34,15.25,11.34h182.67c7.01,0,13.21-4.63,15.25-11.34l31.1-102.81c1.36-4.5,1.36-9.3,0-13.81l-31.1-102.81c-2.04-6.75-8.24-11.34-15.25-11.34h-22.51c0-9.26-7.48-16.74-16.74-16.74h-42.74v-14.66c0-3.14,1.27-6.2,3.52-8.45l14.27-14.27,13.38-13.42.42.13,133.82,27.27c11.13,2.25,19.12,12.06,19.12,23.41Z"/>
    </g>
  </g>
</svg>