<?xml version="1.0" encoding="UTF-8" standalone="no"?>
<svg
   id="Capa_1"
   data-name="Capa 1"
   viewBox="0 0 1920 1080"
   version="1.1"
   sodipodi:docname="logo-dark.svg"
   inkscape:version="1.2.1 (9c6d41e410, 2022-07-14)"
   xmlns:inkscape="http://www.inkscape.org/namespaces/inkscape"
   xmlns:sodipodi="http://sodipodi.sourceforge.net/DTD/sodipodi-0.dtd"
   xmlns="http://www.w3.org/2000/svg"
   xmlns:svg="http://www.w3.org/2000/svg">
  <sodipodi:namedview
     id="namedview37"
     pagecolor="#ffffff"
     bordercolor="#000000"
     borderopacity="0.25"
     inkscape:showpageshadow="2"
     inkscape:pageopacity="0.0"
     inkscape:pagecheckerboard="0"
     inkscape:deskcolor="#d1d1d1"
     showgrid="false"
     inkscape:zoom="0.15755208"
     inkscape:cx="755.3058"
     inkscape:cy="872.72728"
     inkscape:window-width="935"
     inkscape:window-height="942"
     inkscape:window-x="962"
     inkscape:window-y="44"
     inkscape:window-maximized="0"
     inkscape:current-layer="Capa_1" />
  <defs
     id="defs4">
    <style
       id="style2">
      .cls-1 {
        fill: #ffa600;
      }

      .cls-2 {
        fill: #15214c;
      }
    </style>
  </defs>
  <path
     class="cls-2"
     d="M931.66,629.29c-26.58,0-49.73-4.94-69.47-14.81-19.75-9.87-35.1-23.7-46.04-41.47-10.96-17.77-16.43-38.5-16.43-62.2v-120.2c0-24.05,5.47-44.87,16.43-62.47,10.95-17.59,26.3-31.33,46.04-41.21,19.74-9.87,42.9-14.8,69.47-14.8s49.09,4.94,68.66,14.8c19.56,9.88,34.82,23.61,45.78,41.21,8.68,13.94,13.92,29.92,15.72,47.92.78,7.82-5.59,14.54-13.44,14.54h-54.23c-6.52,0-12.21-4.68-13.22-11.13-1.65-10.44-5.77-18.76-12.37-24.95-8.8-8.26-21.27-12.39-37.43-12.39s-28.64,4.13-37.43,12.39c-8.8,8.26-13.19,20.29-13.19,36.08v120.2c0,15.44,4.39,27.37,13.19,35.81,8.8,8.44,21.27,12.66,37.43,12.66s28.62-4.21,37.43-12.66c6.6-6.33,10.72-14.62,12.37-24.89,1.03-6.41,6.92-10.92,13.42-10.92h54.02c7.86,0,14.24,6.73,13.44,14.55-1.82,17.73-7.05,33.61-15.7,47.64-10.96,17.77-26.22,31.6-45.78,41.47-19.57,9.87-42.46,14.81-68.66,14.81Z"
     id="path6"
     style="fill:#ffffff;fill-opacity:1" />
  <path
     class="cls-2"
     d="M1135.26,629.29c-7.44,0-13.46-6.19-13.46-13.83v-58.09h0v-213.31h-.17v-58.09c0-7.64,6.03-13.83,13.46-13.83h54.03c7.44,0,13.46,6.19,13.46,13.83v58.09h0v213.31h.09v58.09c0,7.64-6.03,13.83-13.46,13.83h-53.94Z"
     id="path8"
     style="fill:#ffffff;fill-opacity:1" />
  <path
     class="cls-2"
     d="M1269.66,615.46v-329.49c0-7.64,6.03-13.83,13.46-13.83h120.63c27.64,0,51.78,5.35,72.43,16.04,20.64,10.71,36.62,25.65,47.93,44.82,11.31,19.18,16.96,41.69,16.96,67.5s-5.75,47.86-17.23,67.23c-11.5,19.36-27.47,34.39-47.93,45.09-20.46,10.7-44.52,16.05-72.16,16.05h-39.85c-7.44,0-13.46,6.19-13.46,13.83v72.76c0,7.64-6.03,13.83-13.46,13.83h-53.85c-7.44,0-13.46-6.19-13.46-13.83ZM1350.45,440.33c0,7.64,6.03,13.83,13.46,13.83h39.85c17.23,0,30.96-4.88,41.2-14.66,10.23-9.77,15.34-22.78,15.34-39.01s-5.11-29.23-15.34-39.01c-10.24-9.77-23.97-14.66-41.2-14.66h-39.85c-7.44,0-13.46,6.19-13.46,13.83v79.67Z"
     id="path10"
     style="fill:#ffffff;fill-opacity:1" />
  <path
     class="cls-2"
     d="M1704.38,629.29c-26.58,0-49.73-4.94-69.47-14.81-19.75-9.87-35.1-23.7-46.04-41.47-10.96-17.77-16.43-38.5-16.43-62.2v-120.2c0-24.05,5.47-44.87,16.43-62.47,10.95-17.59,26.3-31.33,46.04-41.21,19.74-9.87,42.9-14.8,69.47-14.8s49.09,4.94,68.66,14.8c19.56,9.88,34.82,23.61,45.78,41.21,8.68,13.94,13.92,29.92,15.72,47.92.78,7.82-5.59,14.54-13.44,14.54h-54.23c-6.52,0-12.21-4.68-13.22-11.13-1.65-10.44-5.77-18.76-12.37-24.95-8.8-8.26-21.27-12.39-37.43-12.39s-28.64,4.13-37.43,12.39c-8.8,8.26-13.19,20.29-13.19,36.08v120.2c0,15.44,4.39,27.37,13.19,35.81,8.8,8.44,21.27,12.66,37.43,12.66s28.62-4.21,37.43-12.66c6.6-6.33,10.72-14.62,12.37-24.89,1.03-6.41,6.92-10.92,13.42-10.92h54.02c7.86,0,14.24,6.73,13.44,14.55-1.82,17.73-7.05,33.61-15.7,47.64-10.96,17.77-26.22,31.6-45.78,41.47-19.57,9.87-42.46,14.81-68.66,14.81Z"
     id="path12"
     style="fill:#ffffff;fill-opacity:1" />
  <circle
     class="cls-1"
     cx="1162.19"
     cy="158.85"
     r="65.3"
     id="circle14"
     style="fill:#ffffff;fill-opacity:1" />
  <path
     class="cls-2"
     d="M864.02,802.53c-6.49,0-12.42-1.27-17.79-3.83-5.37-2.55-10.02-6.22-13.95-11.01-3.93-4.79-6.96-10.53-9.09-17.22-2.13-6.7-3.19-14.24-3.19-22.65,0-11.06,1.88-20.65,5.66-28.79,3.77-8.14,9.03-14.41,15.79-18.82,6.75-4.41,14.59-6.62,23.52-6.62,6.17,0,11.59,1.28,16.26,3.83,4.68,2.55,8.4,5.48,11.17,8.77l-4.47,4.79c-2.76-3.3-6.06-5.91-9.89-7.82-3.82-1.91-8.19-2.87-13.07-2.87-7.66,0-14.28,1.94-19.86,5.82-5.58,3.88-9.88,9.36-12.91,16.42-3.03,7.07-4.54,15.5-4.54,25.28s1.51,18.13,4.54,25.36c3.03,7.23,7.3,12.81,12.84,16.75,5.53,3.94,12.06,5.9,19.61,5.9,5.42,0,10.24-1.09,14.44-3.27,4.2-2.18,8.16-5.4,11.88-9.65l4.31,4.63c-3.93,4.57-8.4,8.21-13.4,10.92-5.01,2.71-10.96,4.07-17.86,4.07Z"
     id="path16"
     style="fill:#ffffff;fill-opacity:1" />
  <path
     class="cls-2"
     d="M918.25,800.61v-105.1h7.5v46.09h52.63v-46.09h7.49v105.1h-7.49v-52.63h-52.63v52.63h-7.5Z"
     id="path18"
     style="fill:#ffffff;fill-opacity:1" />
  <path
     class="cls-2"
     d="M1016.97,800.61v-6.38h27.11v-92.35h-27.11v-6.38h61.56v6.38h-27.11v92.35h27.11v6.38h-61.56Z"
     id="path20"
     style="fill:#ffffff;fill-opacity:1" />
  <path
     class="cls-2"
     d="M1119.53,800.61v-105.1h7.01v98.72h55.03v6.38h-62.04Z"
     id="path22"
     style="fill:#ffffff;fill-opacity:1" />
  <path
     class="cls-2"
     d="M1211.55,800.61v-105.1h62.21v6.38h-54.87v39.72h46.25v6.38h-46.25v46.25h56.46v6.38h-63.8Z"
     id="path24"
     style="fill:#ffffff;fill-opacity:1" />
  <g
     id="g34"
     style="fill:#ffffff;fill-opacity:1">
    <path
       class="cls-1"
       d="M188.63,196.28l-14.06-22.56s-.07.07-.11.1l-.03-.05c-23.39,23.04-42.56,49.98-57.06,79.52-.03.07-.07.13-.1.2-.47.97-.96,1.93-1.42,2.91l44.69,44.69,28.09-104.82Z"
       id="path26"
       style="fill:#ffffff;fill-opacity:1" />
    <path
       class="cls-2"
       d="M521.99,688.85l47.7-146.8-124.87-90.72c-9.08-6.6-4.42-20.97,6.81-20.97h154.35l47.6-146.49c-.57-1.25-1.12-2.51-1.7-3.75,0-.01.01-.02.02-.03-71.15-151.94-241.55-225.88-388.04-165.51-6.85,2.82-13.52,5.9-20.02,9.19l-9.57,35.72,31.1-16.58c4.59-2.44,10.28-.71,12.73,3.87l7.41,13.91c2.44,4.59.71,10.28-3.86,12.72l-59.63,31.79-28.09,104.84,104.83-28.1,31.79-59.63c2.43-4.58,8.14-6.31,12.71-3.87l13.92,7.42c4.58,2.45,6.32,8.14,3.87,12.73l-16.58,31.1,39.94-10.7c5-1.35,10.16,1.64,11.51,6.64l4.09,15.24c1.34,5.01-1.65,10.17-6.66,11.51l-39.94,10.7,29.92,18.65c4.41,2.75,5.75,8.54,3,12.96l-8.33,13.39c-2.74,4.4-8.54,5.75-12.95,3.01l-57.35-35.75-104.82,28.09,76.73,76.73,67.53-2.27c5.19-.17,9.54,3.89,9.71,9.08l.53,15.76c.17,5.19-3.89,9.54-9.08,9.71l-35.23,1.19,29.23,29.23c3.67,3.67,3.67,9.62,0,13.3l-11.15,11.15c-3.67,3.67-9.62,3.67-13.3,0l-29.23-29.23-1.2,35.23c-.17,5.19-4.52,9.26-9.71,9.08l-15.76-.53c-5.19-.17-9.26-4.52-9.08-9.71l2.28-67.54-76.73-76.73-28.09,104.82,35.74,57.36c2.74,4.4,1.4,10.2-3.01,12.95l-13.39,8.33c-4.4,2.74-10.2,1.4-12.95-3.01l-18.66-29.91-9.9,36.95c78.96,135.97,278.8,251.61,389.38,235.75l2.85,40.98c.28,4.06,4.56,6.57,8.25,4.84l21.52-10.12c3.8,7.63,7.62,15.26,11.57,22.81,5.56,10.63,12.16,21.06,21.45,28.83,19.16,16.03,43.85,19.8,67.86,22.65,22.74,2.7,44.94,6.3,62.15,22.66,15.01,14.27,23.99,33.19,28.16,53.28,3.41,16.42,28.55,9.47,25.14-6.93-4.63-22.31-14.97-43.5-30.45-60.3-16.25-17.63-37.61-27.7-61.05-31.62-22.71-3.8-48.3-2.99-68.68-15.11-9.73-5.78-15.71-14.74-20.96-24.52-4.04-7.52-7.87-15.16-11.66-22.81l17.07-8.02c2.21-1.04,3.36-3.2,3.33-5.35,0-1.68-.73-3.37-2.23-4.55l-30.64-23.84c34.85-25.86,67.39-83.5,89.88-153.05l-111.28,80.85c-9.08,6.6-21.3-2.28-17.83-12.96Z"
       id="path28"
       style="fill:#ffffff;fill-opacity:1" />
    <path
       class="cls-1"
       d="M145.05,358.94l-59.17,15.85c-.13,2.39-.23,4.79-.31,7.19-.02.56-.03,1.12-.05,1.68-.05,1.76-.09,3.52-.11,5.28,0,.8-.01,1.6-.02,2.41,0,1.55,0,3.09.01,4.64,0,.88.01,1.75.03,2.63.03,1.56.07,3.12.12,4.69.03.82.04,1.64.07,2.46.09,2.17.2,4.35.33,6.53.07,1.21.16,2.43.25,3.65.08,1.07.15,2.14.24,3.21.11,1.35.23,2.71.36,4.06.08.9.17,1.8.26,2.7.15,1.46.3,2.93.47,4.39.08.68.16,1.37.25,2.05.94,7.77,2.16,15.54,3.66,23.32.04.23.09.46.13.69.39,1.97.79,3.95,1.21,5.92.02.1.04.2.06.3.89,4.15,1.89,8.3,2.95,12.45l21.14-11.27,28.1-104.83Z"
       id="path30"
       style="fill:#ffffff;fill-opacity:1" />
    <path
       class="cls-1"
       d="M101.81,291.27s-.03.09-.05.13l-.02-.02c-.24.73-.47,1.46-.71,2.19-.15.45-.29.9-.44,1.35-.61,1.89-1.19,3.78-1.76,5.68-.1.33-.2.66-.3.99-1.37,4.6-2.63,9.25-3.79,13.93-.02.09-.04.19-.07.28-.55,2.23-1.07,4.46-1.57,6.71-.05.23-.1.47-.16.71-.5,2.24-.97,4.49-1.42,6.75-.02.09-.04.17-.05.26-.5,2.53-.98,5.08-1.42,7.63h.01s0,.01,0,.02l46.02-12.33-34.28-34.28Z"
       id="path32"
       style="fill:#ffffff;fill-opacity:1" />
  </g>
</svg>
