<?xml version="1.0" encoding="UTF-8" standalone="no"?>
<svg
   id="Capa_1"
   data-name="Capa 1"
   viewBox="0 0 800.25299 1080"
   version="1.1"
   sodipodi:docname="logo-small.svg"
   width="800.25299"
   height="1080"
   inkscape:version="1.2.1 (9c6d41e410, 2022-07-14)"
   xmlns:inkscape="http://www.inkscape.org/namespaces/inkscape"
   xmlns:sodipodi="http://sodipodi.sourceforge.net/DTD/sodipodi-0.dtd"
   xmlns="http://www.w3.org/2000/svg"
   xmlns:svg="http://www.w3.org/2000/svg">
  <sodipodi:namedview
     id="namedview37"
     pagecolor="#ffffff"
     bordercolor="#000000"
     borderopacity="0.25"
     inkscape:showpageshadow="2"
     inkscape:pageopacity="0.0"
     inkscape:pagecheckerboard="0"
     inkscape:deskcolor="#d1d1d1"
     showgrid="false"
     inkscape:zoom="0.22281229"
     inkscape:cx="314.16579"
     inkscape:cy="558.7663"
     inkscape:window-width="935"
     inkscape:window-height="942"
     inkscape:window-x="962"
     inkscape:window-y="44"
     inkscape:window-maximized="0"
     inkscape:current-layer="Capa_1" />
  <defs
     id="defs4">
    <style
       id="style2">
      .cls-1 {
        fill: #ffa600;
      }

      .cls-2 {
        fill: #15214c;
      }
    </style>
  </defs>
  <g
     id="g34"
     transform="translate(-25.972066,0.01661056)">
    <path
       class="cls-1"
       d="m 188.63,196.28 -14.06,-22.56 c 0,0 -0.07,0.07 -0.11,0.1 l -0.03,-0.05 c -23.39,23.04 -42.56,49.98 -57.06,79.52 -0.03,0.07 -0.07,0.13 -0.1,0.2 -0.47,0.97 -0.96,1.93 -1.42,2.91 l 44.69,44.69 28.09,-104.82 z"
       id="path26" />
    <path
       class="cls-2"
       d="m 521.99,688.85 47.7,-146.8 -124.87,-90.72 c -9.08,-6.6 -4.42,-20.97 6.81,-20.97 h 154.35 l 47.6,-146.49 c -0.57,-1.25 -1.12,-2.51 -1.7,-3.75 0,-0.01 0.01,-0.02 0.02,-0.03 C 580.75,128.15 410.35,54.21 263.86,114.58 c -6.85,2.82 -13.52,5.9 -20.02,9.19 l -9.57,35.72 31.1,-16.58 c 4.59,-2.44 10.28,-0.71 12.73,3.87 l 7.41,13.91 c 2.44,4.59 0.71,10.28 -3.86,12.72 l -59.63,31.79 -28.09,104.84 104.83,-28.1 31.79,-59.63 c 2.43,-4.58 8.14,-6.31 12.71,-3.87 l 13.92,7.42 c 4.58,2.45 6.32,8.14 3.87,12.73 l -16.58,31.1 39.94,-10.7 c 5,-1.35 10.16,1.64 11.51,6.64 l 4.09,15.24 c 1.34,5.01 -1.65,10.17 -6.66,11.51 l -39.94,10.7 29.92,18.65 c 4.41,2.75 5.75,8.54 3,12.96 L 378,348.08 c -2.74,4.4 -8.54,5.75 -12.95,3.01 l -57.35,-35.75 -104.82,28.09 76.73,76.73 67.53,-2.27 c 5.19,-0.17 9.54,3.89 9.71,9.08 l 0.53,15.76 c 0.17,5.19 -3.89,9.54 -9.08,9.71 l -35.23,1.19 29.23,29.23 c 3.67,3.67 3.67,9.62 0,13.3 l -11.15,11.15 c -3.67,3.67 -9.62,3.67 -13.3,0 l -29.23,-29.23 -1.2,35.23 c -0.17,5.19 -4.52,9.26 -9.71,9.08 l -15.76,-0.53 c -5.19,-0.17 -9.26,-4.52 -9.08,-9.71 l 2.28,-67.54 -76.73,-76.73 -28.09,104.82 35.74,57.36 c 2.74,4.4 1.4,10.2 -3.01,12.95 l -13.39,8.33 c -4.4,2.74 -10.2,1.4 -12.95,-3.01 l -18.66,-29.91 -9.9,36.95 c 78.96,135.97 278.8,251.61 389.38,235.75 l 2.85,40.98 c 0.28,4.06 4.56,6.57 8.25,4.84 l 21.52,-10.12 c 3.8,7.63 7.62,15.26 11.57,22.81 5.56,10.63 12.16,21.06 21.45,28.83 19.16,16.03 43.85,19.8 67.86,22.65 22.74,2.7 44.94,6.3 62.15,22.66 15.01,14.27 23.99,33.19 28.16,53.28 3.41,16.42 28.55,9.47 25.14,-6.93 -4.63,-22.31 -14.97,-43.5 -30.45,-60.3 -16.25,-17.63 -37.61,-27.7 -61.05,-31.62 -22.71,-3.8 -48.3,-2.99 -68.68,-15.11 -9.73,-5.78 -15.71,-14.74 -20.96,-24.52 -4.04,-7.52 -7.87,-15.16 -11.66,-22.81 l 17.07,-8.02 c 2.21,-1.04 3.36,-3.2 3.33,-5.35 0,-1.68 -0.73,-3.37 -2.23,-4.55 L 561.22,774 c 34.85,-25.86 67.39,-83.5 89.88,-153.05 L 539.82,701.8 c -9.08,6.6 -21.3,-2.28 -17.83,-12.96 z"
       id="path28" />
    <path
       class="cls-1"
       d="m 145.05,358.94 -59.17,15.85 c -0.13,2.39 -0.23,4.79 -0.31,7.19 -0.02,0.56 -0.03,1.12 -0.05,1.68 -0.05,1.76 -0.09,3.52 -0.11,5.28 0,0.8 -0.01,1.6 -0.02,2.41 0,1.55 0,3.09 0.01,4.64 0,0.88 0.01,1.75 0.03,2.63 0.03,1.56 0.07,3.12 0.12,4.69 0.03,0.82 0.04,1.64 0.07,2.46 0.09,2.17 0.2,4.35 0.33,6.53 0.07,1.21 0.16,2.43 0.25,3.65 0.08,1.07 0.15,2.14 0.24,3.21 0.11,1.35 0.23,2.71 0.36,4.06 0.08,0.9 0.17,1.8 0.26,2.7 0.15,1.46 0.3,2.93 0.47,4.39 0.08,0.68 0.16,1.37 0.25,2.05 0.94,7.77 2.16,15.54 3.66,23.32 0.04,0.23 0.09,0.46 0.13,0.69 0.39,1.97 0.79,3.95 1.21,5.92 0.02,0.1 0.04,0.2 0.06,0.3 0.89,4.15 1.89,8.3 2.95,12.45 l 21.14,-11.27 28.1,-104.83 z"
       id="path30" />
    <path
       class="cls-1"
       d="m 101.81,291.27 c 0,0 -0.03,0.09 -0.05,0.13 l -0.02,-0.02 c -0.24,0.73 -0.47,1.46 -0.71,2.19 -0.15,0.45 -0.29,0.9 -0.44,1.35 -0.61,1.89 -1.19,3.78 -1.76,5.68 -0.1,0.33 -0.2,0.66 -0.3,0.99 -1.37,4.6 -2.63,9.25 -3.79,13.93 -0.02,0.09 -0.04,0.19 -0.07,0.28 -0.55,2.23 -1.07,4.46 -1.57,6.71 -0.05,0.23 -0.1,0.47 -0.16,0.71 -0.5,2.24 -0.97,4.49 -1.42,6.75 -0.02,0.09 -0.04,0.17 -0.05,0.26 -0.5,2.53 -0.98,5.08 -1.42,7.63 h 0.01 c 0,0 0,0.01 0,0.02 l 46.02,-12.33 -34.28,-34.28 z"
       id="path32" />
  </g>
</svg>
