<?xml version="1.0" encoding="UTF-8" standalone="no"?>
<svg
   sodipodi:docname="logo.svg"
   version="1.1"
   viewBox="0 0 1749.2149 962.24291"
   data-name="Capa 1"
   id="Capa_1"
   inkscape:version="1.2.1 (9c6d41e410, 2022-07-14)"
   width="1749.2148"
   height="962.24292"
   xmlns:inkscape="http://www.inkscape.org/namespaces/inkscape"
   xmlns:sodipodi="http://sodipodi.sourceforge.net/DTD/sodipodi-0.dtd"
   xmlns="http://www.w3.org/2000/svg"
   xmlns:svg="http://www.w3.org/2000/svg">
  <sodipodi:namedview
     id="namedview4676"
     pagecolor="#ffffff"
     bordercolor="#000000"
     borderopacity="0.25"
     inkscape:showpageshadow="2"
     inkscape:pageopacity="0.0"
     inkscape:pagecheckerboard="0"
     inkscape:deskcolor="#d1d1d1"
     showgrid="false"
     inkscape:zoom="0.44562459"
     inkscape:cx="841.5155"
     inkscape:cy="361.29065"
     inkscape:window-width="1920"
     inkscape:window-height="1057"
     inkscape:window-x="-8"
     inkscape:window-y="-8"
     inkscape:window-maximized="1"
     inkscape:current-layer="Capa_1" />
  <defs
     id="defs4643">
    <style
       id="style4641">
      .cls-1 {
        fill: #ffa600;
      }

      .cls-2 {
        fill: #15214c;
      }
    </style>
  </defs>
  <path
     class="cls-2"
     d="m 846.26999,605.10554 c -26.58,0 -49.73,-4.94 -69.47,-14.81 -19.75,-9.87 -35.1,-23.7 -46.04,-41.47 -10.96,-17.77 -16.43,-38.5 -16.43,-62.2 v -120.2 c 0,-24.05 5.47,-44.87 16.43,-62.47 10.95,-17.59 26.3,-31.33 46.04,-41.21 19.74,-9.87 42.9,-14.8 69.47,-14.8 26.57,0 49.09,4.94 68.66,14.8 19.56,9.88 34.82,23.61 45.78,41.21 8.68,13.94 13.92,29.92 15.72,47.92 0.78,7.82 -5.59,14.54 -13.44,14.54 h -54.23 c -6.52,0 -12.21,-4.68 -13.22,-11.13 -1.65,-10.44 -5.77,-18.76 -12.37,-24.95 -8.8,-8.26 -21.27,-12.39 -37.43,-12.39 -16.16,0 -28.64,4.13 -37.43,12.39 -8.8,8.26 -13.19,20.29 -13.19,36.08 v 120.2 c 0,15.44 4.39,27.37 13.19,35.81 8.8,8.44 21.27,12.66 37.43,12.66 16.16,0 28.62,-4.21 37.43,-12.66 6.6,-6.33 10.72,-14.62 12.37,-24.89 1.03,-6.41 6.92,-10.92 13.42,-10.92 h 54.02 c 7.86,0 14.24,6.73 13.44,14.55 -1.82,17.73 -7.05,33.61 -15.7,47.64 -10.96,17.77 -26.22,31.6 -45.78,41.47 -19.57,9.87 -42.46,14.81 -68.66,14.81 z"
     id="path4645" />
  <path
     class="cls-2"
     d="m 1049.87,605.10554 c -7.44,0 -13.46,-6.19 -13.46,-13.83 v -58.09 0 -213.31 h -0.17 v -58.09 c 0,-7.64 6.03,-13.83 13.46,-13.83 h 54.03 c 7.44,0 13.46,6.19 13.46,13.83 v 58.09 0 213.31 h 0.09 v 58.09 c 0,7.64 -6.03,13.83 -13.46,13.83 h -53.94 z"
     id="path4647" />
  <path
     class="cls-2"
     d="m 1184.27,591.27554 v -329.49 c 0,-7.64 6.03,-13.83 13.46,-13.83 h 120.63 c 27.64,0 51.78,5.35 72.43,16.04 20.64,10.71 36.62,25.65 47.93,44.82 11.31,19.18 16.96,41.69 16.96,67.5 0,25.81 -5.75,47.86 -17.23,67.23 -11.5,19.36 -27.47,34.39 -47.93,45.09 -20.46,10.7 -44.52,16.05 -72.16,16.05 h -39.85 c -7.44,0 -13.46,6.19 -13.46,13.83 v 72.76 c 0,7.64 -6.03,13.83 -13.46,13.83 h -53.85 c -7.44,0 -13.46,-6.19 -13.46,-13.83 z m 80.79,-175.13 c 0,7.64 6.03,13.83 13.46,13.83 h 39.85 c 17.23,0 30.96,-4.88 41.2,-14.66 10.23,-9.77 15.34,-22.78 15.34,-39.01 0,-16.23 -5.11,-29.23 -15.34,-39.01 -10.24,-9.77 -23.97,-14.66 -41.2,-14.66 h -39.85 c -7.44,0 -13.46,6.19 -13.46,13.83 v 79.67 z"
     id="path4649" />
  <path
     class="cls-2"
     d="m 1618.99,605.10554 c -26.58,0 -49.73,-4.94 -69.47,-14.81 -19.75,-9.87 -35.1,-23.7 -46.04,-41.47 -10.96,-17.77 -16.43,-38.5 -16.43,-62.2 v -120.2 c 0,-24.05 5.47,-44.87 16.43,-62.47 10.95,-17.59 26.3,-31.33 46.04,-41.21 19.74,-9.87 42.9,-14.8 69.47,-14.8 26.57,0 49.09,4.94 68.66,14.8 19.56,9.88 34.82,23.61 45.78,41.21 8.68,13.94 13.92,29.92 15.72,47.92 0.78,7.82 -5.59,14.54 -13.44,14.54 h -54.23 c -6.52,0 -12.21,-4.68 -13.22,-11.13 -1.65,-10.44 -5.77,-18.76 -12.37,-24.95 -8.8,-8.26 -21.27,-12.39 -37.43,-12.39 -16.16,0 -28.64,4.13 -37.43,12.39 -8.8,8.26 -13.19,20.29 -13.19,36.08 v 120.2 c 0,15.44 4.39,27.37 13.19,35.81 8.8,8.44 21.27,12.66 37.43,12.66 16.16,0 28.62,-4.21 37.43,-12.66 6.6,-6.33 10.72,-14.62 12.37,-24.89 1.03,-6.41 6.92,-10.92 13.42,-10.92 h 54.02 c 7.86,0 14.24,6.73 13.44,14.55 -1.82,17.73 -7.05,33.61 -15.7,47.64 -10.96,17.77 -26.22,31.6 -45.78,41.47 -19.57,9.87 -42.46,14.81 -68.66,14.81 z"
     id="path4651" />
  <circle
     class="cls-1"
     cx="1076.7999"
     cy="134.66556"
     r="65.300003"
     id="circle4653" />
  <path
     class="cls-2"
     d="m 778.62999,778.34554 c -6.49,0 -12.42,-1.27 -17.79,-3.83 -5.37,-2.55 -10.02,-6.22 -13.95,-11.01 -3.93,-4.79 -6.96,-10.53 -9.09,-17.22 -2.13,-6.7 -3.19,-14.24 -3.19,-22.65 0,-11.06 1.88,-20.65 5.66,-28.79 3.77,-8.14 9.03,-14.41 15.79,-18.82 6.75,-4.41 14.59,-6.62 23.52,-6.62 6.17,0 11.59,1.28 16.26,3.83 4.68,2.55 8.4,5.48 11.17,8.77 l -4.47,4.79 c -2.76,-3.3 -6.06,-5.91 -9.89,-7.82 -3.82,-1.91 -8.19,-2.87 -13.07,-2.87 -7.66,0 -14.28,1.94 -19.86,5.82 -5.58,3.88 -9.88,9.36 -12.91,16.42 -3.03,7.07 -4.54,15.5 -4.54,25.28 0,9.78 1.51,18.13 4.54,25.36 3.03,7.23 7.3,12.81 12.84,16.75 5.53,3.94 12.06,5.9 19.61,5.9 5.42,0 10.24,-1.09 14.44,-3.27 4.2,-2.18 8.16,-5.4 11.88,-9.65 l 4.31,4.63 c -3.93,4.57 -8.4,8.21 -13.4,10.92 -5.01,2.71 -10.96,4.07 -17.86,4.07 z"
     id="path4655" />
  <path
     class="cls-2"
     d="m 832.85999,776.42554 v -105.1 h 7.5 v 46.09 h 52.63 v -46.09 h 7.49 v 105.1 h -7.49 v -52.63 h -52.63 v 52.63 z"
     id="path4657" />
  <path
     class="cls-2"
     d="m 931.57999,776.42554 v -6.38 h 27.11 v -92.35 h -27.11 v -6.38 h 61.56005 v 6.38 h -27.11005 v 92.35 h 27.11005 v 6.38 z"
     id="path4659" />
  <path
     class="cls-2"
     d="m 1034.14,776.42554 v -105.1 h 7.01 v 98.72 h 55.03 v 6.38 z"
     id="path4661" />
  <path
     class="cls-2"
     d="m 1126.16,776.42554 v -105.1 h 62.21 v 6.38 h -54.87 v 39.72 h 46.25 v 6.38 h -46.25 v 46.25 h 56.46 v 6.38 h -63.8 z"
     id="path4663" />
  <g
     id="g4673"
     transform="translate(-85.39,-24.184456)">
    <path
       class="cls-1"
       d="m 188.63,196.28 -14.06,-22.56 c 0,0 -0.07,0.07 -0.11,0.1 l -0.03,-0.05 c -23.39,23.04 -42.56,49.98 -57.06,79.52 -0.03,0.07 -0.07,0.13 -0.1,0.2 -0.47,0.97 -0.96,1.93 -1.42,2.91 l 44.69,44.69 28.09,-104.82 z"
       id="path4665" />
    <path
       class="cls-2"
       d="m 521.99,688.85 47.7,-146.8 -124.87,-90.72 c -9.08,-6.6 -4.42,-20.97 6.81,-20.97 h 154.35 l 47.6,-146.49 c -0.57,-1.25 -1.12,-2.51 -1.7,-3.75 0,-0.01 0.01,-0.02 0.02,-0.03 C 580.75,128.15 410.35,54.21 263.86,114.58 c -6.85,2.82 -13.52,5.9 -20.02,9.19 l -9.57,35.72 31.1,-16.58 c 4.59,-2.44 10.28,-0.71 12.73,3.87 l 7.41,13.91 c 2.44,4.59 0.71,10.28 -3.86,12.72 l -59.63,31.79 -28.09,104.84 104.83,-28.1 31.79,-59.63 c 2.43,-4.58 8.14,-6.31 12.71,-3.87 l 13.92,7.42 c 4.58,2.45 6.32,8.14 3.87,12.73 l -16.58,31.1 39.94,-10.7 c 5,-1.35 10.16,1.64 11.51,6.64 l 4.09,15.24 c 1.34,5.01 -1.65,10.17 -6.66,11.51 l -39.94,10.7 29.92,18.65 c 4.41,2.75 5.75,8.54 3,12.96 L 378,348.08 c -2.74,4.4 -8.54,5.75 -12.95,3.01 l -57.35,-35.75 -104.82,28.09 76.73,76.73 67.53,-2.27 c 5.19,-0.17 9.54,3.89 9.71,9.08 l 0.53,15.76 c 0.17,5.19 -3.89,9.54 -9.08,9.71 l -35.23,1.19 29.23,29.23 c 3.67,3.67 3.67,9.62 0,13.3 l -11.15,11.15 c -3.67,3.67 -9.62,3.67 -13.3,0 l -29.23,-29.23 -1.2,35.23 c -0.17,5.19 -4.52,9.26 -9.71,9.08 l -15.76,-0.53 c -5.19,-0.17 -9.26,-4.52 -9.08,-9.71 l 2.28,-67.54 -76.73,-76.73 -28.09,104.82 35.74,57.36 c 2.74,4.4 1.4,10.2 -3.01,12.95 l -13.39,8.33 c -4.4,2.74 -10.2,1.4 -12.95,-3.01 l -18.66,-29.91 -9.9,36.95 c 78.96,135.97 278.8,251.61 389.38,235.75 l 2.85,40.98 c 0.28,4.06 4.56,6.57 8.25,4.84 l 21.52,-10.12 c 3.8,7.63 7.62,15.26 11.57,22.81 5.56,10.63 12.16,21.06 21.45,28.83 19.16,16.03 43.85,19.8 67.86,22.65 22.74,2.7 44.94,6.3 62.15,22.66 15.01,14.27 23.99,33.19 28.16,53.28 3.41,16.42 28.55,9.47 25.14,-6.93 -4.63,-22.31 -14.97,-43.5 -30.45,-60.3 -16.25,-17.63 -37.61,-27.7 -61.05,-31.62 -22.71,-3.8 -48.3,-2.99 -68.68,-15.11 -9.73,-5.78 -15.71,-14.74 -20.96,-24.52 -4.04,-7.52 -7.87,-15.16 -11.66,-22.81 l 17.07,-8.02 c 2.21,-1.04 3.36,-3.2 3.33,-5.35 0,-1.68 -0.73,-3.37 -2.23,-4.55 L 561.22,774 c 34.85,-25.86 67.39,-83.5 89.88,-153.05 L 539.82,701.8 c -9.08,6.6 -21.3,-2.28 -17.83,-12.96 z"
       id="path4667" />
    <path
       class="cls-1"
       d="m 145.05,358.94 -59.17,15.85 c -0.13,2.39 -0.23,4.79 -0.31,7.19 -0.02,0.56 -0.03,1.12 -0.05,1.68 -0.05,1.76 -0.09,3.52 -0.11,5.28 0,0.8 -0.01,1.6 -0.02,2.41 0,1.55 0,3.09 0.01,4.64 0,0.88 0.01,1.75 0.03,2.63 0.03,1.56 0.07,3.12 0.12,4.69 0.03,0.82 0.04,1.64 0.07,2.46 0.09,2.17 0.2,4.35 0.33,6.53 0.07,1.21 0.16,2.43 0.25,3.65 0.08,1.07 0.15,2.14 0.24,3.21 0.11,1.35 0.23,2.71 0.36,4.06 0.08,0.9 0.17,1.8 0.26,2.7 0.15,1.46 0.3,2.93 0.47,4.39 0.08,0.68 0.16,1.37 0.25,2.05 0.94,7.77 2.16,15.54 3.66,23.32 0.04,0.23 0.09,0.46 0.13,0.69 0.39,1.97 0.79,3.95 1.21,5.92 0.02,0.1 0.04,0.2 0.06,0.3 0.89,4.15 1.89,8.3 2.95,12.45 l 21.14,-11.27 28.1,-104.83 z"
       id="path4669" />
    <path
       class="cls-1"
       d="m 101.81,291.27 c 0,0 -0.03,0.09 -0.05,0.13 l -0.02,-0.02 c -0.24,0.73 -0.47,1.46 -0.71,2.19 -0.15,0.45 -0.29,0.9 -0.44,1.35 -0.61,1.89 -1.19,3.78 -1.76,5.68 -0.1,0.33 -0.2,0.66 -0.3,0.99 -1.37,4.6 -2.63,9.25 -3.79,13.93 -0.02,0.09 -0.04,0.19 -0.07,0.28 -0.55,2.23 -1.07,4.46 -1.57,6.71 -0.05,0.23 -0.1,0.47 -0.16,0.71 -0.5,2.24 -0.97,4.49 -1.42,6.75 -0.02,0.09 -0.04,0.17 -0.05,0.26 -0.5,2.53 -0.98,5.08 -1.42,7.63 h 0.01 c 0,0 0,0.01 0,0.02 l 46.02,-12.33 -34.28,-34.28 z"
       id="path4671" />
  </g>
</svg>
