<?xml version="1.0" encoding="UTF-8" standalone="no"?>
<svg
   id="Capa_1"
   data-name="Capa 1"
   viewBox="0 0 970 1080"
   version="1.1"
   sodipodi:docname="logo-small-negative.svg"
   width="970"
   height="1080"
   inkscape:version="1.4.2 (ebf0e940d0, 2025-05-08)"
   xmlns:inkscape="http://www.inkscape.org/namespaces/inkscape"
   xmlns:sodipodi="http://sodipodi.sourceforge.net/DTD/sodipodi-0.dtd"
   xmlns="http://www.w3.org/2000/svg"
   xmlns:svg="http://www.w3.org/2000/svg">
  <sodipodi:namedview
     id="namedview49"
     pagecolor="#ffffff"
     bordercolor="#000000"
     borderopacity="0.25"
     inkscape:showpageshadow="2"
     inkscape:pageopacity="0.0"
     inkscape:pagecheckerboard="0"
     inkscape:deskcolor="#d1d1d1"
     inkscape:zoom="0.36386536"
     inkscape:cx="431.47828"
     inkscape:cy="603.24511"
     inkscape:window-width="1920"
     inkscape:window-height="1080"
     inkscape:window-x="0"
     inkscape:window-y="0"
     inkscape:window-maximized="1"
     inkscape:current-layer="Capa_1" />
  <defs
     id="defs1">
    <style
       id="style1">
      .cls-1 {
        fill: #fff;
      }
    </style>
  </defs>
  <g
     id="g49">
    <path
       class="cls-1"
       d="m 465.68,149.65 v 347.51 l -34.07,-19.5 -8.54,-19.67 -15.55,-5.18 -22.68,7.82 -16.14,-22.47 -13.6,-8.03 -13.17,7.56 -33.26,36.54 c -0.38,-11.56 -2.89,-24.09 -9.39,-36.37 -3.48,-6.58 -7.9,-12.62 -13.08,-18.06 l 0.38,-0.17 16.99,-8.5 c 3.14,-1.53 2.93,-6.12 -0.38,-7.31 l -18.44,-6.84 c 10.24,-15.89 27.19,-47.07 29.7,-89.13 1.4,-23.66 4.97,-82.97 -39.64,-120.14 -28.85,-24.05 -78.3,-39.08 -121.67,-15.93 -44.82,23.92 -58.45,75.36 -54.12,112.58 5.78,49.15 43.33,77.45 60.88,90.66 39.55,29.78 81.27,34.33 98.77,35.18 -1.83,6.16 -3.7,12.32 -5.57,18.48 -1.02,3.36 2.46,6.29 5.61,4.76 l 16.14,-8.03 c 5.65,5.35 10.28,11.43 13.81,18.06 5.52,10.45 7.73,21.2 8.03,31.14 l -22.73,-18.9 -26.3,-9.81 -22.13,-11.34 -43.12,6.41 -42.06,31.4 -61.98,36.83 c -1.78,-3.31 -2.8,-7.18 -2.8,-11.26 V 149.65 c 0,-9.9 7.99,-17.93 17.93,-17.93 h 232.46 c 2.08,10.11 5.61,19.71 8.71,28.25 7.39,20.31 18.14,34.88 25.79,43.8 -2.97,2.51 -5.91,5.01 -8.92,7.48 -1.62,1.36 -0.81,3.95 1.27,4.21 l 8.5,1.06 0.72,0.09 c -1.36,7.22 -1.61,14.4 -0.81,21.45 1.32,10.92 4.67,17.25 7.6,22.86 2.72,5.1 4.84,9.13 5.1,16.36 0.34,8.41 -2.17,13.51 -5.27,19.97 -3.31,6.75 -7.01,14.4 -7.6,26.64 -0.55,11.43 1.83,23.03 7.14,34.41 1.02,2.17 3.19,3.44 5.44,3.44 0.89,0 1.7,-0.17 2.55,-0.55 3.02,-1.36 4.29,-4.97 2.89,-7.99 -4.42,-9.6 -6.5,-19.29 -5.99,-28.76 0.43,-9.73 3.31,-15.68 6.37,-21.96 3.4,-7.01 6.92,-14.23 6.5,-25.66 -0.38,-9.94 -3.48,-15.85 -6.5,-21.5 -2.68,-5.14 -5.27,-9.94 -6.24,-18.65 -0.77,-6.08 -0.47,-12.28 0.76,-18.65 l 0.77,0.09 8.03,0.98 c 2.04,0.26 3.48,-2.08 2.21,-3.78 l -7.01,-9.56 c 9.98,-6.25 28.08,-19.54 40.83,-43.04 4,-7.35 9.9,-18.27 12.96,-30.97 h 16.02 c 9.9,0 17.93,8.03 17.93,17.93 z"
       id="path33" />
    <g
       id="g35">
      <path
         class="cls-1"
         d="M 869.56,557.99 H 527.19 c -0.43,0 -0.85,0 -1.23,0.04 h 344.83 c -0.38,-0.04 -0.81,-0.04 -1.23,-0.04 z m 23.88,22.69 v 344.83 c 0.08,-0.38 0.08,-0.81 0.08,-1.23 V 581.91 c 0,-0.42 0,-0.85 -0.08,-1.23 z"
         id="path34" />
      <path
         class="cls-1"
         d="M 875.42,558.03 H 521.29 c -9.94,0 -18.01,8.11 -18.01,18.06 v 354.13 c 0,9.94 8.07,18.01 18.01,18.01 h 22.86 l 39.13,-40.1 83.69,-33.94 28.29,-29.4 56.54,33.94 53.78,60.54 13,-1.7 15.63,10.66 h 41.21 c 9.98,0 18.01,-8.07 18.01,-18.01 V 576.09 c 0,-9.94 -8.03,-18.06 -18.01,-18.06 z M 642.58,803.84 c -13.68,-0.81 -27.27,-1.7 -40.7,-2.76 -1.19,-0.13 -2.25,0.68 -2.51,1.83 -3.74,15.34 -6.54,31.05 -8.28,46.99 -0.3,2.46 -3.57,2.97 -4.63,0.76 -7.48,-16.4 -13.13,-33.39 -16.91,-50.72 -0.21,-1.02 -1.06,-1.78 -2.12,-1.87 -13.89,-1.36 -27.66,-2.85 -41.25,-4.42 -2.12,-0.25 -2.89,-2.93 -1.23,-4.29 12.83,-10.37 25.57,-20.09 38.23,-29.23 0.64,-0.47 1.02,-1.23 0.98,-2.04 -0.72,-17.76 0.51,-35.64 3.74,-53.32 0.47,-2.38 3.78,-2.68 4.63,-0.38 4.33,11.85 10.07,23.41 16.91,34.58 0.72,1.15 2.25,1.44 3.4,0.72 11,-7.26 21.84,-14.06 32.46,-20.43 2.08,-1.23 4.46,0.98 3.4,3.14 -6.84,13.85 -12.96,28.25 -18.23,43.12 -0.3,0.85 -0.13,1.74 0.47,2.42 9.77,11.17 20.94,21.79 33.26,31.61 1.87,1.44 0.72,4.42 -1.62,4.29 z m 45.63,-151.75 c -10.45,-2.55 -21.03,-5.99 -31.65,-10.41 -0.51,-0.25 -1.06,-0.17 -1.53,0.17 -9.09,6.5 -18.23,12.36 -27.32,17.55 -1.23,0.72 -2.72,-0.42 -2.29,-1.83 2.46,-8.58 4.93,-17.25 7.39,-25.96 0.21,-0.68 -0.09,-1.44 -0.72,-1.83 -9.86,-5.44 -19.59,-11.73 -29.14,-18.82 -1.36,-0.98 -0.38,-3.14 1.23,-2.8 10.96,2 22.05,3.02 33.22,2.97 0.76,0 1.36,-0.47 1.57,-1.15 2.46,-8.84 4.97,-17.63 7.43,-26.55 0.38,-1.36 2.21,-1.61 2.93,-0.34 4.84,8.58 9.77,16.95 14.61,25.11 0.34,0.55 0.98,0.89 1.66,0.76 11.26,-1.74 22.47,-4.5 33.43,-8.24 1.61,-0.55 2.89,1.44 1.66,2.63 -8.07,7.94 -16.27,15.34 -24.56,22.18 -0.59,0.51 -0.72,1.4 -0.3,2.08 4.71,7.56 9.43,14.87 14.1,22.01 0.81,1.23 -0.34,2.76 -1.74,2.46 z m 181.14,134.24 c -19.88,2.25 -40.02,4.38 -60.45,6.37 -1.66,0.13 -3.06,1.4 -3.36,3.06 -4.67,23.41 -11.21,46.6 -19.54,69.37 -1.32,3.53 -6.42,3.27 -7.35,-0.34 -5.69,-21.84 -11.81,-43.37 -18.27,-64.53 -0.51,-1.74 -2.17,-2.89 -4.03,-2.72 -20.09,1.78 -40.4,3.4 -60.92,4.93 -3.82,0.3 -5.69,-4.59 -2.63,-6.92 18.27,-14.06 34.92,-28.8 49.79,-44.01 0.98,-1.02 1.36,-2.59 0.85,-3.95 -6.93,-20.52 -14.15,-40.7 -21.62,-60.54 -1.36,-3.48 2.63,-6.63 5.78,-4.5 14.1,9.56 28.76,19.46 44.05,29.78 1.74,1.1 4.03,0.72 5.27,-0.89 10.96,-14.78 20.39,-29.95 28.25,-45.33 1.74,-3.4 6.92,-2.46 7.26,1.4 2.12,23.45 2.38,46.99 0.81,70.39 -0.09,1.4 0.55,2.72 1.66,3.44 18.1,12.15 36.83,24.81 56.2,37.94 2.97,2 1.83,6.63 -1.74,7.05 z"
         id="path35" />
    </g>
    <g
       id="g46">
      <path
         class="cls-1"
         d="m 165.5,679.07 c -0.94,-0.93 -2.25,-1.36 -3.82,-1.36 -1.66,0 -2.93,0.43 -3.87,1.36 -0.89,0.93 -1.36,2.42 -1.36,4.46 v 15.42 c 0,2.04 0.47,3.48 1.36,4.42 0.93,0.93 2.21,1.4 3.87,1.4 1.57,0 2.89,-0.47 3.82,-1.4 0.93,-0.93 1.36,-2.38 1.36,-4.42 v -15.42 c 0,-2.04 -0.43,-3.53 -1.36,-4.46 z"
         id="path36" />
      <path
         class="cls-1"
         d="m 182.96,658.33 h -42.57 c -4.42,0 -7.99,3.57 -7.99,7.99 v 48.52 c 0,4.42 3.57,7.99 7.99,7.99 h 42.57 c 4.38,0 7.94,-3.57 7.94,-7.99 v -48.52 c 0,-4.42 -3.57,-7.99 -7.94,-7.99 z m -6.97,40.62 c 0,3.31 -0.64,6.03 -1.91,8.03 -1.23,2.04 -2.97,3.48 -5.14,4.38 -2.21,0.89 -4.63,1.32 -7.26,1.32 -2.63,0 -5.1,-0.42 -7.26,-1.32 -2.17,-0.89 -3.87,-2.34 -5.14,-4.38 -1.23,-2 -1.87,-4.72 -1.87,-8.03 v -15.42 c 0,-3.36 0.64,-6.03 1.87,-8.03 1.27,-2 2.97,-3.48 5.14,-4.38 2.17,-0.89 4.59,-1.36 7.26,-1.36 2.67,0 5.06,0.47 7.26,1.36 2.17,0.89 3.91,2.38 5.14,4.38 1.27,2 1.91,4.67 1.91,8.03 z"
         id="path37" />
      <path
         class="cls-1"
         d="m 256.75,658.33 h -42.57 c -4.42,0 -7.99,3.57 -7.99,7.99 v 48.52 c 0,4.42 3.57,7.99 7.99,7.99 h 42.57 c 4.42,0 7.99,-3.57 7.99,-7.99 v -48.52 c 0,-4.42 -3.57,-7.99 -7.99,-7.99 z m -15.29,51.2 c 0,0.93 -0.51,1.61 -1.44,2.12 -0.94,0.42 -2,0.68 -3.1,0.68 -1.1,0 -2.17,-0.26 -3.1,-0.68 -0.98,-0.51 -1.45,-1.19 -1.45,-2.12 v -29.61 l -1.66,1.02 c -0.3,0.17 -0.55,0.3 -0.81,0.38 -0.25,0.04 -0.51,0.09 -0.68,0.09 -0.85,0 -1.53,-0.34 -2.08,-1.1 -0.51,-0.76 -0.76,-1.61 -0.76,-2.46 0,-0.64 0.13,-1.23 0.43,-1.78 0.25,-0.55 0.68,-0.98 1.23,-1.32 l 7.73,-4.67 c 0.21,-0.17 0.47,-0.25 0.76,-0.3 0.3,-0.09 0.6,-0.09 0.94,-0.09 0.89,0 1.78,0.21 2.68,0.76 0.89,0.51 1.32,1.19 1.32,2.08 v 37 z"
         id="path38" />
      <path
         class="cls-1"
         d="m 328.5,871.09 -0.47,0.51 c 0.04,-0.17 0.09,-0.38 0.17,-0.51 z"
         id="path39" />
      <path
         class="cls-1"
         d="m 313.04,679.07 c -0.94,-0.93 -2.21,-1.36 -3.87,-1.36 -1.66,0 -2.89,0.43 -3.78,1.36 -0.89,0.93 -1.4,2.42 -1.4,4.46 v 15.42 c 0,2.04 0.51,3.48 1.4,4.42 0.89,0.93 2.21,1.4 3.78,1.4 1.66,0 2.93,-0.47 3.87,-1.4 0.93,-0.93 1.4,-2.38 1.4,-4.42 v -15.42 c 0,-2.04 -0.47,-3.53 -1.4,-4.46 z m -1.66,14.31 c -0.51,0.59 -1.23,0.85 -2.12,0.85 -0.94,0 -1.66,-0.26 -2.21,-0.85 -0.51,-0.55 -0.76,-1.27 -0.76,-2.21 0,-0.81 0.25,-1.53 0.76,-2.04 0.55,-0.51 1.27,-0.76 2.21,-0.76 0.94,0 1.61,0.26 2.12,0.76 0.51,0.51 0.81,1.23 0.81,2.04 0,0.93 -0.3,1.66 -0.81,2.21 z"
         id="path40" />
      <path
         class="cls-1"
         d="m 330.5,658.33 h -42.57 c -4.37,0 -7.94,3.57 -7.94,7.99 v 48.52 c 0,4.42 3.57,7.99 7.94,7.99 h 42.57 c 4.42,0 7.99,-3.57 7.99,-7.99 v -48.52 c 0,-4.42 -3.57,-7.99 -7.99,-7.99 z m -6.97,40.62 c 0,3.31 -0.64,6.03 -1.91,8.03 -1.28,2.04 -2.97,3.48 -5.14,4.38 -2.17,0.89 -4.59,1.32 -7.31,1.32 -2.72,0 -5.06,-0.42 -7.22,-1.32 -2.17,-0.89 -3.86,-2.34 -5.14,-4.38 -1.23,-2 -1.87,-4.72 -1.87,-8.03 v -15.42 c 0,-3.36 0.64,-6.03 1.87,-8.03 1.28,-2 2.97,-3.48 5.14,-4.38 2.17,-0.89 4.59,-1.36 7.22,-1.36 2.63,0 5.14,0.47 7.31,1.36 2.17,0.89 3.86,2.38 5.14,4.38 1.27,2 1.91,4.67 1.91,8.03 z"
         id="path41" />
      <path
         class="cls-1"
         d="m 377.15,791.39 -61.81,65.68 v -61.68 c 0,-2.21 1.83,-3.99 3.99,-3.99 h 57.82 z"
         id="path42" />
      <path
         class="cls-1"
         d="m 390.27,805.37 v 61.68 c 0,2.25 -1.78,4.04 -3.99,4.04 H 328.5 l 14.32,-15.29 4.46,-4.72 z"
         id="path43" />
      <path
         class="cls-1"
         d="m 404.29,658.33 h -42.57 c -4.38,0 -7.99,3.57 -7.99,7.99 v 48.52 c 0,4.42 3.61,7.99 7.99,7.99 h 42.57 c 4.42,0 7.99,-3.57 7.99,-7.99 v -48.52 c 0,-4.42 -3.57,-7.99 -7.99,-7.99 z M 389,709.53 c 0,0.93 -0.47,1.61 -1.44,2.12 -0.94,0.42 -1.95,0.68 -3.06,0.68 -1.11,0 -2.21,-0.26 -3.14,-0.68 -0.98,-0.51 -1.4,-1.19 -1.4,-2.12 v -29.61 l -1.74,1.02 c -0.26,0.17 -0.51,0.3 -0.76,0.38 -0.26,0.04 -0.47,0.09 -0.68,0.09 -0.81,0 -1.53,-0.34 -2.04,-1.1 -0.51,-0.76 -0.77,-1.61 -0.77,-2.46 0,-0.64 0.13,-1.23 0.38,-1.78 0.26,-0.55 0.68,-0.98 1.28,-1.32 l 7.65,-4.67 c 0.3,-0.17 0.55,-0.25 0.81,-0.3 0.3,-0.09 0.6,-0.09 0.94,-0.09 0.94,0 1.83,0.21 2.68,0.76 0.89,0.51 1.32,1.19 1.32,2.08 v 37 z"
         id="path44" />
      <path
         class="cls-1"
         d="M 441.85,558.76 H 99.44 c -13.21,0 -23.92,10.71 -23.92,23.92 V 857.5 c 0,11.39 7.99,21.16 19.12,23.45 l 316.03,64.87 c 5.14,1.06 10.32,1.87 15.51,2.38 5.23,0.55 10.45,0.81 15.68,0.81 13.21,0 23.92,-10.71 23.92,-23.96 V 582.68 c 0,-13.21 -10.71,-23.92 -23.92,-23.92 z m -12.92,78.72 v 141.93 c 0,6.63 -5.35,11.98 -11.94,11.98 h -11.26 v 84.8 c 0,4.42 -3.57,7.94 -7.99,7.94 h -17.67 c -2.97,11.81 -13.64,20.52 -26.34,20.52 -12.7,0 -23.37,-8.71 -26.34,-20.52 h -19.5 c -4.42,0 -7.99,-3.53 -7.99,-7.94 v -84.8 h -87.98 v 40.15 c 0,4.38 -3.57,7.94 -7.99,7.94 h -2.76 c 0,15.04 -12.15,27.19 -27.15,27.19 -15,0 -27.15,-12.15 -27.15,-27.19 h -2.21 c -4.42,0 -7.94,-3.57 -7.94,-7.94 v -40.15 h -9.05 c -6.63,0 -11.94,-5.35 -11.94,-11.98 V 637.48 h -15.59 c 0,-15.55 12.58,-28.12 28.12,-28.12 h 284.72 c 7.77,0 14.83,3.1 19.92,8.24 5.1,5.1 8.24,12.11 8.24,19.88 H 428.9 Z"
         id="path45" />
      <path
         class="cls-1"
         d="m 328.5,871.09 -0.47,0.51 c 0.04,-0.17 0.09,-0.38 0.17,-0.51 z"
         id="path46" />
    </g>
    <g
       id="g48">
      <path
         class="cls-1"
         d="m 806.65,342.05 -20.01,-66.23 c -2.04,-6.71 -8.24,-11.3 -15.25,-11.3 h -143.5 c -7.01,0 -13.21,4.59 -15.25,11.3 l -20.01,66.23 c -3.1,10.24 4.54,20.52 15.21,20.52 h 183.61 c 10.66,0 18.31,-10.28 15.21,-20.52 z m -154.73,-8.32 c 1.15,0.68 1.7,1.91 1.7,3.7 0,2 -0.68,3.61 -2.12,4.97 -1.44,1.32 -2.89,2 -4.33,2 -0.85,0 -1.44,-0.13 -1.83,-0.47 l -24.26,-15.76 c -1.1,-0.68 -1.83,-1.57 -2.29,-2.55 -0.42,-1.06 -0.68,-2 -0.68,-2.8 0,-0.8 0.26,-1.74 0.68,-2.76 0.47,-1.02 1.19,-1.87 2.29,-2.59 l 24.26,-15.76 c 0.38,-0.3 0.98,-0.47 1.83,-0.47 1.44,0 2.89,0.68 4.33,2 1.44,1.36 2.12,2.97 2.12,4.97 0,1.78 -0.55,3.02 -1.7,3.74 l -16.82,10.88 16.82,10.92 z m 69.12,-51.32 -33.6,68.91 c -0.3,0.64 -0.85,1.23 -1.7,1.7 -0.85,0.43 -1.7,0.68 -2.59,0.68 -1.57,0 -2.89,-0.55 -3.87,-1.66 -0.98,-1.1 -1.49,-2.21 -1.49,-3.44 0,-0.55 0.17,-1.15 0.47,-1.83 l 33.56,-68.86 c 0.76,-1.57 2.08,-2.38 3.99,-2.38 1.36,0 2.59,0.47 3.82,1.4 1.23,0.93 1.78,2.12 1.78,3.7 0,0.68 -0.13,1.27 -0.38,1.78 z m 59.44,43.2 c -0.43,0.98 -1.19,1.87 -2.29,2.55 l -24.26,15.76 c -0.38,0.34 -0.98,0.47 -1.78,0.47 -1.44,0 -2.89,-0.68 -4.33,-2 -1.44,-1.36 -2.17,-2.97 -2.17,-4.97 0,-1.78 0.55,-3.02 1.7,-3.7 l 16.82,-10.92 -16.82,-10.88 c -1.15,-0.72 -1.7,-1.95 -1.7,-3.74 0,-2 0.72,-3.61 2.17,-4.97 1.44,-1.32 2.89,-2 4.33,-2 0.81,0 1.4,0.17 1.78,0.47 l 24.26,15.76 c 1.11,0.72 1.87,1.57 2.29,2.59 0.43,1.02 0.68,1.95 0.68,2.76 0,0.81 -0.26,1.74 -0.68,2.8 z"
         id="path47" />
      <path
         class="cls-1"
         d="m 893.52,222.51 v 274.82 c 0,13.21 -10.7,23.92 -23.92,23.92 H 527.23 c -13.21,0 -23.96,-10.71 -23.96,-23.92 V 154.96 c 0,-13.25 10.75,-23.96 23.96,-23.96 4.33,0 8.71,0.21 13.04,0.68 4.38,0.42 8.67,1.06 12.96,1.95 l 158.88,32.37 -13.43,13.42 -10.11,10.11 c -2.21,2.21 -3.44,5.23 -3.44,8.41 v 24.55 h -37.55 c -4.63,0 -8.84,1.87 -11.85,4.89 -3.02,3.02 -4.93,7.22 -4.93,11.85 h -22.51 c -7.01,0 -13.21,4.59 -15.25,11.34 l -31.1,102.81 c -1.32,4.5 -1.32,9.3 0,13.81 L 593.04,470 c 2.04,6.71 8.24,11.34 15.25,11.34 h 182.67 c 7.01,0 13.21,-4.63 15.25,-11.34 l 31.1,-102.81 c 1.36,-4.5 1.36,-9.3 0,-13.81 l -31.1,-102.81 c -2.04,-6.75 -8.24,-11.34 -15.25,-11.34 h -22.51 c 0,-9.26 -7.48,-16.74 -16.74,-16.74 h -42.74 v -14.66 c 0,-3.14 1.27,-6.2 3.52,-8.45 l 14.27,-14.27 13.38,-13.42 0.42,0.13 133.82,27.27 c 11.13,2.25 19.12,12.06 19.12,23.41 z"
         id="path48" />
    </g>
  </g>
</svg>
