<?xml version="1.0" encoding="UTF-8"?>
<svg id="Capa_1" data-name="Capa 1" xmlns="http://www.w3.org/2000/svg" viewBox="0 0 1920 1080">
  <defs>
    <style>
      .cls-1 {
        fill: #fff;
      }

      .cls-2 {
        fill: #5f9931;
      }

      .cls-3 {
        fill: #2a5ca8;
      }

      .cls-4 {
        fill: #f9af15;
      }

      .cls-5 {
        fill: #cc4015;
      }
    </style>
  </defs>
  <path class="cls-1" d="M984.91,297.03c7.86,7.29,17.2,10.94,28.05,10.94s20.57-3.65,28.05-10.94c7.48-7.29,11.22-15.43,11.22-24.41,0-9.72-3.74-18.04-11.22-24.97-7.49-6.92-16.83-10.38-28.05-10.38s-20.2,3.46-28.05,10.38c-7.85,6.93-11.78,15.24-11.78,24.97,0,8.98,3.93,17.11,11.78,24.41Z"/>
  <path class="cls-1" d="M1049.43,585.64v-220.49c0-6.73-3.56-12.15-10.66-16.27-7.11-4.11-15.71-6.17-25.81-6.17s-19.07,2.06-25.81,6.17c-6.73,4.12-10.1,9.54-10.1,16.27v220.49c0,5.99,3.37,11.41,10.1,16.27,6.73,4.86,15.33,7.29,25.81,7.29s18.7-2.43,25.81-7.29c7.1-4.86,10.66-10.28,10.66-16.27Z"/>
  <path class="cls-1" d="M1148.17,599.1c17.95,10.1,41.14,15.15,69.57,15.15,17.58,0,33.38-2.24,47.41-6.73,14.03-4.49,25.05-10.28,33.1-17.39,8.04-7.1,12.06-14.39,12.06-21.88,0-4.49-1.22-9.44-3.65-14.87-2.44-5.42-5.99-10-10.66-13.74-4.68-3.74-10.38-5.61-17.11-5.61-4.49,0-8.89,1.32-13.18,3.93-4.3,2.62-9.63,5.43-15.99,8.42-6.37,3-15.34,4.49-26.93,4.49-19.45,0-33.48-4.58-42.08-13.75-8.61-9.16-12.9-21.78-12.9-37.87v-44.88c0-16.08,4.3-28.7,12.9-37.87,8.6-9.16,22.44-13.75,41.52-13.75,11.22,0,20.2,1.32,26.93,3.93,6.73,2.62,12.25,5.24,16.55,7.85,4.3,2.62,8.5,3.93,12.62,3.93,5.61,0,10.56-2.05,14.87-6.17,4.3-4.11,7.66-8.88,10.1-14.31,2.43-5.42,3.65-10.38,3.65-14.87,0-7.48-3.93-14.59-11.78-21.32-7.85-6.73-18.51-12.15-31.98-16.27-13.46-4.11-28.99-6.17-46.57-6.17-27.68,0-50.59,5.05-68.73,15.15-18.15,10.1-31.42,23.84-39.83,41.24-8.42,17.39-12.62,36.94-12.62,58.63v44.88c0,21.7,4.3,41.24,12.9,58.63,8.6,17.39,21.88,31.14,39.83,41.24Z"/>
  <path class="cls-1" d="M1543.42,354.77c-15.15-10.28-32.26-15.43-51.33-15.43-17.95,0-33.48,4.4-46.57,13.18-13.1,8.79-22.82,18.61-29.17,29.45v-16.83c0-6.73-3.09-12.15-9.26-16.27-6.17-4.11-14.12-6.17-23.84-6.17s-17.95,2.06-24.69,6.17c-6.73,4.12-10.1,9.54-10.1,16.27v307.24c0,5.61,3.37,10.84,10.1,15.71,6.73,4.86,15.15,7.29,25.25,7.29s19.26-2.44,26.37-7.29c7.1-4.86,10.66-10.1,10.66-15.71v-102.46c5.61,11.6,15.15,21.88,28.61,30.86,13.46,8.98,28.42,13.47,44.88,13.47,17.95,0,34.31-5.42,49.09-16.27,14.77-10.84,26.65-25.05,35.63-42.64,8.98-17.58,13.46-36.27,13.46-56.1v-46c0-20.94-4.4-40.02-13.18-57.23-8.79-17.2-20.76-30.94-35.91-41.24ZM1520.14,499.24c0,8.61-2.34,16.83-7.01,24.69-4.68,7.85-10.66,14.31-17.95,19.36-7.29,5.05-15.43,7.57-24.4,7.57-9.73,0-18.33-2.71-25.81-8.14-7.49-5.42-13.38-11.4-17.67-17.95-4.3-6.54-6.45-11.69-6.45-15.43v-56.1c0-10.47,2.43-19.44,7.29-26.93,4.86-7.48,10.94-13.27,18.23-17.39,7.29-4.11,15.05-6.17,23.28-6.17,9.34,0,17.86,2.52,25.53,7.57,7.66,5.05,13.75,11.32,18.23,18.79,4.49,7.49,6.73,15.53,6.73,24.12v46Z"/>
  <path class="cls-1" d="M1682.27,599.1c17.95,10.1,41.14,15.15,69.57,15.15,17.57,0,33.38-2.24,47.41-6.73,14.03-4.49,25.05-10.28,33.1-17.39,8.04-7.1,12.06-14.39,12.06-21.88,0-4.49-1.22-9.44-3.65-14.87-2.44-5.42-5.99-10-10.66-13.74-4.68-3.74-10.38-5.61-17.11-5.61-4.49,0-8.89,1.32-13.18,3.93-4.3,2.62-9.63,5.43-15.99,8.42-6.36,3-15.34,4.49-26.93,4.49-19.45,0-33.48-4.58-42.08-13.75-8.61-9.16-12.9-21.78-12.9-37.87v-44.88c0-16.08,4.3-28.7,12.9-37.87,8.6-9.16,22.44-13.75,41.52-13.75,11.22,0,20.2,1.32,26.93,3.93,6.73,2.62,12.25,5.24,16.55,7.85,4.3,2.62,8.5,3.93,12.62,3.93,5.61,0,10.56-2.05,14.87-6.17,4.3-4.11,7.66-8.88,10.1-14.31,2.43-5.42,3.65-10.38,3.65-14.87,0-7.48-3.93-14.59-11.78-21.32-7.86-6.73-18.51-12.15-31.98-16.27-13.46-4.11-28.99-6.17-46.56-6.17-27.68,0-50.59,5.05-68.73,15.15-18.15,10.1-31.42,23.84-39.83,41.24-8.41,17.39-12.62,36.94-12.62,58.63v44.88c0,21.7,4.3,41.24,12.9,58.63,8.6,17.39,21.88,31.14,39.83,41.24Z"/>
  <polygon class="cls-1" points="982.3 724.13 982.3 790.84 1021.85 790.84 1021.85 783.5 990.4 783.5 990.4 724.13 982.3 724.13"/>
  <path class="cls-1" d="M1038.72,743.33c-2.29.86-4.29,2.1-6,3.72-1.72,1.62-3.18,3.54-4.38,5.77l6.86,2.67c1.21-2.29,2.75-3.95,4.62-5,1.87-1.05,4.11-1.57,6.72-1.57,2.86,0,5.18.64,6.96,1.91,1.78,1.27,3.08,3.13,3.91,5.57.57,1.7.94,3.72,1.12,6.05h-13.32c-5.78,0-10.28,1.29-13.48,3.86-3.21,2.57-4.81,6.27-4.81,11.1,0,4.57,1.57,8.15,4.72,10.72,3.14,2.57,7.51,3.86,13.1,3.86s9.85-1.92,12.77-5.77c.44-.58.84-1.2,1.21-1.84l.32,6.46h7.05l.1-25.83c.06-5.02-.64-9.23-2.1-12.63-1.46-3.4-3.64-5.97-6.53-7.72-2.89-1.75-6.56-2.62-11.01-2.62-2.92,0-5.53.43-7.81,1.29ZM1056.97,778.5c-1.11,2.19-2.68,3.88-4.72,5.05-2.03,1.18-4.42,1.76-7.15,1.76-3.3,0-5.88-.72-7.72-2.14-1.84-1.43-2.76-3.38-2.76-5.86,0-2.73.94-4.83,2.81-6.29,1.87-1.46,5.03-2.19,9.48-2.19h11.72v1.91c0,2.99-.56,5.57-1.67,7.77Z"/>
  <path class="cls-1" d="M1081.6,778.16c0,4.38,1.27,7.78,3.81,10.2,2.54,2.42,6.13,3.62,10.77,3.62,1.4,0,2.76-.21,4.1-.62,1.33-.41,2.83-1.16,4.48-2.24l-2.95-6.19c-1.21.89-2.18,1.45-2.91,1.67-.73.22-1.48.33-2.24.33-2.35,0-4.18-.65-5.48-1.95-1.3-1.3-1.95-3.16-1.95-5.57v-27.45h14.29v-6.77h-14.29v-14.87h-7.62v14.87h-8.29v6.77h8.29v28.21Z"/>
  <rect class="cls-1" x="1114.76" y="743.19" width="7.62" height="47.65"/>
  <path class="cls-1" d="M1122.05,723.99c-.92-.92-2.05-1.38-3.38-1.38s-2.38.46-3.34,1.38c-.95.92-1.43,2.05-1.43,3.38s.48,2.38,1.43,3.34c.95.95,2.06,1.43,3.34,1.43s2.46-.48,3.38-1.43c.92-.95,1.38-2.06,1.38-3.34,0-1.33-.46-2.46-1.38-3.38Z"/>
  <path class="cls-1" d="M1168.75,744.28c-2.76-1.49-6.02-2.24-9.77-2.24-3.94,0-7.31.95-10.1,2.86-1.99,1.36-3.64,3.16-4.95,5.39l-.39-7.1h-7.15v47.65h7.62v-24.68c0-5.4,1.16-9.58,3.48-12.53,2.32-2.95,5.57-4.43,9.77-4.43,2.41,0,4.57.46,6.48,1.38,1.91.92,3.4,2.62,4.48,5.1,1.08,2.48,1.62,6.07,1.62,10.77v24.4h7.62v-26.68c.06-5.27-.68-9.53-2.24-12.77-1.56-3.24-3.72-5.61-6.48-7.1Z"/>
  <path class="cls-1" d="M1242.65,724.13h-8.2l-27.16,66.71h8.58l7.61-18.96h30.42l7.61,18.96h8.48l-27.16-66.71h-.19ZM1226.39,764.63l12.3-30.65,12.3,30.65h-24.61Z"/>
  <path class="cls-1" d="M1298.78,742.04c-3.05,0-5.72.67-8.01,2-2.29,1.33-4.16,3.27-5.62,5.81l-.38-6.67h-7.15v47.65h7.62v-24.68c0-5.4,1.05-9.58,3.14-12.53,2.1-2.95,4.99-4.43,8.67-4.43,2.16,0,4.08.46,5.77,1.38,1.68.92,3.02,2.62,4,5.1.98,2.48,1.48,6.07,1.48,10.77v24.4h7.62v-24.68c0-5.4,1.05-9.58,3.14-12.53,2.1-2.95,5.02-4.43,8.77-4.43,2.16,0,4.07.46,5.72,1.38,1.65.92,2.97,2.62,3.95,5.1.98,2.48,1.48,6.07,1.48,10.77v24.4h7.62v-27.25c.06-7.24-1.45-12.64-4.53-16.2-3.08-3.56-7.29-5.34-12.63-5.34-3.56,0-6.62.92-9.2,2.76-2.57,1.84-4.53,4.51-5.86,8.01-1.21-3.62-3.16-6.32-5.86-8.1-2.7-1.78-5.96-2.67-9.77-2.67Z"/>
  <path class="cls-1" d="M1390.93,745.33c-3.24-2.19-7.08-3.29-11.53-3.29s-8.62,1.06-12.15,3.19c-3.53,2.13-6.29,5.07-8.29,8.81-2,3.75-3,8.07-3,12.96s1,9.21,3,12.96c2,3.75,4.78,6.69,8.34,8.81,3.56,2.13,7.66,3.19,12.29,3.19,3.3,0,6.3-.51,9.01-1.52,2.7-1.02,5.05-2.45,7.05-4.29,2-1.84,3.6-4,4.81-6.48l-6.58-3.34c-1.27,2.61-3.07,4.7-5.38,6.29-2.32,1.59-5.16,2.38-8.53,2.38-3.18,0-6-.71-8.48-2.14-2.48-1.43-4.4-3.51-5.77-6.24-1.17-2.34-1.83-5.07-2-8.2h37.4c0-5.34-.89-9.97-2.67-13.91-1.78-3.94-4.29-7-7.53-9.2ZM1371.92,750.62c2.32-1.21,4.78-1.81,7.39-1.81s5.02.6,7.05,1.81c2.03,1.21,3.65,2.92,4.86,5.15.99,1.82,1.56,3.92,1.74,6.29h-28.74c.2-2.41.89-4.52,2.07-6.34,1.43-2.19,3.3-3.89,5.62-5.1Z"/>
  <path class="cls-1" d="M1410.75,743.19v47.65h7.62v-26.21c0-3.62.82-6.48,2.48-8.58,1.65-2.1,3.76-3.6,6.34-4.53,2.57-.92,5.26-1.38,8.05-1.38v-7.15c-3.43,0-6.69.78-9.77,2.33-2.84,1.44-5.2,3.58-7.1,6.42v-8.57h-7.62Z"/>
  <path class="cls-1" d="M1450.73,723.99c-.92-.92-2.05-1.38-3.38-1.38s-2.38.46-3.34,1.38c-.95.92-1.43,2.05-1.43,3.38s.48,2.38,1.43,3.34c.95.95,2.06,1.43,3.34,1.43s2.46-.48,3.38-1.43c.92-.95,1.38-2.06,1.38-3.34,0-1.33-.46-2.46-1.38-3.38Z"/>
  <rect class="cls-1" x="1443.44" y="743.19" width="7.62" height="47.65"/>
  <path class="cls-1" d="M1477.69,751.38c2.38-1.53,5.13-2.29,8.24-2.29s5.88.72,8.29,2.14c2.41,1.43,4.26,3.42,5.53,5.96l6.96-3.14c-1.91-3.81-4.67-6.77-8.29-8.86-3.62-2.1-7.72-3.14-12.29-3.14s-8.77,1.06-12.39,3.19c-3.62,2.13-6.43,5.07-8.43,8.81-2,3.75-3,8.07-3,12.96s1.02,9.21,3.05,12.96c2.03,3.75,4.86,6.69,8.48,8.81,3.62,2.13,7.78,3.19,12.48,3.19s8.77-1.14,12.39-3.43c3.62-2.29,6.38-5.46,8.29-9.53l-6.96-3.15c-1.27,2.86-3.13,5.08-5.57,6.67-2.45,1.59-5.23,2.38-8.34,2.38s-5.89-.76-8.34-2.29c-2.45-1.52-4.35-3.64-5.72-6.34-1.37-2.7-2.05-5.8-2.05-9.29s.68-6.59,2.05-9.29c1.37-2.7,3.24-4.81,5.62-6.34Z"/>
  <path class="cls-1" d="M1518.67,766.3c-3.21,2.57-4.81,6.27-4.81,11.1,0,4.57,1.57,8.15,4.72,10.72,3.14,2.57,7.51,3.86,13.1,3.86s9.85-1.92,12.77-5.77c.44-.58.84-1.2,1.21-1.84l.32,6.46h7.05l.1-25.83c.06-5.02-.64-9.23-2.1-12.63-1.46-3.4-3.64-5.97-6.53-7.72-2.89-1.75-6.56-2.62-11.01-2.62-2.92,0-5.53.43-7.81,1.29-2.29.86-4.29,2.1-6,3.72-1.72,1.62-3.18,3.54-4.38,5.77l6.86,2.67c1.21-2.29,2.75-3.95,4.62-5,1.87-1.05,4.11-1.57,6.72-1.57,2.86,0,5.18.64,6.96,1.91,1.78,1.27,3.08,3.13,3.91,5.57.57,1.7.94,3.72,1.12,6.05h-13.32c-5.78,0-10.28,1.29-13.48,3.86ZM1545.59,768.82v1.91c0,2.99-.56,5.57-1.67,7.77-1.11,2.19-2.68,3.88-4.72,5.05-2.03,1.18-4.42,1.76-7.15,1.76-3.3,0-5.88-.72-7.72-2.14-1.84-1.43-2.76-3.38-2.76-5.86,0-2.73.94-4.83,2.81-6.29,1.87-1.46,5.03-2.19,9.48-2.19h11.72Z"/>
  <path class="cls-1" d="M993.55,901.9c4.89,2.95,10.51,4.43,16.87,4.43,4,0,7.86-.76,11.58-2.29,3.72-1.53,7.02-3.65,9.91-6.38,2.89-2.73,5.16-5.84,6.81-9.34l-7.05-3.53c-1.27,2.8-3,5.27-5.19,7.43-2.19,2.16-4.65,3.86-7.39,5.1-2.73,1.24-5.62,1.86-8.67,1.86-4.7,0-8.91-1.16-12.63-3.48-3.72-2.32-6.62-5.54-8.72-9.67-2.1-4.13-3.15-8.86-3.15-14.2s1.03-10.04,3.1-14.1c2.06-4.06,4.94-7.26,8.62-9.58,3.68-2.32,7.85-3.48,12.48-3.48,2.99,0,5.84.56,8.58,1.67,2.73,1.11,5.21,2.65,7.43,4.62,2.22,1.97,3.97,4.29,5.24,6.96l6.96-3.53c-1.59-3.37-3.84-6.34-6.77-8.91-2.92-2.57-6.23-4.57-9.91-6-3.69-1.43-7.53-2.14-11.53-2.14-6.29,0-11.86,1.48-16.72,4.43-4.86,2.95-8.67,7.02-11.44,12.2-2.76,5.18-4.15,11.13-4.15,17.87s1.4,12.69,4.19,17.87c2.79,5.18,6.64,9.24,11.53,12.2Z"/>
  <path class="cls-1" d="M1056.44,864.61v-26.13h-7.62v66.71h7.62v-24.68c0-5.4,1.16-9.58,3.48-12.53,2.32-2.95,5.57-4.43,9.77-4.43,2.41,0,4.57.46,6.48,1.38,1.91.92,3.41,2.62,4.53,5.1,1.11,2.48,1.67,6.07,1.67,10.77v24.4h7.62v-26.68c.06-5.27-.68-9.53-2.24-12.77-1.56-3.24-3.73-5.61-6.53-7.1-2.8-1.49-6.04-2.24-9.72-2.24-3.94,0-7.31.95-10.1,2.86-1.98,1.35-3.63,3.14-4.96,5.35Z"/>
  <path class="cls-1" d="M1104.04,880.65c-3.21,2.57-4.81,6.27-4.81,11.1,0,4.57,1.57,8.15,4.72,10.72,3.14,2.57,7.51,3.86,13.1,3.86s9.85-1.92,12.77-5.77c.44-.58.84-1.2,1.21-1.84l.32,6.46h7.05l.1-25.83c.06-5.02-.64-9.23-2.1-12.63-1.46-3.4-3.64-5.97-6.53-7.72-2.89-1.75-6.56-2.62-11.01-2.62-2.92,0-5.53.43-7.81,1.29-2.29.86-4.29,2.1-6,3.72-1.72,1.62-3.18,3.54-4.38,5.77l6.86,2.67c1.21-2.29,2.75-3.95,4.62-5,1.87-1.05,4.11-1.57,6.72-1.57,2.86,0,5.18.64,6.96,1.91,1.78,1.27,3.08,3.13,3.91,5.57.57,1.7.94,3.72,1.12,6.05h-13.32c-5.78,0-10.28,1.29-13.48,3.86ZM1130.96,883.18v1.91c0,2.99-.56,5.57-1.67,7.77-1.11,2.19-2.68,3.88-4.72,5.05-2.03,1.18-4.42,1.76-7.15,1.76-3.3,0-5.88-.72-7.72-2.14-1.84-1.43-2.76-3.38-2.76-5.86,0-2.73.94-4.83,2.81-6.29,1.87-1.46,5.03-2.19,9.48-2.19h11.72Z"/>
  <path class="cls-1" d="M1193.24,859.16c-2.57,1.84-4.53,4.51-5.86,8.01-1.21-3.62-3.16-6.32-5.86-8.1-2.7-1.78-5.96-2.67-9.77-2.67-3.05,0-5.72.67-8.01,2-2.29,1.33-4.16,3.27-5.62,5.81l-.38-6.67h-7.15v47.65h7.62v-24.68c0-5.4,1.05-9.58,3.14-12.53,2.1-2.95,4.99-4.43,8.67-4.43,2.16,0,4.08.46,5.77,1.38,1.68.92,3.02,2.62,4,5.1.98,2.48,1.48,6.07,1.48,10.77v24.4h7.62v-24.68c0-5.4,1.05-9.58,3.14-12.53,2.1-2.95,5.02-4.43,8.77-4.43,2.16,0,4.07.46,5.72,1.38,1.65.92,2.97,2.62,3.95,5.1.98,2.48,1.48,6.07,1.48,10.77v24.4h7.62v-27.25c.06-7.24-1.45-12.64-4.53-16.2-3.08-3.56-7.29-5.34-12.63-5.34-3.56,0-6.62.92-9.2,2.76Z"/>
  <path class="cls-1" d="M1245.37,859.54c-2.25,1.56-4.12,3.59-5.61,6.07l-.44-8.07h-7.15v66.71h7.62v-27.1c1.48,2.47,3.34,4.49,5.57,6.04,3.02,2.1,6.53,3.14,10.53,3.14,4.26,0,8-1.05,11.25-3.14,3.24-2.1,5.77-5.03,7.58-8.82,1.81-3.78,2.72-8.12,2.72-13.01s-.91-9.31-2.72-13.06c-1.81-3.75-4.34-6.67-7.58-8.77-3.24-2.1-6.99-3.14-11.25-3.14-4,0-7.51,1.05-10.53,3.14ZM1267.76,872.03c1.3,2.73,1.95,5.85,1.95,9.34s-.68,6.69-2.05,9.39c-1.37,2.7-3.21,4.81-5.53,6.34-2.32,1.52-4.97,2.29-7.96,2.29-2.8,0-5.27-.76-7.43-2.29-2.16-1.53-3.86-3.65-5.1-6.38-1.24-2.73-1.86-5.84-1.86-9.34s.62-6.69,1.86-9.39c1.24-2.7,2.95-4.81,5.15-6.34,2.19-1.52,4.68-2.29,7.48-2.29,3.05,0,5.73.76,8.05,2.29,2.32,1.53,4.13,3.65,5.43,6.38Z"/>
  <rect class="cls-1" x="1288.49" y="857.54" width="7.62" height="47.65"/>
  <path class="cls-1" d="M1295.78,838.34c-.92-.92-2.05-1.38-3.38-1.38s-2.38.46-3.34,1.38c-.95.92-1.43,2.05-1.43,3.38s.48,2.38,1.43,3.34c.95.95,2.06,1.43,3.34,1.43s2.46-.48,3.38-1.43c.92-.95,1.38-2.06,1.38-3.34,0-1.33-.46-2.46-1.38-3.38Z"/>
  <path class="cls-1" d="M1318.84,903.14c3.59,2.13,7.73,3.19,12.44,3.19s8.64-1.06,12.2-3.19c3.56-2.13,6.34-5.07,8.34-8.81,2-3.75,3-8.07,3-12.96s-1-9.21-3-12.96c-2-3.75-4.8-6.69-8.39-8.81-3.59-2.13-7.7-3.19-12.34-3.19s-8.75,1.06-12.34,3.19c-3.59,2.13-6.38,5.07-8.39,8.81-2,3.75-3,8.07-3,12.96s1.02,9.21,3.05,12.96c2.03,3.75,4.84,6.69,8.43,8.81ZM1317.12,872.03c1.37-2.67,3.24-4.76,5.62-6.29,2.38-1.53,5.13-2.29,8.24-2.29s5.97.76,8.39,2.29c2.41,1.52,4.3,3.64,5.67,6.34,1.37,2.7,2.05,5.8,2.05,9.29s-.68,6.59-2.05,9.29c-1.37,2.7-3.24,4.81-5.62,6.34-2.38,1.53-5.13,2.29-8.24,2.29s-5.89-.76-8.34-2.29c-2.45-1.52-4.35-3.64-5.72-6.34-1.37-2.7-2.05-5.8-2.05-9.29s.68-6.67,2.05-9.34Z"/>
  <path class="cls-1" d="M1406.46,905.19v-26.68c.06-5.27-.68-9.53-2.24-12.77-1.56-3.24-3.72-5.61-6.48-7.1-2.76-1.49-6.02-2.24-9.77-2.24-3.94,0-7.31.95-10.1,2.86-1.99,1.36-3.64,3.16-4.95,5.39l-.39-7.1h-7.15v47.65h7.62v-24.68c0-5.4,1.16-9.58,3.48-12.53,2.32-2.95,5.57-4.43,9.77-4.43,2.41,0,4.57.46,6.48,1.38,1.91.92,3.4,2.62,4.48,5.1,1.08,2.48,1.62,6.07,1.62,10.77v24.4h7.62Z"/>
  <path class="cls-1" d="M1422.33,860.16c-2.95,2.51-4.43,6.02-4.43,10.53,0,2.92,1.21,5.54,3.62,7.86,2.41,2.32,5.78,4.05,10.1,5.19l4.57,1.24c2.92.76,5.13,1.75,6.62,2.95,1.49,1.21,2.24,2.8,2.24,4.76,0,2.16-1.02,3.83-3.05,5-2.03,1.18-4.54,1.76-7.53,1.76-2.61,0-4.99-.67-7.15-2-2.16-1.33-3.78-3.08-4.86-5.24l-6.67,2.76c.76,2.03,2.02,3.91,3.76,5.62,1.75,1.72,3.92,3.1,6.53,4.15,2.6,1.05,5.65,1.57,9.15,1.57s6.35-.56,8.96-1.67c2.6-1.11,4.67-2.72,6.19-4.81,1.52-2.1,2.29-4.57,2.29-7.43,0-2.16-.54-4.19-1.62-6.1-1.08-1.91-2.67-3.6-4.76-5.1-2.1-1.49-4.7-2.62-7.81-3.38l-4.76-1.24c-2.67-.7-4.69-1.6-6.05-2.72-1.37-1.11-2.05-2.3-2.05-3.57,0-2.22.82-3.95,2.48-5.19,1.65-1.24,3.94-1.86,6.86-1.86,2.73,0,5.05.48,6.96,1.43,1.91.95,3.27,2.51,4.1,4.67l6.67-2.95c-.76-2.03-1.97-3.8-3.62-5.29-1.65-1.49-3.62-2.65-5.91-3.48-2.29-.83-4.83-1.24-7.62-1.24-5.85,0-10.24,1.26-13.2,3.76Z"/>
  <path class="cls-1" d="M1504.14,905.19v-26.68c.06-5.27-.68-9.53-2.24-12.77-1.56-3.24-3.73-5.61-6.53-7.1-2.8-1.49-6.04-2.24-9.72-2.24-3.94,0-7.31.95-10.1,2.86-1.98,1.35-3.63,3.14-4.96,5.35v-26.13h-7.62v66.71h7.62v-24.68c0-5.4,1.16-9.58,3.48-12.53,2.32-2.95,5.57-4.43,9.77-4.43,2.41,0,4.57.46,6.48,1.38,1.91.92,3.41,2.62,4.53,5.1,1.11,2.48,1.67,6.07,1.67,10.77v24.4h7.62Z"/>
  <rect class="cls-1" x="1516.62" y="857.54" width="7.62" height="47.65"/>
  <path class="cls-1" d="M1523.91,838.34c-.92-.92-2.05-1.38-3.38-1.38s-2.38.46-3.34,1.38c-.95.92-1.43,2.05-1.43,3.38s.48,2.38,1.43,3.34c.95.95,2.06,1.43,3.34,1.43s2.46-.48,3.38-1.43c.92-.95,1.38-2.06,1.38-3.34,0-1.33-.46-2.46-1.38-3.38Z"/>
  <path class="cls-1" d="M1546.32,865.62l-.44-8.07h-7.15v66.71h7.62v-27.1c1.48,2.47,3.34,4.49,5.57,6.04,3.02,2.1,6.53,3.14,10.53,3.14,4.26,0,8-1.05,11.25-3.14,3.24-2.1,5.77-5.03,7.58-8.82,1.81-3.78,2.72-8.12,2.72-13.01s-.91-9.31-2.72-13.06c-1.81-3.75-4.34-6.67-7.58-8.77-3.24-2.1-6.99-3.14-11.25-3.14-4,0-7.51,1.05-10.53,3.14-2.25,1.56-4.12,3.59-5.61,6.07ZM1560.84,863.36c3.05,0,5.73.76,8.05,2.29,2.32,1.53,4.13,3.65,5.43,6.38,1.3,2.73,1.95,5.85,1.95,9.34s-.68,6.69-2.05,9.39c-1.37,2.7-3.21,4.81-5.53,6.34-2.32,1.52-4.97,2.29-7.96,2.29-2.8,0-5.27-.76-7.43-2.29-2.16-1.53-3.86-3.65-5.1-6.38-1.24-2.73-1.86-5.84-1.86-9.34s.62-6.69,1.86-9.39c1.24-2.7,2.95-4.81,5.15-6.34,2.19-1.52,4.68-2.29,7.48-2.29Z"/>
  <path class="cls-1" d="M1631.41,856.59c.67-.95,1.51-1.72,2.53-2.29,1.02-.57,2.16-.86,3.43-.86,1.84,0,3.32.24,4.43.71,1.11.48,1.94,1.16,2.48,2.05.54.89.81,1.91.81,3.05,0,1.21-.45,2.42-1.33,3.62-.89,1.21-1.97,2.3-3.24,3.29-1.27.99-2.48,1.86-3.62,2.62l-6.67,4.29c-3.05,1.97-5.8,4.18-8.24,6.62-2.45,2.45-4.37,4.83-5.77,7.15-1.4,2.32-2.1,4.3-2.1,5.96v12.39h49.74v-15.44h-27.54c1.14-1.33,2.35-2.51,3.62-3.53,1.27-1.02,2.51-1.91,3.72-2.67l5.43-3.53c4.13-2.67,7.51-5.64,10.15-8.91,2.64-3.27,3.95-7.29,3.95-12.06,0-4.32-1.03-8.12-3.1-11.39-2.07-3.27-5.02-5.83-8.86-7.67-3.84-1.84-8.47-2.76-13.87-2.76-4.83,0-9.07.91-12.72,2.72-3.65,1.81-6.58,4.21-8.77,7.19-2.19,2.99-3.57,6.19-4.15,9.63l18.2,2.95c.32-1.14.81-2.19,1.48-3.14Z"/>
  <path class="cls-1" d="M1712.79,841.77c-4.35-2.95-9.39-4.43-15.1-4.43s-10.53,1.48-14.82,4.43c-4.29,2.95-7.66,7.02-10.1,12.2-2.45,5.18-3.67,11.13-3.67,17.87s1.22,12.69,3.67,17.87c2.44,5.18,5.84,9.24,10.2,12.2,4.35,2.95,9.32,4.43,14.91,4.43s10.64-1.48,14.96-4.43c4.32-2.95,7.72-7.02,10.2-12.2,2.48-5.18,3.72-11.13,3.72-17.87s-1.24-12.69-3.72-17.87c-2.48-5.18-5.89-9.24-10.24-12.2ZM1708.07,881.42c-1.02,2.76-2.4,4.94-4.15,6.53-1.75,1.59-3.76,2.38-6.05,2.38s-4.23-.79-6-2.38c-1.78-1.59-3.16-3.76-4.15-6.53-.99-2.76-1.48-5.96-1.48-9.58s.49-6.92,1.48-9.72c.98-2.79,2.33-4.99,4.05-6.58,1.72-1.59,3.68-2.38,5.91-2.38,2.35,0,4.41.8,6.19,2.38,1.78,1.59,3.18,3.78,4.19,6.58,1.02,2.8,1.52,6.04,1.52,9.72s-.51,6.81-1.52,9.58Z"/>
  <path class="cls-1" d="M1759.82,866.17c-1.27.99-2.48,1.86-3.62,2.62l-6.67,4.29c-3.05,1.97-5.8,4.18-8.24,6.62-2.45,2.45-4.37,4.83-5.77,7.15-1.4,2.32-2.1,4.3-2.1,5.96v12.39h49.74v-15.44h-27.54c1.14-1.33,2.35-2.51,3.62-3.53,1.27-1.02,2.51-1.91,3.72-2.67l5.43-3.53c4.13-2.67,7.51-5.64,10.15-8.91,2.64-3.27,3.95-7.29,3.95-12.06,0-4.32-1.03-8.12-3.1-11.39-2.07-3.27-5.02-5.83-8.86-7.67-3.84-1.84-8.47-2.76-13.87-2.76-4.83,0-9.07.91-12.72,2.72-3.65,1.81-6.58,4.21-8.77,7.19-2.19,2.99-3.57,6.19-4.15,9.63l18.2,2.95c.32-1.14.81-2.19,1.48-3.14.67-.95,1.51-1.72,2.53-2.29,1.02-.57,2.16-.86,3.43-.86,1.84,0,3.32.24,4.43.71,1.11.48,1.94,1.16,2.48,2.05.54.89.81,1.91.81,3.05,0,1.21-.45,2.42-1.33,3.62-.89,1.21-1.97,2.3-3.24,3.29Z"/>
  <path class="cls-1" d="M1817.47,852.68c1.59,0,3.46.27,5.62.81,2.16.54,4.22,1.45,6.19,2.72l8.29-12.96c-2.73-1.91-5.8-3.37-9.2-4.38-3.4-1.02-6.97-1.52-10.72-1.52-5.53,0-10.15,1.14-13.87,3.43-3.72,2.29-6.66,5.32-8.81,9.1-2.16,3.78-3.72,7.96-4.67,12.53-.95,4.57-1.43,9.15-1.43,13.72,0,4.32.52,8.31,1.57,11.96,1.05,3.65,2.62,6.85,4.72,9.58,2.1,2.73,4.75,4.86,7.96,6.38,3.21,1.52,7,2.29,11.39,2.29,5.21,0,9.69-.94,13.44-2.81,3.75-1.87,6.64-4.45,8.67-7.72,2.03-3.27,3.05-6.94,3.05-11.01s-.92-8.13-2.76-11.63c-1.84-3.49-4.38-6.29-7.62-8.39-3.24-2.1-6.96-3.15-11.15-3.15-3.88,0-7.19.97-9.96,2.91-.85.59-1.62,1.25-2.35,1.96.53-3.82,1.52-6.78,2.96-8.87,2.29-3.3,5.18-4.96,8.67-4.96ZM1807.94,879.7c.7-1.24,1.63-2.22,2.81-2.95,1.17-.73,2.46-1.1,3.86-1.1s2.67.37,3.81,1.1c1.14.73,2.05,1.72,2.72,2.95.67,1.24,1,2.62,1,4.15s-.33,2.78-1,3.95c-.67,1.18-1.57,2.11-2.72,2.81-1.14.7-2.42,1.05-3.81,1.05s-2.68-.35-3.86-1.05c-1.18-.7-2.11-1.63-2.81-2.81-.7-1.18-1.05-2.49-1.05-3.95s.35-2.91,1.05-4.15Z"/>
  <g>
    <g>
      <path class="cls-1" d="M465.57,497.09v3.25c0,9.92-8.05,17.97-17.94,17.97H93.35c-9.92,0-17.94-8.05-17.94-17.97v-2.48c0,4.09,1.03,7.92,2.8,11.27l61.99-36.84,42.06-31.4,43.15-6.44,22.12,11.33,26.31,9.85,22.7,18.9c-.29-9.95-2.48-20.71-8.02-31.17-3.51-6.63-8.15-12.69-13.81-18.03l-16.13,8.02c-3.12,1.55-6.64-1.42-5.6-4.77,1.87-6.15,3.74-12.3,5.57-18.45-17.52-.87-59.22-5.41-98.79-35.2-17.55-13.23-55.1-41.51-60.86-90.65-4.35-37.23,9.31-88.68,54.1-112.61,43.41-23.15,92.84-8.11,121.69,15.94,44.6,37.16,41.06,96.48,39.64,120.14-2.51,42.06-19.45,73.26-29.69,89.13l18.42,6.86c3.32,1.19,3.54,5.76.39,7.31l-17,8.47-.36.16c5.19,5.47,9.6,11.5,13.07,18.06,6.5,12.27,9.02,24.83,9.37,36.36l33.3-36.52,13.14-7.57,13.62,8.05,16.13,22.44,22.7-7.79,15.52,5.15,8.57,19.68,34.07,19.51Z"/>
      <path class="cls-1" d="M431.63,131.64c-3.06,12.72-8.98,23.64-12.98,30.98-12.75,23.47-30.85,36.81-40.83,43.05l7.02,9.53c1.25,1.71-.16,4.06-2.22,3.8l-8.02-.97-.77-.1c-1.22,6.34-1.51,12.56-.77,18.64,1,8.69,3.57,13.52,6.28,18.64,2.99,5.67,6.08,11.56,6.47,21.51.45,11.4-3.09,18.64-6.47,25.67-3.06,6.28-5.96,12.24-6.41,21.93-.48,9.5,1.58,19.19,6.02,28.79,1.38,3.03.1,6.6-2.9,7.99-.84.39-1.67.55-2.54.55-2.25,0-4.44-1.26-5.44-3.45-5.31-11.4-7.7-22.99-7.15-34.42.61-12.2,4.31-19.87,7.6-26.63,3.12-6.44,5.6-11.56,5.28-19.96-.26-7.21-2.38-11.24-5.09-16.36-2.96-5.6-6.31-11.95-7.6-22.83-.81-7.08-.58-14.27.77-21.48l-.71-.1-8.5-1.03c-2.09-.26-2.87-2.87-1.26-4.22,3-2.48,5.96-4.99,8.92-7.47-7.66-8.92-18.39-23.51-25.79-43.83-3.09-8.5-6.63-18.13-8.73-28.24h105.81Z"/>
      <path class="cls-3" d="M465.57,149.57v347.52l-34.07-19.51-8.57-19.68-15.52-5.15-22.7,7.79-16.13-22.44-13.62-8.05-13.14,7.57-33.3,36.52c-.35-11.53-2.87-24.09-9.37-36.36-3.48-6.57-7.89-12.59-13.07-18.06l.36-.16,17-8.47c3.16-1.55,2.93-6.12-.39-7.31l-18.42-6.86c10.24-15.88,27.18-47.08,29.69-89.13,1.42-23.67,4.96-82.98-39.64-120.14-28.85-24.05-78.28-39.09-121.69-15.94-44.79,23.93-58.45,75.38-54.1,112.61,5.76,49.14,43.31,77.41,60.86,90.65,39.58,29.79,81.28,34.33,98.79,35.2-1.83,6.15-3.7,12.3-5.57,18.45-1.03,3.35,2.48,6.31,5.6,4.77l16.13-8.02c5.67,5.35,10.31,11.4,13.81,18.03,5.54,10.47,7.73,21.22,8.02,31.17l-22.7-18.9-26.31-9.85-22.12-11.33-43.15,6.44-42.06,31.4-61.99,36.84c-1.77-3.35-2.8-7.18-2.8-11.27V149.57c0-9.92,8.02-17.94,17.94-17.94h232.46c2.09,10.11,5.64,19.74,8.73,28.24,7.41,20.32,18.13,34.91,25.79,43.83-2.96,2.48-5.92,4.99-8.92,7.47-1.61,1.35-.84,3.96,1.26,4.22l8.5,1.03.71.1c-1.35,7.21-1.58,14.39-.77,21.48,1.29,10.88,4.64,17.23,7.6,22.83,2.7,5.12,4.83,9.15,5.09,16.36.32,8.4-2.16,13.52-5.28,19.96-3.28,6.76-6.99,14.43-7.6,26.63-.55,11.43,1.83,23.02,7.15,34.42,1,2.19,3.19,3.45,5.44,3.45.87,0,1.71-.16,2.54-.55,3-1.39,4.28-4.96,2.9-7.99-4.44-9.6-6.5-19.29-6.02-28.79.45-9.69,3.35-15.65,6.41-21.93,3.38-7.02,6.92-14.27,6.47-25.67-.39-9.95-3.48-15.84-6.47-21.51-2.71-5.12-5.28-9.95-6.28-18.64-.74-6.09-.45-12.3.77-18.64l.77.1,8.02.97c2.06.26,3.48-2.09,2.22-3.8l-7.02-9.53c9.98-6.25,28.08-19.58,40.83-43.05,3.99-7.34,9.92-18.26,12.98-30.98h16c9.89,0,17.94,8.02,17.94,17.94Z"/>
    </g>
    <g>
      <polygon class="cls-1" points="834.12 948.17 544.05 948.17 583.14 908.08 666.86 874.14 695.14 844.74 751.71 878.68 805.46 939.22 818.47 937.51 834.12 948.17"/>
      <g>
        <path class="cls-4" d="M869.48,557.92h-342.4c-.42,0-.84,0-1.22.06h344.84c-.39-.06-.81-.06-1.22-.06ZM893.34,580.62v344.84c.06-.39.06-.81.06-1.22v-342.4c0-.42,0-.84-.06-1.22Z"/>
        <path class="cls-4" d="M875.34,557.98h-354.15c-9.95,0-18.03,8.08-18.03,18.03v354.15c0,9.95,8.08,18,18.03,18h22.86l39.09-40.09,83.72-33.94,28.27-29.4,56.58,33.94,53.74,60.54,13.01-1.71,15.65,10.66h41.22c9.95,0,18-8.05,18-18v-354.15c0-9.95-8.05-18.03-18-18.03ZM642.49,803.78c-13.72-.81-27.27-1.71-40.73-2.77-1.19-.1-2.25.68-2.51,1.84-3.73,15.33-6.54,31.07-8.28,47.01-.29,2.45-3.57,2.96-4.61.74-7.47-16.39-13.14-33.39-16.91-50.72-.22-1.03-1.09-1.77-2.12-1.87-13.91-1.35-27.66-2.83-41.28-4.44-2.09-.26-2.86-2.93-1.22-4.28,12.82-10.34,25.6-20.09,38.25-29.21.64-.48,1-1.22.97-2.06-.71-17.74.51-35.61,3.73-53.29.45-2.42,3.8-2.71,4.64-.39,4.35,11.85,10.05,23.41,16.91,34.55.71,1.16,2.25,1.48,3.38.74,11.01-7.28,21.83-14.07,32.49-20.45,2.06-1.22,4.44,1,3.38,3.16-6.86,13.85-12.98,28.27-18.23,43.12-.29.84-.13,1.74.45,2.42,9.79,11.21,20.96,21.8,33.3,31.62,1.83,1.45.71,4.41-1.61,4.28ZM688.08,652.01c-10.43-2.54-21.03-5.99-31.62-10.4-.51-.23-1.09-.16-1.55.19-9.11,6.47-18.22,12.33-27.31,17.55-1.25.71-2.74-.45-2.32-1.84,2.48-8.6,4.96-17.26,7.41-25.95.23-.71-.1-1.45-.74-1.83-9.82-5.44-19.58-11.72-29.11-18.81-1.39-1-.42-3.16,1.22-2.83,10.95,2,22.06,3.03,33.23,2.99.74,0,1.35-.48,1.55-1.16,2.48-8.82,4.96-17.65,7.44-26.53.39-1.38,2.22-1.61,2.93-.35,4.86,8.57,9.76,16.97,14.62,25.12.36.55,1,.87,1.64.77,11.27-1.74,22.48-4.51,33.46-8.28,1.61-.55,2.86,1.45,1.64,2.64-8.08,7.95-16.26,15.33-24.54,22.19-.61.51-.74,1.38-.32,2.09,4.73,7.53,9.44,14.88,14.11,21.99.81,1.22-.32,2.77-1.74,2.45ZM869.25,786.26c-19.9,2.25-40.03,4.38-60.44,6.38-1.67.16-3.06,1.42-3.38,3.09-4.67,23.41-11.21,46.6-19.55,69.36-1.32,3.54-6.41,3.28-7.34-.35-5.7-21.83-11.82-43.34-18.26-64.53-.52-1.74-2.19-2.87-4.03-2.7-20.09,1.77-40.41,3.38-60.96,4.93-3.8.29-5.67-4.57-2.61-6.92,18.26-14.07,34.91-28.79,49.78-44.02,1-1.03,1.35-2.58.87-3.93-6.95-20.54-14.17-40.7-21.64-60.54-1.35-3.51,2.64-6.63,5.76-4.54,14.1,9.6,28.79,19.48,44.08,29.79,1.71,1.13,4.03.74,5.25-.9,10.95-14.78,20.38-29.92,28.24-45.31,1.74-3.41,6.92-2.45,7.28,1.38,2.12,23.47,2.38,47.01.81,70.42-.1,1.38.55,2.7,1.67,3.44,18.07,12.14,36.81,24.8,56.19,37.93,2.96,2,1.84,6.63-1.74,7.02Z"/>
        <path class="cls-1" d="M676.04,625.48c-.61.51-.74,1.38-.32,2.09,4.73,7.53,9.44,14.88,14.11,21.99.81,1.22-.32,2.77-1.74,2.45-10.43-2.54-21.03-5.99-31.62-10.4-.51-.23-1.09-.16-1.55.19-9.11,6.47-18.22,12.33-27.31,17.55-1.25.71-2.74-.45-2.32-1.84,2.48-8.6,4.96-17.26,7.41-25.95.23-.71-.1-1.45-.74-1.83-9.82-5.44-19.58-11.72-29.11-18.81-1.39-1-.42-3.16,1.22-2.83,10.95,2,22.06,3.03,33.23,2.99.74,0,1.35-.48,1.55-1.16,2.48-8.82,4.96-17.65,7.44-26.53.39-1.38,2.22-1.61,2.93-.35,4.86,8.57,9.76,16.97,14.62,25.12.36.55,1,.87,1.64.77,11.27-1.74,22.48-4.51,33.46-8.28,1.61-.55,2.86,1.45,1.64,2.64-8.08,7.95-16.26,15.33-24.54,22.19Z"/>
        <path class="cls-1" d="M642.49,803.78c-13.72-.81-27.27-1.71-40.73-2.77-1.19-.1-2.25.68-2.51,1.84-3.73,15.33-6.54,31.07-8.28,47.01-.29,2.45-3.57,2.96-4.61.74-7.47-16.39-13.14-33.39-16.91-50.72-.22-1.03-1.09-1.77-2.12-1.87-13.91-1.35-27.66-2.83-41.28-4.44-2.09-.26-2.86-2.93-1.22-4.28,12.82-10.34,25.6-20.09,38.25-29.21.64-.48,1-1.22.97-2.06-.71-17.74.51-35.61,3.73-53.29.45-2.42,3.8-2.71,4.64-.39,4.35,11.85,10.05,23.41,16.91,34.55.71,1.16,2.25,1.48,3.38.74,11.01-7.28,21.83-14.07,32.49-20.45,2.06-1.22,4.44,1,3.38,3.16-6.86,13.85-12.98,28.27-18.23,43.12-.29.84-.13,1.74.45,2.42,9.79,11.21,20.96,21.8,33.3,31.62,1.83,1.45.71,4.41-1.61,4.28Z"/>
        <path class="cls-1" d="M869.25,786.26c-19.9,2.25-40.03,4.38-60.44,6.38-1.67.16-3.06,1.42-3.38,3.09-4.67,23.41-11.21,46.6-19.55,69.36-1.32,3.54-6.41,3.28-7.34-.35-5.7-21.83-11.82-43.34-18.26-64.53-.52-1.74-2.19-2.87-4.03-2.7-20.09,1.77-40.41,3.38-60.96,4.93-3.8.29-5.67-4.57-2.61-6.92,18.26-14.07,34.91-28.79,49.78-44.02,1-1.03,1.35-2.58.87-3.93-6.95-20.54-14.17-40.7-21.64-60.54-1.35-3.51,2.64-6.63,5.76-4.54,14.1,9.6,28.79,19.48,44.08,29.79,1.71,1.13,4.03.74,5.25-.9,10.95-14.78,20.38-29.92,28.24-45.31,1.74-3.41,6.92-2.45,7.28,1.38,2.12,23.47,2.38,47.01.81,70.42-.1,1.38.55,2.7,1.67,3.44,18.07,12.14,36.81,24.8,56.19,37.93,2.96,2,1.84,6.63-1.74,7.02Z"/>
      </g>
    </g>
    <g>
      <path class="cls-2" d="M165.32,679.03c-.93-.93-2.22-1.38-3.83-1.38s-2.9.45-3.83,1.38c-.9.93-1.35,2.42-1.35,4.44v15.42c0,2.03.45,3.48,1.35,4.41.93.93,2.19,1.42,3.83,1.42s2.9-.48,3.83-1.42c.93-.93,1.39-2.38,1.39-4.41v-15.42c0-2.03-.45-3.51-1.39-4.44ZM163.67,693.32c-.55.58-1.26.84-2.13.84-.93,0-1.67-.26-2.19-.84-.52-.55-.81-1.29-.81-2.19,0-.84.29-1.55.81-2.06.52-.51,1.25-.77,2.19-.77.87,0,1.58.26,2.13.77.52.52.77,1.22.77,2.06,0,.9-.26,1.64-.77,2.19Z"/>
      <path class="cls-2" d="M182.77,658.26h-42.54c-4.41,0-7.99,3.57-7.99,7.99v48.53c0,4.41,3.57,7.99,7.99,7.99h42.54c4.41,0,7.99-3.57,7.99-7.99v-48.53c0-4.41-3.58-7.99-7.99-7.99ZM175.81,698.89c0,3.32-.64,6.02-1.9,8.02-1.26,2.03-3,3.48-5.15,4.38-2.19.9-4.61,1.32-7.28,1.32s-5.09-.42-7.25-1.32c-2.16-.9-3.86-2.35-5.12-4.38-1.26-2-1.9-4.7-1.9-8.02v-15.42c0-3.35.64-6.02,1.9-8.05,1.26-2,2.96-3.48,5.12-4.35,2.16-.9,4.57-1.35,7.25-1.35s5.09.45,7.28,1.35c2.16.87,3.9,2.35,5.15,4.35,1.26,2.03,1.9,4.7,1.9,8.05v15.42Z"/>
      <path class="cls-2" d="M256.57,658.26h-42.57c-4.41,0-7.99,3.57-7.99,7.99v48.53c0,4.41,3.57,7.99,7.99,7.99h42.57c4.41,0,7.99-3.57,7.99-7.99v-48.53c0-4.41-3.57-7.99-7.99-7.99ZM241.28,709.49c0,.93-.48,1.61-1.42,2.09-.97.45-2,.68-3.12.68s-2.16-.23-3.09-.68c-.97-.48-1.45-1.16-1.45-2.09v-29.62l-1.68,1.03c-.29.16-.55.29-.81.35-.26.06-.48.1-.68.1-.84,0-1.51-.35-2.06-1.13-.52-.74-.77-1.58-.77-2.45,0-.64.13-1.22.42-1.77.26-.55.68-1,1.26-1.32l7.7-4.67c.22-.16.48-.26.77-.32.29-.06.61-.06.93-.06.9,0,1.8.23,2.71.74.87.51,1.29,1.19,1.29,2.09v37.03Z"/>
      <path class="cls-2" d="M328.35,871.04l-.48.48c.03-.16.1-.35.16-.48h.32Z"/>
      <path class="cls-2" d="M312.89,679.03c-.93-.93-2.22-1.38-3.86-1.38s-2.9.45-3.8,1.38c-.9.93-1.38,2.42-1.38,4.44v15.42c0,2.03.48,3.48,1.38,4.41.9.93,2.19,1.42,3.8,1.42s2.93-.48,3.86-1.42c.93-.93,1.39-2.38,1.39-4.41v-15.42c0-2.03-.45-3.51-1.39-4.44ZM311.22,693.32c-.52.58-1.22.84-2.13.84s-1.64-.26-2.19-.84c-.51-.55-.77-1.29-.77-2.19,0-.84.26-1.55.77-2.06.55-.51,1.26-.77,2.19-.77s1.61.26,2.13.77c.51.52.81,1.22.81,2.06,0,.9-.29,1.64-.81,2.19Z"/>
      <path class="cls-2" d="M330.35,658.26h-42.57c-4.38,0-7.95,3.57-7.95,7.99v48.53c0,4.41,3.57,7.99,7.95,7.99h42.57c4.41,0,7.99-3.57,7.99-7.99v-48.53c0-4.41-3.58-7.99-7.99-7.99ZM323.36,698.89c0,3.32-.64,6.02-1.9,8.02-1.26,2.03-2.96,3.48-5.15,4.38-2.16.9-4.57,1.32-7.28,1.32s-5.09-.42-7.25-1.32c-2.16-.9-3.86-2.35-5.12-4.38-1.25-2-1.9-4.7-1.9-8.02v-15.42c0-3.35.64-6.02,1.9-8.05,1.26-2,2.96-3.48,5.12-4.35,2.16-.9,4.57-1.35,7.25-1.35s5.12.45,7.28,1.35c2.19.87,3.9,2.35,5.15,4.35,1.26,2.03,1.9,4.7,1.9,8.05v15.42Z"/>
      <path class="cls-2" d="M376.97,791.34l-61.79,65.69v-61.7c0-2.22,1.8-3.99,3.99-3.99h57.8Z"/>
      <path class="cls-2" d="M390.11,805.32v61.7c0,2.22-1.77,4.03-3.99,4.03h-57.77l14.33-15.3,4.44-4.7,42.99-45.73Z"/>
      <path class="cls-2" d="M404.12,658.26h-42.57c-4.38,0-7.95,3.57-7.95,7.99v48.53c0,4.41,3.57,7.99,7.95,7.99h42.57c4.41,0,7.99-3.57,7.99-7.99v-48.53c0-4.41-3.57-7.99-7.99-7.99ZM388.86,709.49c0,.93-.48,1.61-1.45,2.09-.93.45-1.96.68-3.09.68s-2.19-.23-3.12-.68c-.97-.48-1.42-1.16-1.42-2.09v-29.62l-1.71,1.03c-.26.16-.52.29-.77.35-.26.06-.48.1-.68.1-.84,0-1.55-.35-2.06-1.13-.52-.74-.77-1.58-.77-2.45,0-.64.13-1.22.39-1.77.26-.55.71-1,1.29-1.32l7.66-4.67c.26-.16.52-.26.81-.32.29-.06.58-.06.9-.06.93,0,1.83.23,2.7.74.87.51,1.32,1.19,1.32,2.09v37.03Z"/>
      <path class="cls-1" d="M388.86,672.46v37.03c0,.93-.48,1.61-1.45,2.09-.93.45-1.96.68-3.09.68s-2.19-.23-3.12-.68c-.97-.48-1.42-1.16-1.42-2.09v-29.62l-1.71,1.03c-.26.16-.52.29-.77.35-.26.06-.48.1-.68.1-.84,0-1.55-.35-2.06-1.13-.52-.74-.77-1.58-.77-2.45,0-.64.13-1.22.39-1.77.26-.55.71-1,1.29-1.32l7.66-4.67c.26-.16.52-.26.81-.32.29-.06.58-.06.9-.06.93,0,1.83.23,2.7.74.87.51,1.32,1.19,1.32,2.09Z"/>
      <path class="cls-2" d="M441.7,558.69H99.27c-13.2,0-23.92,10.72-23.92,23.93v274.83c0,11.37,7.98,21.16,19.13,23.44l316.02,64.89c5.15,1.06,10.34,1.83,15.52,2.38,5.22.51,10.43.77,15.68.77,13.2,0,23.93-10.69,23.93-23.93v-342.39c0-13.2-10.72-23.93-23.93-23.93ZM428.78,637.42v141.94c0,6.63-5.35,11.98-11.95,11.98h-11.27v84.78c0,4.41-3.58,7.95-7.99,7.95h-17.65c-3,11.79-13.65,20.51-26.34,20.51s-23.38-8.73-26.34-20.51h-19.51c-4.41,0-7.99-3.54-7.99-7.95v-84.78h-88v40.12c0,4.41-3.57,7.95-7.99,7.95h-2.74c0,15.04-12.17,27.18-27.18,27.18s-27.15-12.14-27.15-27.18h-2.19c-4.41,0-7.95-3.54-7.95-7.95v-40.12h-9.05c-6.6,0-11.95-5.35-11.95-11.98v-141.94h-15.58c0-15.55,12.59-28.14,28.14-28.14h284.72c7.79,0,14.81,3.12,19.93,8.24,5.09,5.09,8.21,12.11,8.21,19.9h-12.2Z"/>
      <path class="cls-1" d="M432.78,617.52c-5.12-5.12-12.14-8.24-19.93-8.24H128.12c-15.55,0-28.14,12.59-28.14,28.14h15.58v141.94c0,6.63,5.35,11.98,11.95,11.98h9.05v40.12c0,4.41,3.54,7.95,7.95,7.95h2.19c0,15.04,12.14,27.18,27.15,27.18s27.18-12.14,27.18-27.18h2.74c4.41,0,7.99-3.54,7.99-7.95v-40.12h88v84.78c0,4.41,3.58,7.95,7.99,7.95h19.51c2.96,11.79,13.62,20.51,26.34,20.51s23.35-8.73,26.34-20.51h17.65c4.41,0,7.99-3.54,7.99-7.95v-84.78h11.27c6.6,0,11.95-5.35,11.95-11.98v-141.94h12.2c0-7.79-3.12-14.81-8.21-19.9ZM190.76,714.77c0,4.41-3.58,7.99-7.99,7.99h-42.54c-4.41,0-7.99-3.57-7.99-7.99v-48.53c0-4.41,3.57-7.99,7.99-7.99h42.54c4.41,0,7.99,3.57,7.99,7.99v48.53ZM264.56,714.77c0,4.41-3.57,7.99-7.99,7.99h-42.57c-4.41,0-7.99-3.57-7.99-7.99v-48.53c0-4.41,3.57-7.99,7.99-7.99h42.57c4.41,0,7.99,3.57,7.99,7.99v48.53ZM287.78,722.76c-4.38,0-7.95-3.57-7.95-7.99v-48.53c0-4.41,3.57-7.99,7.95-7.99h42.57c4.41,0,7.99,3.57,7.99,7.99v48.53c0,4.41-3.58,7.99-7.99,7.99h-42.57ZM315.18,857.03v-61.7c0-2.22,1.8-3.99,3.99-3.99h57.8l-61.79,65.69ZM390.11,867.02c0,2.22-1.77,4.03-3.99,4.03h-57.77l-.48.48c.03-.16.1-.35.16-.48h.32l14.33-15.3,4.44-4.7,42.99-45.73v61.7ZM412.1,714.77c0,4.41-3.57,7.99-7.99,7.99h-42.57c-4.38,0-7.95-3.57-7.95-7.99v-48.53c0-4.41,3.57-7.99,7.95-7.99h42.57c4.41,0,7.99,3.57,7.99,7.99v48.53Z"/>
      <path class="cls-1" d="M173.91,675.42c-1.26-2-3-3.48-5.15-4.35-2.19-.9-4.61-1.35-7.28-1.35s-5.09.45-7.25,1.35c-2.16.87-3.86,2.35-5.12,4.35-1.26,2.03-1.9,4.7-1.9,8.05v15.42c0,3.32.64,6.02,1.9,8.02,1.26,2.03,2.96,3.48,5.12,4.38,2.16.9,4.57,1.32,7.25,1.32s5.09-.42,7.28-1.32c2.16-.9,3.9-2.35,5.15-4.38,1.26-2,1.9-4.7,1.9-8.02v-15.42c0-3.35-.64-6.02-1.9-8.05ZM166.7,698.89c0,2.03-.45,3.48-1.39,4.41-.93.93-2.22,1.42-3.83,1.42s-2.9-.48-3.83-1.42c-.9-.93-1.35-2.38-1.35-4.41v-15.42c0-2.03.45-3.51,1.35-4.44.93-.93,2.19-1.38,3.83-1.38s2.9.45,3.83,1.38c.93.93,1.39,2.42,1.39,4.44v15.42Z"/>
      <path class="cls-1" d="M164.45,691.13c0,.9-.26,1.64-.77,2.19-.55.58-1.26.84-2.13.84-.93,0-1.67-.26-2.19-.84-.52-.55-.81-1.29-.81-2.19,0-.84.29-1.55.81-2.06.52-.51,1.25-.77,2.19-.77.87,0,1.58.26,2.13.77.52.52.77,1.22.77,2.06Z"/>
      <path class="cls-1" d="M241.28,672.46v37.03c0,.93-.48,1.61-1.42,2.09-.97.45-2,.68-3.12.68s-2.16-.23-3.09-.68c-.97-.48-1.45-1.16-1.45-2.09v-29.62l-1.68,1.03c-.29.16-.55.29-.81.35-.26.06-.48.1-.68.1-.84,0-1.51-.35-2.06-1.13-.52-.74-.77-1.58-.77-2.45,0-.64.13-1.22.42-1.77.26-.55.68-1,1.26-1.32l7.7-4.67c.22-.16.48-.26.77-.32.29-.06.61-.06.93-.06.9,0,1.8.23,2.71.74.87.51,1.29,1.19,1.29,2.09Z"/>
      <path class="cls-1" d="M321.46,675.42c-1.26-2-2.96-3.48-5.15-4.35-2.16-.9-4.57-1.35-7.28-1.35s-5.09.45-7.25,1.35c-2.16.87-3.86,2.35-5.12,4.35-1.25,2.03-1.9,4.7-1.9,8.05v15.42c0,3.32.64,6.02,1.9,8.02,1.26,2.03,2.96,3.48,5.12,4.38,2.16.9,4.57,1.32,7.25,1.32s5.12-.42,7.28-1.32c2.19-.9,3.9-2.35,5.15-4.38,1.26-2,1.9-4.7,1.9-8.02v-15.42c0-3.35-.64-6.02-1.9-8.05ZM314.28,698.89c0,2.03-.45,3.48-1.39,4.41-.93.93-2.22,1.42-3.86,1.42s-2.9-.48-3.8-1.42c-.9-.93-1.38-2.38-1.38-4.41v-15.42c0-2.03.48-3.51,1.38-4.44.9-.93,2.19-1.38,3.8-1.38s2.93.45,3.86,1.38c.93.93,1.39,2.42,1.39,4.44v15.42Z"/>
      <path class="cls-1" d="M312.03,691.13c0,.9-.29,1.64-.81,2.19-.52.58-1.22.84-2.13.84s-1.64-.26-2.19-.84c-.51-.55-.77-1.29-.77-2.19,0-.84.26-1.55.77-2.06.55-.51,1.26-.77,2.19-.77s1.61.26,2.13.77c.51.52.81,1.22.81,2.06Z"/>
      <path class="cls-1" d="M328.35,871.04l-.48.48c.03-.16.1-.35.16-.48h.32Z"/>
    </g>
    <g>
      <g>
        <path class="cls-5" d="M806.5,341.98l-20.03-66.24c-2.03-6.7-8.21-11.3-15.23-11.3h-143.52c-7.02,0-13.2,4.6-15.23,11.3l-20.03,66.24c-3.09,10.24,4.54,20.51,15.23,20.51h183.58c10.69,0,18.32-10.27,15.23-20.51ZM651.78,333.64c1.16.68,1.71,1.93,1.71,3.7,0,2-.71,3.64-2.12,4.99-1.45,1.32-2.9,2-4.35,2-.84,0-1.45-.16-1.83-.48l-24.25-15.75c-1.09-.71-1.83-1.58-2.29-2.58-.45-1.03-.68-1.96-.68-2.8s.22-1.74.68-2.77c.45-1,1.19-1.87,2.29-2.58l24.25-15.75c.39-.32,1-.48,1.83-.48,1.45,0,2.9.68,4.35,2,1.42,1.35,2.12,2.99,2.12,4.99,0,1.77-.55,2.99-1.71,3.7l-16.81,10.88,16.81,10.92ZM720.91,282.34l-33.62,68.88c-.29.68-.87,1.26-1.71,1.71-.84.45-1.71.68-2.58.68-1.58,0-2.9-.55-3.86-1.64-1-1.09-1.48-2.22-1.48-3.44,0-.55.16-1.16.45-1.8l33.55-68.88c.77-1.58,2.09-2.38,3.99-2.38,1.35,0,2.61.48,3.83,1.38,1.22.93,1.8,2.16,1.8,3.7,0,.68-.13,1.29-.39,1.8ZM780.32,325.53c-.42,1-1.19,1.87-2.29,2.58l-24.25,15.75c-.39.32-1,.48-1.8.48-1.42,0-2.87-.68-4.32-2-1.45-1.35-2.19-2.99-2.19-4.99,0-1.77.58-3.03,1.71-3.7l16.81-10.92-16.81-10.88c-1.13-.71-1.71-1.93-1.71-3.7,0-2,.74-3.64,2.19-4.99,1.45-1.32,2.9-2,4.32-2,.81,0,1.42.16,1.8.48l24.25,15.75c1.09.71,1.87,1.58,2.29,2.58.45,1.03.68,1.96.68,2.77s-.22,1.77-.68,2.8Z"/>
        <path class="cls-5" d="M893.38,222.45v274.8c0,13.2-10.72,23.93-23.92,23.93h-342.39c-13.2,0-23.93-10.72-23.93-23.93V154.86c0-13.23,10.72-23.93,23.93-23.93,4.35,0,8.73.19,13.07.64,4.35.45,8.66,1.1,12.94,1.96l158.88,32.39-13.4,13.4-10.11,10.11c-2.22,2.22-3.48,5.25-3.48,8.44v24.54h-37.55c-4.64,0-8.82,1.87-11.85,4.89-3.03,3.03-4.93,7.25-4.93,11.85h-22.51c-7.02,0-13.2,4.6-15.26,11.33l-31.07,102.82c-1.35,4.51-1.35,9.31,0,13.81l31.07,102.82c2.06,6.73,8.24,11.33,15.26,11.33h182.67c7.02,0,13.24-4.61,15.26-11.33l31.07-102.82c1.39-4.51,1.39-9.31,0-13.81l-31.07-102.82c-2.03-6.73-8.24-11.33-15.26-11.33h-22.51c0-9.24-7.5-16.75-16.74-16.75h-42.73v-14.65c0-3.16,1.26-6.22,3.51-8.44l14.27-14.27,13.39-13.43.45.1,133.79,27.27c11.14,2.25,19.13,12.08,19.13,23.44Z"/>
      </g>
      <path class="cls-1" d="M837.16,353.31l-31.07-102.82c-2.03-6.73-8.24-11.33-15.26-11.33h-22.51c0-9.24-7.5-16.75-16.74-16.75h-42.73v-14.65c0-3.16,1.26-6.22,3.51-8.44l14.27-14.27,13.39-13.43-28.05-5.7-13.4,13.4-10.11,10.11c-2.22,2.22-3.48,5.25-3.48,8.44v24.54h-37.55c-4.64,0-8.82,1.87-11.85,4.89-3.03,3.03-4.93,7.25-4.93,11.85h-22.51c-7.02,0-13.2,4.6-15.26,11.33l-31.07,102.82c-1.35,4.51-1.35,9.31,0,13.81l31.07,102.82c2.06,6.73,8.24,11.33,15.26,11.33h182.67c7.02,0,13.24-4.61,15.26-11.33l31.07-102.82c1.39-4.51,1.39-9.31,0-13.81ZM791.27,362.49h-183.58c-10.69,0-18.32-10.27-15.23-20.51l20.03-66.24c2.03-6.7,8.21-11.3,15.23-11.3h143.52c7.02,0,13.2,4.6,15.23,11.3l20.03,66.24c3.09,10.24-4.54,20.51-15.23,20.51Z"/>
      <path class="cls-1" d="M653.48,337.34c0,2-.71,3.64-2.12,4.99-1.45,1.32-2.9,2-4.35,2-.84,0-1.45-.16-1.83-.48l-24.25-15.75c-1.09-.71-1.83-1.58-2.29-2.58-.45-1.03-.68-1.96-.68-2.8s.22-1.74.68-2.77c.45-1,1.19-1.87,2.29-2.58l24.25-15.75c.39-.32,1-.48,1.83-.48,1.45,0,2.9.68,4.35,2,1.42,1.35,2.12,2.99,2.12,4.99,0,1.77-.55,2.99-1.71,3.7l-16.81,10.88,16.81,10.92c1.16.68,1.71,1.93,1.71,3.7Z"/>
      <path class="cls-1" d="M781,322.72c0,.84-.22,1.77-.68,2.8-.42,1-1.19,1.87-2.29,2.58l-24.25,15.75c-.39.32-1,.48-1.8.48-1.42,0-2.87-.68-4.32-2-1.45-1.35-2.19-2.99-2.19-4.99,0-1.77.58-3.03,1.71-3.7l16.81-10.92-16.81-10.88c-1.13-.71-1.71-1.93-1.71-3.7,0-2,.74-3.64,2.19-4.99,1.45-1.32,2.9-2,4.32-2,.81,0,1.42.16,1.8.48l24.25,15.75c1.09.71,1.87,1.58,2.29,2.58.45,1.03.68,1.96.68,2.77Z"/>
      <path class="cls-1" d="M721.3,280.54c0,.68-.13,1.29-.39,1.8l-33.62,68.88c-.29.68-.87,1.26-1.71,1.71-.84.45-1.71.68-2.58.68-1.58,0-2.9-.55-3.86-1.64-1-1.09-1.48-2.22-1.48-3.44,0-.55.16-1.16.45-1.8l33.55-68.88c.77-1.58,2.09-2.38,3.99-2.38,1.35,0,2.61.48,3.83,1.38,1.22.93,1.8,2.16,1.8,3.7Z"/>
    </g>
  </g>
</svg>